<?xml version="1.0" standalone="no"?><!DOCTYPE svg PUBLIC "-//W3C//DTD SVG 1.1//EN" "http://www.w3.org/Graphics/SVG/1.1/DTD/svg11.dtd"><svg t="1608283198490" class="icon" viewBox="0 0 1024 1024" version="1.1" xmlns="http://www.w3.org/2000/svg" p-id="2154" xmlns:xlink="http://www.w3.org/1999/xlink" width="200" height="200"><defs><style type="text/css"></style></defs><path d="M224 64c45.184 0 83.072 31.232 93.312 73.216l558.656 225.216a32 32 0 0 1 0 59.328L320 645.76V864c0 45.76-32.256 84.608-77.44 94.08l-9.28 1.408L224 960A96 96 0 0 1 128 864v-704A96 96 0 0 1 224 64z m0 64a32 32 0 0 0-32 32v704c0 17.664 14.336 32 30.144 32l5.632-0.192A32 32 0 0 0 256 864v-704a32 32 0 0 0-32-32zM320 207.424v369.28l458.304-184.64L320 207.424z" p-id="2155"></path></svg>