<?xml version="1.0" standalone="no"?><!DOCTYPE svg PUBLIC "-//W3C//DTD SVG 1.1//EN" "http://www.w3.org/Graphics/SVG/1.1/DTD/svg11.dtd"><svg t="1608283167014" class="icon" viewBox="0 0 1024 1024" version="1.1" xmlns="http://www.w3.org/2000/svg" p-id="1044" xmlns:xlink="http://www.w3.org/1999/xlink" width="200" height="200"><defs><style type="text/css"></style></defs><path d="M512 256c86.208 0 167.232 34.176 225.984 93.696A317.184 317.184 0 0 1 832 576v192h32c49.792 0 90.88 38.208 95.552 86.784L960 864c0 52.864-43.136 96-96 96h-704c-52.864 0-96-43.136-96-96S107.136 768 160 768H192V576a319.616 319.616 0 0 1 306.112-319.68z m352 576h-704c-17.536 0-32 14.464-32 32s14.464 32 32 32h704c17.536 0 32-14.464 32-32s-14.464-32-32-32zM512 320C370.304 320 256 434.304 256 576v192h512V576a253.568 253.568 0 0 0-65.28-170.624l-9.984-10.432A253.184 253.184 0 0 0 512 320z m387.968-32a32 32 0 0 1-6.976 40.384l-4.736 3.328-55.424 32a32 32 0 0 1-36.672-52.096l4.672-3.328 55.424-32a32 32 0 0 1 43.712 11.712zM162.56 273.856l5.248 2.432 55.424 32a32 32 0 0 1-26.816 57.856l-5.184-2.432-55.424-32a32 32 0 0 1 26.752-57.856zM736 124.032a32 32 0 0 1 14.144 38.4l-2.432 5.312-32 55.424a32 32 0 0 1-57.856-26.816l2.432-5.184 32-55.424a32 32 0 0 1 43.712-11.712z m-407.616 6.976l3.328 4.736 32 55.424a32 32 0 0 1-52.096 36.672l-3.328-4.672-32-55.424a32 32 0 0 1 52.096-36.736zM512 64a32 32 0 0 1 31.488 26.24l0.512 5.76v64a32 32 0 0 1-63.488 5.76L480 160v-64A32 32 0 0 1 512 64z" p-id="1045"></path></svg>