<?xml version="1.0" standalone="no"?><!DOCTYPE svg PUBLIC "-//W3C//DTD SVG 1.1//EN" "http://www.w3.org/Graphics/SVG/1.1/DTD/svg11.dtd"><svg t="1608282536573" class="icon" viewBox="0 0 1024 1024" version="1.1" xmlns="http://www.w3.org/2000/svg" p-id="1787" xmlns:xlink="http://www.w3.org/1999/xlink" width="200" height="200"><defs><style type="text/css"></style></defs><path d="M981.03808 355.29728a30.72 30.72 0 0 0-30.72 30.72V972.7488a30.72 30.72 0 1 0 61.44 0V386.01728a30.72 30.72 0 0 0-30.72-30.72z" p-id="1788"></path><path d="M981.03808 355.29728H427.79648a30.72 30.72 0 1 0 0 61.44h553.23648a30.72 30.72 0 0 0 0.00512-61.44zM919.59808 112.64H366.35648a30.72 30.72 0 1 0 0 61.44h553.23648a30.72 30.72 0 0 0 0.00512-61.44zM314.68032 51.2H39.95648a30.72 30.72 0 1 0 0 61.44H314.6752a30.72 30.72 0 0 0 0.00512-61.44z" p-id="1789"></path><path d="M316.50304 51.2a30.72 30.72 0 0 0-28.86656 41.23136l110.78144 304.37376a30.73536 30.73536 0 0 0 39.37792 18.36544 30.72 30.72 0 0 0 18.36032-39.3728L345.37472 71.41888A30.73536 30.73536 0 0 0 316.50304 51.2zM39.95648 51.2a30.72 30.72 0 0 0-30.72 30.72v890.8288a30.72 30.72 0 1 0 61.44 0V81.92a30.72 30.72 0 0 0-30.72-30.72zM919.59808 112.64a30.72 30.72 0 0 0-30.72 30.72v230.2464a30.72 30.72 0 1 0 61.44 0V143.36a30.72 30.72 0 0 0-30.72-30.72z" p-id="1790"></path><path d="M981.03808 942.08H39.95648a30.72 30.72 0 1 0 0 61.44h941.07648a30.72 30.72 0 0 0 0.00512-61.44z" p-id="1791"></path></svg>