<svg class="icon" viewBox="0 0 1024 1024" xmlns="http://www.w3.org/2000/svg" width="200" height="200"><defs><style/></defs><path d="M981.038 355.297a30.72 30.72 0 0 0-30.72 30.72V972.75a30.72 30.72 0 1 0 61.44 0V386.017a30.72 30.72 0 0 0-30.72-30.72z"/><path d="M981.038 355.297H427.796a30.72 30.72 0 1 0 0 61.44h553.237a30.72 30.72 0 0 0 .005-61.44zm-61.44-242.657H366.356a30.72 30.72 0 1 0 0 61.44h553.237a30.72 30.72 0 0 0 .005-61.44zM314.68 51.2H39.956a30.72 30.72 0 1 0 0 61.44h274.72a30.72 30.72 0 0 0 .004-61.44z"/><path d="M316.503 51.2a30.72 30.72 0 0 0-28.867 41.231l110.782 304.374a30.735 30.735 0 0 0 39.378 18.366 30.72 30.72 0 0 0 18.36-39.373L345.375 71.418A30.735 30.735 0 0 0 316.503 51.2zm-276.547 0a30.72 30.72 0 0 0-30.72 30.72v890.829a30.72 30.72 0 1 0 61.44 0V81.92a30.72 30.72 0 0 0-30.72-30.72zm879.642 61.44a30.72 30.72 0 0 0-30.72 30.72v230.246a30.72 30.72 0 1 0 61.44 0V143.36a30.72 30.72 0 0 0-30.72-30.72z"/><path d="M981.038 942.08H39.956a30.72 30.72 0 1 0 0 61.44h941.077a30.72 30.72 0 0 0 .005-61.44z"/></svg>