<svg class="icon" viewBox="0 0 1024 1024" xmlns="http://www.w3.org/2000/svg" width="200" height="200"><defs><style/></defs><path d="M259.072 303.104q30.72 0 52.736 22.016t22.016 53.76q0 30.72-22.016 52.736t-52.736 22.016q-31.744 0-53.248-22.016T184.32 378.88q0-31.744 21.504-53.76t53.248-22.016zm605.184-245.76q43.008 0 69.12 28.672t26.112 65.536v550.912q0 23.552-16.896 39.936t-40.448 16.384h-70.656V634.88h44.032q11.264 0 19.456-8.192t8.192-20.48q0-11.264-8.192-19.456t-19.456-8.192h-44.032v-79.872h44.032q11.264 0 19.456-8.192t8.192-19.456-8.192-19.968-19.456-8.704h-44.032v-72.704h44.032q11.264 0 19.456-8.192t8.192-20.48q0-11.264-8.192-19.456t-19.456-8.192h-44.032v-86.016q0-57.344-26.624-80.896t-90.112-23.552h-394.24v-9.216q0-23.552 16.896-39.936t40.448-16.384h486.4zM692.224 184.32q39.936 0 57.856 23.04T768 267.264v565.248q0 23.552-19.456 43.52T700.416 896H128q-24.576 0-44.032-20.48t-19.456-48.128V251.904q0-29.696 16.384-48.64t43.008-18.944h568.32zm11.264 107.52q0-17.408-10.752-30.208t-34.304-12.8H169.984q-4.096 0-11.264 1.536t-14.336 5.12-12.288 9.728-5.12 15.36v274.432q8.192 9.216 23.04 22.016t34.816 23.552 44.544 18.432 53.248 7.68q43.008 0 75.264-13.824t59.904-34.816 54.272-45.056 58.88-45.568 73.728-36.352 98.816-16.896V291.84z"/></svg>