<svg class="icon" viewBox="0 0 1024 1024" xmlns="http://www.w3.org/2000/svg" width="200" height="200"><defs><style/></defs><path d="M882.324 257.183a24.115 24.115 0 0 0-24.115 24.115v600.786a24.115 24.115 0 0 0 48.23 0V281.298a24.115 24.115 0 0 0-24.115-24.115z"/><path d="M875.679 257.183H408.12a30.761 30.761 0 0 0 0 61.522h467.564a30.761 30.761 0 1 0-.005-61.522zM359.27 158.72H143.631a24.115 24.115 0 0 0 0 48.23h215.64a24.115 24.115 0 0 0 0-48.23z"/><path d="M360.704 158.72a24.115 24.115 0 0 0-22.656 32.364l40.044 110.018a24.115 24.115 0 0 0 30.904 14.413 24.115 24.115 0 0 0 14.413-30.904l-40.044-110.019a24.115 24.115 0 0 0-22.661-15.872zm-217.073 0a24.115 24.115 0 0 0-24.115 24.115v699.249a24.115 24.115 0 0 0 48.23 0V182.835a24.12 24.12 0 0 0-24.115-24.115z"/><path d="M882.324 858.015H143.631a24.115 24.115 0 0 0 0 48.23H882.33a24.115 24.115 0 1 0-.006-48.23zM560.374 636.984c35.45 0 69.494-.117 103.531.041 21.822.103 32.625 8.848 33.168 26.22.558 17.95-11.034 28.84-33.055 29.179-34.043.522-68.101.138-104.822.138 0 17.234.21 33.055-.051 48.87-.348 21.279-9.78 32.953-26.527 33.46-17.915.542-28.759-11.556-29.163-33.101-.287-15.335-.057-30.68-.057-49.203-28.774 0-56.57.025-84.372-.016-8.704-.01-17.531.707-26.081-.491-16.282-2.279-28.022-10.496-27.188-28.708.825-18.023 12.55-25.969 29.415-26.235 28.79-.456 57.595-.149 86.39-.159h20.72v-42.173c-28.016 0-55.808.02-83.604-.01-9.375-.01-18.806.48-28.109-.359-15.555-1.403-24.602-10.306-24.858-26.117-.266-16.568 8.361-27.09 25.093-27.889 22.052-1.05 44.186-.44 66.279-.62 3.062-.025 6.118-.48 14.464-1.177-23.926-23.572-44.964-43.73-65.321-64.548-14.239-14.56-13.747-33.27.778-43.54 14.556-10.291 27.55-6.318 39.327 5.745 27.505 28.175 55.183 56.181 85.463 86.978 28.503-29.348 54.835-56.765 81.52-83.84 17.22-17.47 32.205-19.338 45.103-6.472 12.943 12.918 11.018 28.166-6.027 45.24-19.2 19.231-38.579 38.283-62.182 61.671 28.416 0 50.816-.261 73.206.072 21.673.322 33.003 9.477 33.613 26.28.634 17.532-11.085 28.074-33.51 28.401-33.993.502-68 .128-103.133.128-.01 14.531-.01 26.978-.01 42.235z"/></svg>