<?xml version="1.0" standalone="no"?><!DOCTYPE svg PUBLIC "-//W3C//DTD SVG 1.1//EN" "http://www.w3.org/Graphics/SVG/1.1/DTD/svg11.dtd"><svg t="1608282563320" class="icon" viewBox="0 0 1024 1024" version="1.1" xmlns="http://www.w3.org/2000/svg" p-id="2596" xmlns:xlink="http://www.w3.org/1999/xlink" width="200" height="200"><defs><style type="text/css"></style></defs><path d="M882.32448 257.18272a24.1152 24.1152 0 0 0-24.1152 24.1152v600.78592a24.1152 24.1152 0 0 0 48.2304 0V281.29792a24.1152 24.1152 0 0 0-24.1152-24.1152z" p-id="2597"></path><path d="M875.67872 257.18272h-467.5584a30.76096 30.76096 0 0 0 0 61.52192h467.56352a30.76096 30.76096 0 1 0-0.00512-61.52192zM359.2704 158.72H143.63136a24.1152 24.1152 0 0 0 0 48.2304H359.2704a24.1152 24.1152 0 0 0 0-48.2304z" p-id="2598"></path><path d="M360.704 158.72a24.1152 24.1152 0 0 0-22.656 32.36352l40.04352 110.01856a24.1152 24.1152 0 0 0 30.90432 14.4128 24.1152 24.1152 0 0 0 14.4128-30.90432L383.36512 174.592A24.1152 24.1152 0 0 0 360.704 158.72zM143.63136 158.72a24.1152 24.1152 0 0 0-24.1152 24.1152v699.24864a24.1152 24.1152 0 0 0 48.2304 0V182.8352a24.12032 24.12032 0 0 0-24.1152-24.1152z" p-id="2599"></path><path d="M882.32448 858.01472H143.63136a24.1152 24.1152 0 0 0 0 48.2304H882.3296a24.1152 24.1152 0 1 0-0.00512-48.2304z" p-id="2600"></path><path d="M560.37376 636.98432c35.45088 0 69.49376-0.11776 103.53152 0.04096 21.82144 0.1024 32.62464 8.84736 33.16736 26.21952 0.55808 17.95072-11.0336 28.84096-33.05472 29.17888-34.04288 0.52224-68.10112 0.13824-104.82176 0.13824 0 17.23392 0.20992 33.05472-0.0512 48.8704-0.34816 21.27872-9.7792 32.95232-26.52672 33.4592-17.91488 0.54272-28.75904-11.55584-29.16352-33.1008-0.28672-15.3344-0.05632-30.67904-0.05632-49.2032-28.7744 0-56.57088 0.0256-84.37248-0.01536-8.704-0.01024-17.53088 0.70656-26.08128-0.49152-16.2816-2.2784-28.02176-10.496-27.1872-28.70784 0.82432-18.0224 12.54912-25.96864 29.4144-26.23488 28.78976-0.45568 57.59488-0.14848 86.38976-0.15872h20.72064v-42.17344c-28.01664 0-55.808 0.02048-83.60448-0.01024-9.37472-0.01024-18.80576 0.48128-28.1088-0.3584-15.55456-1.40288-24.6016-10.30656-24.8576-26.11712-0.26624-16.56832 8.36096-27.08992 25.09312-27.88864 22.05184-1.0496 44.1856-0.44032 66.2784-0.61952 3.06176-0.0256 6.1184-0.48128 14.464-1.1776-23.92576-23.57248-44.96384-43.72992-65.32096-64.54784-14.23872-14.56128-13.7472-33.26976 0.77824-43.54048 14.55616-10.2912 27.55072-6.31808 39.32672 5.74464 27.50464 28.17536 55.18336 56.18176 85.46304 86.97856 28.50304-29.34784 54.8352-56.76544 81.52064-83.84 17.21856-17.46944 32.2048-19.33824 45.10208-6.47168 12.94336 12.91776 11.01824 28.16512-6.02624 45.24032-19.2 19.23072-38.5792 38.28224-62.1824 61.6704 28.416 0 50.816-0.26112 73.20576 0.07168 21.67296 0.32256 33.00352 9.47712 33.6128 26.28096 0.63488 17.53088-11.0848 28.07296-33.5104 28.40064-33.99168 0.50176-67.99872 0.128-103.13216 0.128-0.01024 14.53056-0.01024 26.97728-0.01024 42.23488z" p-id="2601"></path></svg>