<svg class="icon" viewBox="0 0 1052 1024" xmlns="http://www.w3.org/2000/svg" width="205.469" height="200"><defs><style/></defs><path d="M77.184 77.184H858.23v474.943h77.184V60.08A60.08 60.08 0 0 0 877.088 0H60.08A60.08 60.08 0 0 0 0 60.08v900.77a60.08 60.08 0 0 0 60.08 60.08h353.028v-77.184H77.184z"/><path d="M210.063 257.425h514.85v81.57h-514.85zm0 216.641H626.24v81.57H210.063zm0 212.694H433.28v81.569H210.063zm831.479 119.284q-126.3-155.245-278.476-155.245T482.398 806.044a49.555 49.555 0 0 0 0 62.711Q608.698 1024 760.874 1024t278.475-155.245a49.555 49.555 0 0 0 2.193-62.711zM763.066 963.48c-78.938 0-152.174-40.785-221.464-126.3 69.29-85.517 142.965-126.301 221.464-126.301s152.175 40.784 221.465 126.3c-69.728 85.516-142.965 126.3-221.465 126.3z"/><path d="M763.066 741.14a96.48 96.48 0 1 0 96.48 96.479 96.48 96.48 0 0 0-96.48-96.48zm0 123.23a27.19 27.19 0 1 1 27.19-27.19 27.19 27.19 0 0 1-27.19 25.436z"/></svg>