<svg class="icon" viewBox="0 0 1024 1024" xmlns="http://www.w3.org/2000/svg" width="200" height="200"><defs><style/></defs><path d="M0 686.081a332.799 332.799 0 1 0 665.598 0 332.799 332.799 0 1 0-665.598 0z"/><path d="M883.197 1024H243.2a141.056 141.056 0 0 1-140.8-140.8V140.803A141.056 141.056 0 0 1 243.2.003h516.35a89.088 89.088 0 0 1 63.233 25.6l189.695 189.695a38.4 38.4 0 0 1 11.52 27.904V883.2a141.056 141.056 0 0 1-140.8 140.8zM243.2 76.803a64 64 0 0 0-64 64V883.2a64 64 0 0 0 64 64h639.998a64 64 0 0 0 64-64V259.074l-179.2-179.2a12.8 12.8 0 0 0-8.447-3.071z"/><path d="M285.951 399.106h69.888c46.336 0 79.872 14.848 79.872 55.552a51.2 51.2 0 0 1-32.256 48.896v1.536a51.2 51.2 0 0 1 44.544 53.76c0 44.8-36.608 66.303-86.528 66.303h-76.8zM352 493.314c34.304 0 48.896-12.8 48.896-34.048s-15.872-32.512-47.872-32.512h-31.488v66.56zm6.4 103.68c35.328 0 55.552-12.545 55.552-40.193s-19.712-36.607-55.552-36.607h-35.84v76.8zm236.8-36.353h-78.593l-19.455 64.512h-36.352l75.007-226.047h41.216l75.008 226.047h-37.632zm-8.705-27.904l-8.96-30.463c-7.68-25.6-14.336-49.664-21.504-75.264-6.4 25.6-13.568 51.2-20.992 75.264l-9.216 30.463zm95.488-133.631h34.816v106.752l86.016-106.752h41.983l-70.655 87.296 81.663 138.751h-39.68l-63.743-110.591-35.584 42.24v68.095h-34.816z"/></svg>