<svg class="icon" viewBox="0 0 1024 1024" xmlns="http://www.w3.org/2000/svg" width="200" height="200"><defs><style/></defs><path d="M910.222 216.178c6.258 0 11.378-5.12 11.378-11.378v-34.133c0-6.258-5.12-11.378-11.378-11.378H546.133v-20.821c0-18.546-13.88-35.044-32.313-36.068-19.683-1.024-35.953 14.677-35.953 34.133v22.756h-364.09c-6.257 0-11.377 5.12-11.377 11.378V204.8c0 6.258 5.12 11.378 11.378 11.378h22.755V659.91h-22.755c-6.258 0-11.378 5.12-11.378 11.378v34.133c0 6.258 5.12 11.378 11.378 11.378H356.01l-84.196 135.054c-9.785 15.702-6.713 36.864 8.306 47.446 6.03 4.323 12.857 6.257 19.683 6.257 11.378 0 22.528-5.689 29.014-16.042L436.452 716.8h162.474L706.56 889.515c6.485 10.353 17.636 16.042 29.013 16.042 6.827 0 13.654-1.934 19.684-6.257 15.019-10.582 18.09-31.744 8.306-47.446L679.367 716.8h230.855c6.258 0 11.378-5.12 11.378-11.378V671.29c0-6.258-5.12-11.378-11.378-11.378h-22.755V216.178h22.755zM477.867 580.267h-261.69V295.822h261.69v284.445zm329.955-22.756h-250.31v-34.133h250.31v34.133zm0-102.4h-250.31v-34.133h250.31v34.133zm0-102.4h-250.31v-34.133h250.31v34.133z"/></svg>