<svg class="icon" viewBox="0 0 1024 1024" xmlns="http://www.w3.org/2000/svg" width="200" height="200"><defs><style/></defs><path d="M344.503 655.36a18.651 18.651 0 0 1-13.166-5.486L170.057 488.23a17.189 17.189 0 0 1-5.486-12.8V146.286A18.286 18.286 0 0 1 182.857 128H512a17.189 17.189 0 0 1 12.8 5.486L704 312.32a18.651 18.651 0 0 1 5.486 13.531 19.383 19.383 0 0 1-6.217 13.166L356.57 650.606a20.114 20.114 0 0 1-12.068 4.754zm-143.36-187.611L344.869 611.84l319.634-287.086L504.32 164.571H201.143zm201.143-10.606a91.429 91.429 0 1 1 91.428-91.429 91.429 91.429 0 0 1-91.428 91.429zm0-146.286a54.857 54.857 0 1 0 54.857 54.857 54.857 54.857 0 0 0-54.857-54.857z"/><path d="M603.429 950.857a17.189 17.189 0 0 1-12.8-5.486L365.714 721.554a17.92 17.92 0 0 1 0-24.868l311.223-347.063a19.017 19.017 0 0 1 13.166-5.852 20.114 20.114 0 0 1 13.531 5.12L945.006 590.63a17.554 17.554 0 0 1 0 25.6L615.863 945.37a17.189 17.189 0 0 1-12.434 5.486zM404.846 708.023l198.583 198.583 303.177-303.177-214.675-215.04z"/><path d="M250.88 870.034a18.286 18.286 0 0 1-12.8-5.12l-68.023-68.388a17.92 17.92 0 0 1-5.486-13.166 16.823 16.823 0 0 1 6.218-13.166l670.354-600.868a18.286 18.286 0 0 1 25.234 0 18.651 18.651 0 0 1 0 24.868l-601.6 669.989a19.017 19.017 0 0 1-13.166 5.851zm-41.326-85.577l40.595 40.96 360.594-402.286z"/></svg>