<svg class="icon" viewBox="0 0 1044 1024" xmlns="http://www.w3.org/2000/svg" width="203.906" height="200"><defs><style/></defs><path d="M986.591 0H57.422A57.42 57.42 0 0 0 .002 57.856v704.271a57.856 57.856 0 0 0 57.42 57.421h929.17a57.856 57.856 0 0 0 57.42-57.42V57.855A57.856 57.856 0 0 0 986.592 0zm-16.53 746.032H73.952V74.821h896.11zM357.575 936.564h317.553q21.75 0 21.75 21.75v43.936q0 21.75-21.75 21.75H357.575q-21.75 0-21.75-21.75v-43.936q0-21.75 21.75-21.75z"/><path d="M447.621 390.199l127.021 140.506 11.745 16.095L819.55 377.584l-48.286-66.556-171.826 124.411L453.71 274.488l-56.985 51.33-195.317 157.907 51.765 63.945L447.621 390.2z"/></svg>