<svg class="icon" viewBox="0 0 1024 1024" xmlns="http://www.w3.org/2000/svg" width="200" height="200"><defs><style/></defs><path d="M642.845 102.559H158.336v819.207h125.498l72.178-75.393 74.345 75.393 78.356-75.393 68.168 75.393 85.29-75.393 80.92 75.393H863.28V366.561L642.845 102.559zm96.165 227.913h-97.755V213.39l97.755 117.08zm32.548 519.08l-60.112-55.994-47.974-44.686-49.13 43.422-31.754 28.07-20.266-22.398-49.96-55.272-53.719 51.66-26.949 25.937-24.24-24.601-52.2-52.923-51.443 53.645-50.827 53.104h-22.398V174.81h338.42v227.913h222.06v446.83h-19.508z"/><path d="M324.656 484.653h372.34v72.25h-372.34zm0 131.243h372.34v72.25h-372.34z"/></svg>