<?xml version="1.0" standalone="no"?><!DOCTYPE svg PUBLIC "-//W3C//DTD SVG 1.1//EN" "http://www.w3.org/Graphics/SVG/1.1/DTD/svg11.dtd"><svg t="1608282842542" class="icon" viewBox="0 0 1024 1024" version="1.1" xmlns="http://www.w3.org/2000/svg" p-id="957" xmlns:xlink="http://www.w3.org/1999/xlink" width="200" height="200"><defs><style type="text/css"></style></defs><path d="M642.844846 102.55895H158.335991v819.207225h125.498342l72.177803-75.39293 74.345304 75.39293 78.355183-75.39293 68.167925 75.39293 85.291187-75.39293 80.920059 75.39293h120.187963V366.560643l-220.434911-264.001693z m96.16482 227.912792h-97.754321V213.390531l97.754321 117.081211z m32.548649 519.080505l-60.112044-55.993791-47.974035-44.686658-49.130036 43.422282-31.753898 28.069146-20.26614-22.397517-49.960912-55.27129-53.717914 51.658788-26.94927 25.937769-24.239893-24.601143-52.200663-52.923164-51.442037 53.645664-50.827913 53.103789h-22.397516V174.809003h338.419248v227.912792h222.060537v446.830452h-19.507514z" p-id="958"></path><path d="M324.655613 484.653355h372.340647v72.250053H324.655613zM324.655613 615.895576h372.340647v72.250053H324.655613z" p-id="959"></path></svg>