<svg class="icon" viewBox="0 0 1024 1024" xmlns="http://www.w3.org/2000/svg" width="200" height="200"><defs><style/></defs><path d="M957.2 445.4c-3.6-16-13.6-30.8-25-37-3.6-2-26-4.4-50-5.4-40.2-1.8-44.6-2.6-57.4-10-20.2-11.8-25.6-24.6-25.8-59-.2-66-27.6-127.4-81.8-182.6-38.6-39.4-81.8-66-131-81-11.8-3.6-38.2-4.8-126.6-5.8-138.8-1.6-169.6 1.2-216.8 20-87 34.4-149.4 107.6-172.2 201.2-4.2 17.6-5.2 45.8-6.2 207.8-1.2 203 .2 232.8 12.8 273C108.4 865.8 197 939.2 286 955.2c29.6 5.4 394.6 6.6 432 1.6 65-8.8 116-35 163.8-83.8 34.6-35.4 56.2-73.6 70.4-124.2 9.8-35.2 9-285.6 5-303.4zM313 318.2c15.6-15.8 20-16.4 117.6-16.4 87.8 0 90.8.2 103.6 6.8 18.6 9.4 26.8 22.6 26.8 43.8 0 19-7.6 32.4-24.6 43.2-9.2 5.8-14.6 6.2-100.6 6.6-53 .4-95.4-.8-101.6-2.4-33.2-9.4-45.6-57-21.2-81.6zm383.6 399.6l-29.8 4.8-155 1.8c-136.2 1.6-174.6-.8-181.8-4-14.2-6.2-27.6-23.4-29.8-38.8-2.2-14.6 5.2-34.6 16.4-44.8 14.2-12.8 20.4-13.2 194.6-13.4 179.2-.2 178.2-.2 195.2 15.6 24.2 22.6 19 62.4-9.8 78.8z"/></svg>