<svg class="icon" viewBox="0 0 1024 1024" xmlns="http://www.w3.org/2000/svg" width="200" height="200"><defs><style/></defs><path d="M697.37 259.507H265.564a24.914 24.914 0 1 0 0 49.828H697.37a24.914 24.914 0 1 0 0-49.828zm0 126.044H265.564a24.914 24.914 0 1 0 0 49.828H697.37a24.914 24.914 0 1 0 0-49.828zM396.35 637.814H265.732a24.914 24.914 0 1 0 0 49.828H396.35a24.914 24.914 0 1 0 0-49.828zm410.582 30.991c-6.374 0-12.748 2.12-17.612 6.36l-92.36 80.516c-9.728 8.484-9.728 22.231 0 30.715 4.864 4.24 11.238 6.36 17.613 6.36s12.749-2.12 17.613-6.36l92.36-80.517c9.727-8.479 9.727-22.231 0-30.715-4.865-4.24-11.24-6.359-17.614-6.359z"/><path d="M714.573 588.375c-6.375 0-12.749 2.12-17.613 6.36-9.728 8.483-9.728 22.23 0 30.714l92.36 80.517c4.864 4.24 11.238 6.36 17.612 6.36s12.75-2.12 17.613-6.36c9.728-8.479 9.728-22.231 0-30.715l-92.36-80.517c-4.858-4.24-11.238-6.359-17.612-6.359z"/><path d="M714.675 588.385a24.914 24.914 0 0 0-24.914 24.914v154.143a24.914 24.914 0 1 0 49.828 0V613.299a24.919 24.919 0 0 0-24.914-24.914zm-258.125-76.79H265.56a24.914 24.914 0 1 0 0 49.828H456.55a24.914 24.914 0 1 0 0-49.827z"/><path d="M731.689 544.937c79.309 0 143.831 64.522 143.831 143.831s-64.522 143.831-143.831 143.831-143.831-64.522-143.831-143.831c.005-79.309 64.522-143.831 143.831-143.831m0-61.44c-113.367 0-205.271 91.904-205.271 205.271s91.904 205.271 205.271 205.271S936.96 802.135 936.96 688.768s-91.904-205.271-205.271-205.271z"/><path d="M852.736 233.57v181.155a30.72 30.72 0 1 1-61.44 0v-181.32c0-46.817-37.95-84.766-84.767-84.766H254.24c-47.043 0-85.177 38.133-85.177 85.176v529.229c0 47.135 38.211 85.345 85.346 85.345h273.054a30.72 30.72 0 1 1 0 61.44H254.566c-81.157 0-146.944-65.787-146.944-146.944V234.03c0-81.09 65.736-146.826 146.827-146.826h451.916c80.84-.005 146.371 65.526 146.371 146.365z"/></svg>