<?xml version="1.0" standalone="no"?><!DOCTYPE svg PUBLIC "-//W3C//DTD SVG 1.1//EN" "http://www.w3.org/Graphics/SVG/1.1/DTD/svg11.dtd"><svg t="1608282566196" class="icon" viewBox="0 0 1024 1024" version="1.1" xmlns="http://www.w3.org/2000/svg" p-id="2732" xmlns:xlink="http://www.w3.org/1999/xlink" width="200" height="200"><defs><style type="text/css"></style></defs><path d="M697.3696 259.5072H265.56416a24.91392 24.91392 0 1 0 0 49.82784h431.80544a24.91392 24.91392 0 1 0 0-49.82784zM697.3696 385.55136H265.56416a24.91392 24.91392 0 1 0 0 49.82784h431.80544a24.91392 24.91392 0 1 0 0-49.82784zM396.34944 637.81376H265.73312a24.91392 24.91392 0 1 0 0 49.82784h130.61632a24.91392 24.91392 0 1 0 0-49.82784zM806.93248 668.80512c-6.3744 0-12.7488 2.11968-17.6128 6.35904l-92.35968 80.51712c-9.728 8.48384-9.728 22.23104 0 30.71488 4.864 4.23936 11.2384 6.35904 17.6128 6.35904s12.7488-2.11968 17.6128-6.35904l92.35968-80.51712c9.728-8.47872 9.728-22.23104 0-30.71488-4.864-4.23936-11.2384-6.35904-17.6128-6.35904z" p-id="2733"></path><path d="M714.5728 588.37504c-6.3744 0-12.7488 2.11968-17.6128 6.35904-9.728 8.48384-9.728 22.23104 0 30.71488l92.35968 80.51712c4.864 4.23936 11.2384 6.35904 17.6128 6.35904s12.7488-2.11968 17.6128-6.35904c9.728-8.47872 9.728-22.23104 0-30.71488l-92.35968-80.51712c-4.85888-4.23936-11.2384-6.35904-17.6128-6.35904z" p-id="2734"></path><path d="M714.6752 588.38528a24.91392 24.91392 0 0 0-24.91392 24.91392v154.14272a24.91392 24.91392 0 1 0 49.82784 0v-154.14272a24.91904 24.91904 0 0 0-24.91392-24.91392zM456.5504 511.59552H265.55904a24.91392 24.91392 0 1 0 0 49.82784H456.5504a24.91392 24.91392 0 1 0 0-49.82784z" p-id="2735"></path><path d="M731.68896 544.93696c79.3088 0 143.83104 64.52224 143.83104 143.83104s-64.52224 143.83104-143.83104 143.83104-143.83104-64.52224-143.83104-143.83104c0.00512-79.3088 64.52224-143.83104 143.83104-143.83104m0-61.44c-113.36704 0-205.27104 91.904-205.27104 205.27104s91.904 205.27104 205.27104 205.27104S936.96 802.13504 936.96 688.768s-91.904-205.27104-205.27104-205.27104z" p-id="2736"></path><path d="M852.736 233.56928v181.15584a30.72 30.72 0 1 1-61.44 0V233.40544c0-46.81728-37.94944-84.76672-84.76672-84.76672H254.23872c-47.04256 0-85.17632 38.13376-85.17632 85.17632v529.2288c0 47.13472 38.21056 85.34528 85.34528 85.34528h273.05472a30.72 30.72 0 1 1 0 61.44h-272.896c-81.15712 0-146.944-65.78688-146.944-146.944V234.03008c0-81.09056 65.73568-146.82624 146.82624-146.82624h451.9168c80.83968-0.00512 146.37056 65.52576 146.37056 146.36544z" p-id="2737"></path></svg>