<svg class="icon" viewBox="0 0 1024 1024" xmlns="http://www.w3.org/2000/svg" width="200" height="200"><defs><style/></defs><path d="M544 64a224 224 0 0 1 221.76 192h96.384A97.92 97.92 0 0 1 960 353.856v508.288A97.92 97.92 0 0 1 862.08 960H161.92A97.92 97.92 0 0 1 64 862.144V353.856A97.92 97.92 0 0 1 161.92 256h96.32A224 224 0 0 1 480 64zm352 452.8l9.408-5.248c-31.104 17.92-65.28 35.84-101.376 52.48-55.872 25.856-110.976 46.4-164.096 59.904L640 672a96 96 0 0 1-96 96h-64a96 96 0 0 1-96-96v-48.064c-53.056-13.44-108.16-34.048-164.032-59.84a1298.816 1298.816 0 0 1-92.096-47.232L128 862.08a33.92 33.92 0 0 0 33.92 33.856h700.16A33.92 33.92 0 0 0 896 862.08V516.8zM576 640l-29.568.064a422.4 422.4 0 0 1-68.864 0L448 640v32a32 32 0 0 0 26.24 31.488L480 704h64a32 32 0 0 0 32-32v-32zm286.08-320H161.92A33.92 33.92 0 0 0 128 353.856v88.832l6.528 4.032 16 9.344a1236.408 1236.408 0 0 0 96.32 49.92c64.448 29.824 127.552 51.968 185.984 63.36 16.64 3.2 32.704 5.44 48.192 6.784h61.952c15.488-1.28 31.552-3.648 48.192-6.848 58.432-11.328 121.536-33.472 185.984-63.296a1236.672 1236.672 0 0 0 96.384-49.92l22.4-13.312v-88.896a33.92 33.92 0 0 0-27.712-33.28L862.08 320zM544 128h-64a160 160 0 0 0-154.752 119.04L323.2 256h377.664l-2.048-8.96A160.064 160.064 0 0 0 554.56 128.32L544 128z"/></svg>