<?xml version="1.0" standalone="no"?><!DOCTYPE svg PUBLIC "-//W3C//DTD SVG 1.1//EN" "http://www.w3.org/Graphics/SVG/1.1/DTD/svg11.dtd"><svg t="1608283196581" class="icon" viewBox="0 0 1024 1024" version="1.1" xmlns="http://www.w3.org/2000/svg" p-id="2016" xmlns:xlink="http://www.w3.org/1999/xlink" width="200" height="200"><defs><style type="text/css"></style></defs><path d="M562.432 960a32 32 0 0 1-5.76-63.488l5.76-0.512 173.696-0.064V512a32 32 0 0 1 63.552-5.76l0.512 5.76-0.064 383.936H896v-288a480.064 480.064 0 0 0-433.792-477.76L448 129.024V960H64V480A160 160 0 0 1 224 320H384V64h32a544 544 0 0 1 543.744 527.68L960 608V960H562.432zM384 384H224A96 96 0 0 0 128 480V896h256V384z m167.808-90.752a32 32 0 0 1 31.488 26.24l0.512 5.76V640a32 32 0 0 1-63.488 5.76L519.808 640V325.248a32 32 0 0 1 32-32z m-226.944 218.24a32 32 0 0 1 5.76 63.424l-5.76 0.512H197.12A32 32 0 0 1 191.36 512l5.76-0.512h127.744z" p-id="2017"></path></svg>