<svg class="icon" viewBox="0 0 1024 1024" xmlns="http://www.w3.org/2000/svg" width="200" height="200"><defs><style/></defs><path d="M562.432 960a32 32 0 0 1-5.76-63.488l5.76-.512 173.696-.064V512a32 32 0 0 1 63.552-5.76l.512 5.76-.064 383.936H896v-288a480.064 480.064 0 0 0-433.792-477.76L448 129.024V960H64V480a160 160 0 0 1 160-160h160V64h32a544 544 0 0 1 543.744 527.68L960 608v352H562.432zM384 384H224a96 96 0 0 0-96 96v416h256V384zm167.808-90.752a32 32 0 0 1 31.488 26.24l.512 5.76V640a32 32 0 0 1-63.488 5.76l-.512-5.76V325.248a32 32 0 0 1 32-32zm-226.944 218.24a32 32 0 0 1 5.76 63.424l-5.76.512H197.12A32 32 0 0 1 191.36 512l5.76-.512h127.744z"/></svg>