<svg class="icon" viewBox="0 0 1024 1024" xmlns="http://www.w3.org/2000/svg" width="200" height="200"><defs><style/></defs><path d="M864 320a96 96 0 0 1 95.552 86.784L960 416v448a96 96 0 0 1-86.784 95.552L864 960H416a96 96 0 0 1-95.552-86.784L320 864V608a32 32 0 0 1 63.488-5.76L384 608v256a32 32 0 0 0 26.24 31.488L416 896h448a32 32 0 0 0 31.488-26.24L896 864V416a32 32 0 0 0-26.24-31.488L864 384H756.48a32 32 0 0 1-5.76-63.488l5.76-.512H864zm-313.216-64a32 32 0 0 1 5.76 63.488l-5.76.512h-391.04a31.808 31.808 0 0 0-31.232 26.112l-.512 5.696V736a32 32 0 0 0 26.24 31.488L160 768h92.8a32 32 0 0 1 5.76 63.488l-5.76.512H160a96 96 0 0 1-95.552-86.784L64 736V351.808c0-49.792 38.016-90.752 86.592-95.36l9.216-.448h390.976zM800 512a32 32 0 0 1 31.488 26.24L832 544v256a32 32 0 0 1-26.24 31.488L800 832H544a32 32 0 0 1-31.488-26.24L512 800v-64a32 32 0 0 1 63.488-5.76L576 736v32h192V544a32 32 0 0 1 26.24-31.488L800 512zM608 64a96 96 0 0 1 95.552 86.72L704 160v448a32 32 0 0 1-26.24 31.488L672 640H486.912a32 32 0 0 1-5.76-63.488l5.76-.512L640 575.936v-416a32 32 0 0 0-26.24-31.424L608 128H384a32 32 0 0 0-31.488 26.24L352 160v30.976a32 32 0 0 1-63.488 5.76l-.512-5.76V160a96 96 0 0 1 86.784-95.552L384 64h224zm-64 352a32 32 0 0 1 5.76 63.488L544 480H256v96a32 32 0 0 1-26.24 31.488L224 608a32 32 0 0 1-31.488-26.24L192 576V448a32 32 0 0 1 26.24-31.488L224 416h320z"/></svg>