<?xml version="1.0" standalone="no"?><!DOCTYPE svg PUBLIC "-//W3C//DTD SVG 1.1//EN" "http://www.w3.org/Graphics/SVG/1.1/DTD/svg11.dtd"><svg t="1608283189113" class="icon" viewBox="0 0 1024 1024" version="1.1" xmlns="http://www.w3.org/2000/svg" p-id="1740" xmlns:xlink="http://www.w3.org/1999/xlink" width="200" height="200"><defs><style type="text/css"></style></defs><path d="M864 320a96 96 0 0 1 95.552 86.784L960 416v448a96 96 0 0 1-86.784 95.552L864 960h-448a96 96 0 0 1-95.552-86.784L320 864v-256a32 32 0 0 1 63.488-5.76L384 608v256a32 32 0 0 0 26.24 31.488L416 896h448a32 32 0 0 0 31.488-26.24L896 864v-448a32 32 0 0 0-26.24-31.488L864 384h-107.52a32 32 0 0 1-5.76-63.488L756.48 320h107.52zM550.784 256a32 32 0 0 1 5.76 63.488L550.784 320h-391.04a31.808 31.808 0 0 0-31.232 26.112L128 351.808V736a32 32 0 0 0 26.24 31.488L160 768h92.8a32 32 0 0 1 5.76 63.488L252.8 832H160a96 96 0 0 1-95.552-86.784L64 736V351.808c0-49.792 38.016-90.752 86.592-95.36L159.808 256h390.976zM800 512a32 32 0 0 1 31.488 26.24L832 544v256a32 32 0 0 1-26.24 31.488L800 832h-256a32 32 0 0 1-31.488-26.24L512 800v-64a32 32 0 0 1 63.488-5.76L576 736v32h192V544a32 32 0 0 1 26.24-31.488L800 512z m-192-448a96 96 0 0 1 95.552 86.72L704 160v448a32 32 0 0 1-26.24 31.488L672 640H486.912a32 32 0 0 1-5.76-63.488L486.912 576 640 575.936v-416a32 32 0 0 0-26.24-31.424L608 128H384a32 32 0 0 0-31.488 26.24L352 160v30.976a32 32 0 0 1-63.488 5.76l-0.512-5.76V160a96 96 0 0 1 86.784-95.552L384 64h224z m-64 352a32 32 0 0 1 5.76 63.488L544 480H256V576a32 32 0 0 1-26.24 31.488L224 608a32 32 0 0 1-31.488-26.24L192 576V448a32 32 0 0 1 26.24-31.488L224 416h320z" p-id="1741"></path></svg>