<svg class="icon" viewBox="0 0 1024 1024" xmlns="http://www.w3.org/2000/svg" width="200" height="200"><defs><style/></defs><path d="M512 0C229.683 0 0 229.683 0 512s229.683 512 512 512 512-229.683 512-512S794.317 0 512 0zm0 954.575C267.964 954.575 69.425 756.036 69.425 512S267.964 69.425 512 69.425 954.575 267.964 954.575 512 756.036 954.575 512 954.575z"/><path d="M512 136.368c-207.124 0-375.632 168.508-375.632 375.632S304.876 887.632 512 887.632c207.12 0 375.632-168.508 375.632-375.632S719.12 136.368 512 136.368zm0 681.839c-168.843 0-306.207-137.364-306.207-306.207S343.157 205.793 512 205.793 818.207 343.157 818.207 512 680.843 818.207 512 818.207z"/><path d="M398.36 295.464c-56.734 0-102.893 46.159-102.893 102.896 0 56.74 46.16 102.9 102.893 102.9s102.897-46.16 102.897-102.9c-.004-56.737-46.163-102.896-102.897-102.896zm0 136.37c-18.456 0-33.471-15.014-33.471-33.474 0-18.456 15.015-33.471 33.471-33.471 18.46 0 33.471 15.012 33.471 33.471 0 18.456-15.015 33.475-33.47 33.475zm227.28 69.423c56.737 0 102.896-46.16 102.896-102.9 0-56.737-46.159-102.897-102.896-102.897s-102.897 46.16-102.897 102.897c0 56.74 46.16 102.9 102.897 102.9zm0-136.368c18.46 0 33.471 15.012 33.471 33.471s-15.015 33.475-33.471 33.475-33.475-15.015-33.475-33.475 15.019-33.471 33.475-33.471zM398.36 522.743c-56.734 0-102.893 46.16-102.893 102.9 0 56.737 46.16 102.897 102.893 102.897s102.897-46.16 102.897-102.897c-.004-56.74-46.163-102.9-102.897-102.9zm0 136.368c-18.456 0-33.471-15.012-33.471-33.471s15.015-33.475 33.471-33.475c18.46 0 33.471 15.015 33.471 33.475s-15.015 33.471-33.47 33.471zm227.28-136.368c-56.737 0-102.897 46.16-102.897 102.9 0 56.737 46.16 102.897 102.897 102.897 56.737 0 102.896-46.16 102.896-102.897 0-56.74-46.159-102.9-102.896-102.9zm0 136.368c-18.456 0-33.475-15.012-33.475-33.471s15.019-33.475 33.475-33.475c18.46 0 33.471 15.015 33.471 33.475S644.1 659.11 625.64 659.11z"/></svg>