<svg class="icon" viewBox="0 0 1024 1024" xmlns="http://www.w3.org/2000/svg" width="200" height="200"><defs><style/></defs><path d="M511.198 637.078c-17.17 0-31.082 13.912-31.082 31.082v124.302c0 17.157 13.925 31.082 31.082 31.082s31.07-13.925 31.07-31.082V668.16c0-17.17-13.912-31.082-31.07-31.082zm0 0"/><path d="M759.816 513.332V264.145c0-137.322-111.296-248.63-248.618-248.63-137.309 0-248.63 111.308-248.63 248.63v249.187c-38.865 51.872-62.164 116.092-62.164 185.897 0 171.65 139.145 310.794 310.794 310.794S821.993 870.878 821.993 699.23c0-69.805-23.312-134.025-62.177-185.897zM324.719 264.145c0-102.994 83.498-186.479 186.48-186.479 102.981 0 186.466 83.485 186.466 186.48v186.88c-51.976-39.112-116.403-62.578-186.467-62.578S376.708 411.9 324.72 451.025v-186.88zM511.2 947.872c-137.31 0-248.63-111.32-248.63-248.643 0-137.309 111.307-248.617 248.63-248.617 132.628 0 248.617 115.988 248.617 248.617 0 137.322-111.296 248.643-248.618 248.643zm0 0"/></svg>