<?xml version="1.0" standalone="no"?><!DOCTYPE svg PUBLIC "-//W3C//DTD SVG 1.1//EN" "http://www.w3.org/Graphics/SVG/1.1/DTD/svg11.dtd"><svg t="1608282945112" class="icon" viewBox="0 0 1074 1024" version="1.1" xmlns="http://www.w3.org/2000/svg" p-id="3878" xmlns:xlink="http://www.w3.org/1999/xlink" width="209.765625" height="200"><defs><style type="text/css"></style></defs><path d="M1061.366928 424.523241L824.525893 655.291429l55.523173 325.331092a35.569533 35.569533 0 0 1-52.052975 37.304632L535.631883 867.841076l-291.496658 150.953627a35.569533 35.569533 0 0 1-52.052975-37.304632l55.523173-325.331093L10.764388 424.523241a35.569533 35.569533 0 0 1 19.95364-60.728471l327.066191-47.715227L504.400098 20.245137a35.569533 35.569533 0 0 1 64.198669 0l145.748329 295.834406 327.066192 47.715227a35.569533 35.569533 0 0 1 19.95364 60.728471z m0 0" p-id="3879"></path></svg>