<svg class="icon" viewBox="0 0 1024 1024" xmlns="http://www.w3.org/2000/svg" width="200" height="200"><defs><style/></defs><path d="M504 912a408 408 0 1 1 408-408 408.48 408.48 0 0 1-408 408zm0-768a360 360 0 1 0 360 360 360.32 360.32 0 0 0-360-360z"/><path d="M344 704a24 24 0 0 1-22.88-32l80-256a23.36 23.36 0 0 1 16-16l256-80a24 24 0 0 1 24.16 5.92 23.68 23.68 0 0 1 5.6 26.08l-80 256a23.36 23.36 0 0 1-16 16l-256 80a22.56 22.56 0 0 1-6.88 0zm99.2-260.8l-62.56 200.16L580.8 580.8l62.56-200.16z"/><path d="M520 528a21.76 21.76 0 0 1-4.64 0 20.96 20.96 0 0 1-4.48-1.44 20.16 20.16 0 0 1-4.16-2.08 23.2 23.2 0 0 1-3.68-3.04A24 24 0 0 1 496 504a21.76 21.76 0 0 1 0-4.64 36.64 36.64 0 0 1 1.28-4.48 34.4 34.4 0 0 1 2.24-4.16 33.76 33.76 0 0 1 3.04-3.68 23.2 23.2 0 0 1 3.68-3.04 20.16 20.16 0 0 1 4.16-2.08 20.96 20.96 0 0 1 4.48-1.44 24 24 0 1 1 4.64 48z"/></svg>