<svg class="icon" viewBox="0 0 1024 1024" xmlns="http://www.w3.org/2000/svg" width="200" height="200"><defs><style/></defs><path d="M1024 592.448V431.52l-159.136-15.904a364.513 364.513 0 0 0-35.2-84.992l104.608-127.84L821.216 89.728l-127.84 104.608a361.783 361.783 0 0 0-84.992-35.2L592.48 0H431.552l-15.904 159.136a364.513 364.513 0 0 0-84.992 35.2L202.816 89.728 89.76 202.784l104.608 127.84a361.783 361.783 0 0 0-35.2 84.992L.032 431.52v160.928l159.136 15.904a364.513 364.513 0 0 0 35.2 84.992L89.76 821.184 202.816 934.24l127.84-104.608a361.783 361.783 0 0 0 84.992 35.2l15.904 159.136H592.48l15.904-159.136a364.513 364.513 0 0 0 84.992-35.2l127.84 104.608 113.056-113.056-104.608-127.84a361.783 361.783 0 0 0 35.2-84.992L1024 592.448zM704 576L576 704H448L320 576V448l128-128h128l128 128v128z"/></svg>