<?xml version="1.0" standalone="no"?><!DOCTYPE svg PUBLIC "-//W3C//DTD SVG 1.1//EN" "http://www.w3.org/Graphics/SVG/1.1/DTD/svg11.dtd"><svg t="1608282850860" class="icon" viewBox="0 0 1024 1024" version="1.1" xmlns="http://www.w3.org/2000/svg" p-id="1527" xmlns:xlink="http://www.w3.org/1999/xlink" width="200" height="200"><defs><style type="text/css"></style></defs><path d="M690.999506 102.55895H158.335991v819.207225h704.979891V316.130107l-172.316376-213.571157z m-1.625626 113.035208l53.790164 66.686799h-53.790164V215.594158z m-458.787836 633.921964V174.809003h386.537783v179.722007h173.942002v494.985112H230.586044z" p-id="1528"></path><path d="M581.468426 499.825866l-70.624427-143.127355-70.624427 143.127355-157.97474 22.939392 114.299583 111.409581-26.985394 157.324491 141.284978-74.273055 141.284979 74.273055-26.985395-157.324491 114.299584-111.409581-157.974741-22.939392z m10.078882 99.885698l-18.134763 17.665138 4.262753 24.962393 10.476258 61.123545-54.91004-28.863896-22.397517-11.776759-22.397516 11.776759-54.91004 28.863896 10.476257-61.123545 4.262753-24.962393-18.134763-17.665138-44.397657-43.277781 61.376419-8.922882 25.070769-3.648628 11.198758-22.722641 27.45502-55.632541 27.45502 55.632541 11.198758 22.722641 25.070769 3.648628 61.37642 8.922882-44.397658 43.277781z" p-id="1529"></path></svg>