<svg class="icon" viewBox="0 0 1024 1024" xmlns="http://www.w3.org/2000/svg" width="200" height="200"><defs><style/></defs><path d="M691 102.559H158.336v819.207h704.98V316.13L691 102.56zm-1.626 113.035l53.79 66.687h-53.79v-66.687zM230.586 849.516V174.81h386.538v179.722h173.942v494.985h-560.48z"/><path d="M581.468 499.826l-70.624-143.127-70.624 143.127-157.975 22.94 114.3 111.409-26.986 157.324 141.285-74.273L652.129 791.5l-26.985-157.324 114.3-111.41-157.976-22.94zm10.08 99.886l-18.135 17.665 4.262 24.962 10.477 61.124-54.91-28.864-22.398-11.777-22.398 11.777-54.91 28.864 10.477-61.124 4.262-24.962-18.134-17.665-44.398-43.278 61.376-8.923 25.071-3.649 11.199-22.722 27.455-55.633 27.455 55.633 11.199 22.722 25.07 3.649 61.377 8.923-44.398 43.278z"/></svg>