<?xml version="1.0" standalone="no"?><!DOCTYPE svg PUBLIC "-//W3C//DTD SVG 1.1//EN" "http://www.w3.org/Graphics/SVG/1.1/DTD/svg11.dtd"><svg t="1608282683486" class="icon" viewBox="0 0 1024 1024" version="1.1" xmlns="http://www.w3.org/2000/svg" p-id="2086" xmlns:xlink="http://www.w3.org/1999/xlink" width="200" height="200"><defs><style type="text/css"></style></defs><path d="M853.333333 68.266667a102.4 102.4 0 0 1 102.229334 96.392533L955.733333 170.666667v546.133333a102.4 102.4 0 0 1-96.392533 102.229333L853.333333 819.2h-38.6048v34.133333a68.266667 68.266667 0 0 1-68.266666 68.266667H170.666667a68.266667 68.266667 0 0 1-68.266667-68.266667V277.504a68.266667 68.266667 0 0 1 68.266667-68.266667h34.133333V170.666667a102.4 102.4 0 0 1 96.392533-102.229334L307.2 68.266667h546.133333z m-106.837333 209.237333H170.666667V853.333333h575.829333V277.504zM853.333333 136.533333H307.2a34.133333 34.133333 0 0 0-33.8944 30.139734L273.066667 170.666667v38.570666h473.429333a68.266667 68.266667 0 0 1 68.266667 68.266667L814.728533 750.933333H853.333333a34.133333 34.133333 0 0 0 33.8944-30.139733L887.466667 716.8V170.666667a34.133333 34.133333 0 0 0-30.139734-33.8944L853.333333 136.533333z" fill="#717378" p-id="2087"></path><path d="M594.2272 707.925333c3.754667 0 6.826667 3.037867 6.826667 6.826667v57.5488a6.826667 6.826667 0 0 1-6.826667 6.826667H251.6992a6.826667 6.826667 0 0 1-6.826667-6.826667V714.752c0-3.754667 3.072-6.826667 6.826667-6.826667h342.528z m-142.472533-142.506666c3.754667 0 6.826667 3.072 6.826666 6.826666v57.582934a6.826667 6.826667 0 0 1-6.826666 6.826666H251.6992a6.826667 6.826667 0 0 1-6.826667-6.826666v-57.582934c0-3.754667 3.072-6.826667 6.826667-6.826666h200.021333z" fill="#717378" p-id="2088"></path></svg>