<svg class="icon" viewBox="0 0 1024 1024" xmlns="http://www.w3.org/2000/svg" width="200" height="200"><defs><style/></defs><path d="M853.333 68.267a102.4 102.4 0 0 1 102.23 96.392l.17 6.008V716.8a102.4 102.4 0 0 1-96.392 102.23l-6.008.17H814.73v34.133a68.267 68.267 0 0 1-68.267 68.267H170.667a68.267 68.267 0 0 1-68.267-68.267V277.504a68.267 68.267 0 0 1 68.267-68.267H204.8v-38.57a102.4 102.4 0 0 1 96.393-102.23l6.007-.17h546.133zM746.496 277.504h-575.83v575.83h575.83v-575.83zm106.837-140.97H307.2a34.133 34.133 0 0 0-33.894 30.14l-.24 3.993v38.57h473.43a68.267 68.267 0 0 1 68.267 68.267l-.034 473.43h38.604a34.133 34.133 0 0 0 33.895-30.14l.239-3.994V170.667a34.133 34.133 0 0 0-30.14-33.895l-3.994-.239z"/><path d="M594.227 707.925a6.825 6.825 0 0 1 6.827 6.827v57.549a6.827 6.827 0 0 1-6.827 6.826H251.7a6.827 6.827 0 0 1-6.826-6.826v-57.549c0-3.755 3.072-6.827 6.826-6.827h342.528zM451.755 565.42c3.754 0 6.826 3.072 6.826 6.826v57.583a6.827 6.827 0 0 1-6.826 6.827H251.699a6.827 6.827 0 0 1-6.826-6.827v-57.583c0-3.754 3.072-6.826 6.826-6.826h200.022z"/></svg>