<svg class="icon" viewBox="0 0 1024 1024" xmlns="http://www.w3.org/2000/svg" width="200" height="200"><defs><style/></defs><path d="M838.727 253.679l-21.166 21.166c-9.683 9.638-22.565 14.985-36.237 14.985-28.217 0-51.224-22.962-51.224-51.225 0-13.671 5.345-26.553 15.03-36.239l21.121-21.122L646.098 61.048 62.824 644.326 183.02 764.52l21.12-21.163c9.683-9.685 22.522-15.03 36.238-15.03 28.265 0 51.228 23.004 51.228 51.223 0 13.715-5.35 26.553-14.988 36.239l-21.21 21.163 121.51 120.153 581.96-583.276-120.151-120.15zm-126.55 233.599l-42.33 42.284 24.368 24.363-.702.66-317.864 317.904-38.472-38.428c9.288-16.434 14.282-35.1 14.282-54.512 0-61.215-49.865-111.037-111.08-111.037-19.41 0-38.078 4.951-54.51 14.243l-38.432-38.431L465.39 326.417l.613-.7 24.362 24.361 42.33-42.284-24.361-24.365 137.764-137.766 38.43 38.384c-9.29 16.478-14.24 35.143-14.24 54.555 0 61.214 49.821 111.04 111.037 111.04 19.458 0 38.079-4.955 54.513-14.243l38.473 38.428L736.541 511.6l-24.363-24.321z"/><path d="M646.146 507.178l-44.87-44.87 42.285-42.285 44.87 44.87-42.285 42.285zM526.469 387.546l42.328-42.328 44.87 44.87-42.329 42.328-44.87-44.87z"/></svg>