<svg class="icon" viewBox="0 0 1060 1024" xmlns="http://www.w3.org/2000/svg" width="207.031" height="200"><defs><style/></defs><path d="M404.206 314.206a75.6 75.6 0 1 1 0 151.2 75.6 75.6 0 0 1 0-151.2zm0 44.571a31.029 31.029 0 1 0 0 62.057 31.029 31.029 0 0 0 0-62.057zM644.17 542.72a75.6 75.6 0 1 1 0 151.2 75.6 75.6 0 0 1 0-151.2zm0 44.571a31.029 31.029 0 1 0 0 62.058 31.029 31.029 0 0 0 0-62.058zm-23.588-272.64a22.286 22.286 0 1 1 37.406 24.206l-228.48 353.349A22.286 22.286 0 1 1 392.103 668l228.48-353.349z"/><path d="M110 618.697c-5.006 1.063-6.96 2.092-6.96 2.057-1.029 1.715-2.16 6.926-2.16 14.846v225.326c0 35.863 29.657 65.074 66.446 65.074h545.451a22.286 22.286 0 1 1 0 44.571h-545.52c-61.2 0-111.017-49.028-111.017-109.645V635.6c0-15.634 2.811-28.766 8.88-38.297 7.474-12.377 20.709-19.406 38.126-22.697l4.114-.412c.583 0 3.669-.857 8.194-2.743a65.143 65.143 0 0 0 30.789-32.88c3.908-8.228 6-18.857 6-32.125 0-19.715-4.766-33.703-13.886-43.337-10.183-10.766-19.988-16.389-30.48-17.76-15.223-2.812-27.668-8.058-36.823-16.458-10.525-9.942-14.983-24.068-14.983-41.554V145.006c.035-60.549 49.749-109.577 110.983-109.577h545.589a22.286 22.286 0 1 1 0 44.571H167.12c-36.686 0-66.343 29.211-66.343 65.006v242.331c0 6.377.823 8.983.789 8.983 1.851 1.68 6.823 3.771 13.303 5.006 20.4 2.605 39.222 13.405 56.022 31.165 17.555 18.583 26.058 43.543 26.058 73.955 0 19.474-3.36 36.548-10.08 50.811a109.131 109.131 0 0 1-53.075 54.857c-9.291 3.943-16.663 6.172-23.794 6.583z"/><path d="M913.691 611.737a109.063 109.063 0 0 1-28.045-19.748 108.549 108.549 0 0 1-24-34.423c-6.857-14.572-10.183-31.646-10.183-51.086 0-30.411 8.468-55.406 26.057-74.023 16.8-17.726 35.589-28.526 54.789-30.96 7.68-1.406 12.651-3.497 14.194-4.903.274-.274 1.131-2.88 1.131-9.257V145.006c0-35.795-29.657-65.006-66.377-65.006H644.171a22.286 22.286 0 1 1 0-44.571h237.086c61.166 0 110.949 49.028 110.949 109.577v242.331c0 17.486-4.492 31.612-15.326 41.829-8.846 8.125-21.291 13.371-37.714 16.354-9.292 1.2-19.097 6.857-29.28 17.589-9.12 9.634-13.852 23.657-13.852 43.337 0 13.268 2.057 23.897 6.103 32.468a65.657 65.657 0 0 0 29.76 32.16c5.417 2.263 8.503 3.12 9.086 3.12l4.114.412c17.417 3.291 30.652 10.32 37.852 22.285 6.342 9.943 9.154 23.075 9.154 38.743v225.292c0 60.651-49.817 109.645-111.017 109.645H644.17a22.286 22.286 0 1 1 0-44.571h236.915c36.754 0 66.445-29.211 66.445-65.074V635.6c0-7.92-1.131-13.131-2.468-15.257.24.411-1.714-.583-6.72-1.646-7.097-.446-14.572-2.674-24.652-6.96z"/></svg>