<?xml version="1.0" standalone="no"?><!DOCTYPE svg PUBLIC "-//W3C//DTD SVG 1.1//EN" "http://www.w3.org/Graphics/SVG/1.1/DTD/svg11.dtd"><svg t="1608283023883" class="icon" viewBox="0 0 1024 1024" version="1.1" xmlns="http://www.w3.org/2000/svg" p-id="2292" xmlns:xlink="http://www.w3.org/1999/xlink" width="200" height="200"><defs><style type="text/css"></style></defs><path d="M712 832h-400a120 120 0 0 1-120-120v-400a120 120 0 0 1 120-120h400a120 120 0 0 1 120 120v400a120 120 0 0 1-120 120z m-400-592a72.16 72.16 0 0 0-72 72v400a72.16 72.16 0 0 0 72 72h400a72.16 72.16 0 0 0 72-72v-400a72.16 72.16 0 0 0-72-72z" p-id="2293"></path><path d="M600 672h-176a72.16 72.16 0 0 1-72-72v-176a72.16 72.16 0 0 1 72-72h176a72.16 72.16 0 0 1 72 72v176a72.16 72.16 0 0 1-72 72z m-176-272a24 24 0 0 0-24 24v176a24 24 0 0 0 24 24h176a24 24 0 0 0 24-24v-176a24 24 0 0 0-24-24zM392 240a24 24 0 0 1-24-24v-80a24 24 0 0 1 48 0v80a24 24 0 0 1-24 24zM616 240a24 24 0 0 1-24-24v-80a24 24 0 0 1 48 0v80a24 24 0 0 1-24 24zM392 912a24 24 0 0 1-24-24v-80a24 24 0 0 1 48 0v80a24 24 0 0 1-24 24zM616 912a24 24 0 0 1-24-24v-80a24 24 0 0 1 48 0v80a24 24 0 0 1-24 24zM904 400h-80a24 24 0 0 1 0-48h80a24 24 0 0 1 0 48zM904 656h-80a24 24 0 0 1 0-48h80a24 24 0 0 1 0 48zM216 400h-80a24 24 0 0 1 0-48h80a24 24 0 0 1 0 48zM216 656h-80a24 24 0 0 1 0-48h80a24 24 0 0 1 0 48z" p-id="2294"></path></svg>