<svg class="icon" viewBox="0 0 1024 1024" xmlns="http://www.w3.org/2000/svg" width="200" height="200"><defs><style/></defs><path d="M712 832H312a120 120 0 0 1-120-120V312a120 120 0 0 1 120-120h400a120 120 0 0 1 120 120v400a120 120 0 0 1-120 120zM312 240a72.16 72.16 0 0 0-72 72v400a72.16 72.16 0 0 0 72 72h400a72.16 72.16 0 0 0 72-72V312a72.16 72.16 0 0 0-72-72z"/><path d="M600 672H424a72.16 72.16 0 0 1-72-72V424a72.16 72.16 0 0 1 72-72h176a72.16 72.16 0 0 1 72 72v176a72.16 72.16 0 0 1-72 72zM424 400a24 24 0 0 0-24 24v176a24 24 0 0 0 24 24h176a24 24 0 0 0 24-24V424a24 24 0 0 0-24-24zm-32-160a24 24 0 0 1-24-24v-80a24 24 0 0 1 48 0v80a24 24 0 0 1-24 24zm224 0a24 24 0 0 1-24-24v-80a24 24 0 0 1 48 0v80a24 24 0 0 1-24 24zM392 912a24 24 0 0 1-24-24v-80a24 24 0 0 1 48 0v80a24 24 0 0 1-24 24zm224 0a24 24 0 0 1-24-24v-80a24 24 0 0 1 48 0v80a24 24 0 0 1-24 24zm288-512h-80a24 24 0 0 1 0-48h80a24 24 0 0 1 0 48zm0 256h-80a24 24 0 0 1 0-48h80a24 24 0 0 1 0 48zM216 400h-80a24 24 0 0 1 0-48h80a24 24 0 0 1 0 48zm0 256h-80a24 24 0 0 1 0-48h80a24 24 0 0 1 0 48z"/></svg>