<svg class="icon" viewBox="0 0 1024 1024" xmlns="http://www.w3.org/2000/svg" width="200" height="200"><defs><style/></defs><path d="M755.627 134.827L521.387 0 287.573 134.827v270.506l233.814 135.254 234.24-135.254zM676.693 359.68l-154.88 89.6-155.306-89.6v-179.2l154.88-89.6 154.88 89.6zm101.12 124.16l-234.24 134.827v270.08L777.813 1024l233.814-135.253v-270.08zm154.88 359.68l-154.88 89.6-154.88-89.6v-179.2l154.88-89.6 154.88 89.6zM12.373 618.667v270.08L246.187 1024 480 888.747v-270.08L246.187 483.84zm389.12 224.426l-154.88 89.6-154.88-89.6v-179.2l154.88-89.6 154.88 89.6z"/></svg>