<?xml version="1.0" standalone="no"?><!DOCTYPE svg PUBLIC "-//W3C//DTD SVG 1.1//EN" "http://www.w3.org/Graphics/SVG/1.1/DTD/svg11.dtd"><svg t="1608282906743" class="icon" viewBox="0 0 1024 1024" version="1.1" xmlns="http://www.w3.org/2000/svg" p-id="2255" xmlns:xlink="http://www.w3.org/1999/xlink" width="200" height="200"><defs><style type="text/css"></style></defs><path d="M755.626667 134.826667L521.386667 0 287.573333 134.826667V405.333333l233.813334 135.253334 234.24-135.253334z m-78.933334 224.853333l-154.88 89.6-155.306666-89.6v-179.2l154.88-89.6 154.88 89.6zM777.813333 483.84l-234.24 134.826667v270.08L777.813333 1024l233.813334-135.253333V618.666667z m154.88 359.68l-154.88 89.6-154.88-89.6v-179.2l154.88-89.6 154.88 89.6zM12.373333 618.666667v270.08L246.186667 1024l233.813333-135.253333V618.666667l-233.813333-134.826667z m389.12 224.426666l-154.88 89.6-154.88-89.6v-179.2l154.88-89.6 154.88 89.6z" p-id="2256"></path></svg>