<svg class="icon" viewBox="0 0 1024 1024" xmlns="http://www.w3.org/2000/svg" width="200" height="200"><defs><style/></defs><path d="M512 204.8c10.24 0 17.067-6.827 17.067-17.067v-51.2H563.2c10.24 0 17.067-6.826 17.067-17.066S573.44 102.4 563.2 102.4H460.8c-10.24 0-17.067 6.827-17.067 17.067s6.827 17.066 17.067 17.066h34.133v51.2c0 10.24 6.827 17.067 17.067 17.067z"/><path d="M307.2 238.933l17.067-3.413v-13.653c0-102.4 85.333-187.734 187.733-187.734s187.733 85.334 187.733 187.734v17.066c0 10.24 6.827 17.067 17.067 17.067s17.067-6.827 17.067-17.067V225.28C733.867 98.987 634.88 0 512 0S290.133 98.987 290.133 221.867v17.066H307.2z"/><path d="M791.893 358.4l34.134-34.133 13.653 13.653c3.413 3.413 10.24 3.413 13.653 3.413s10.24 0 13.654-3.413c6.826-6.827 6.826-17.067 0-23.893l-51.2-51.2c-6.827-6.827-17.067-6.827-23.894 0s-6.826 17.066 0 23.893l13.654 13.653-34.134 34.134C699.733 276.48 610.987 238.933 512 238.933c-215.04 0-392.533 177.494-392.533 392.534S296.96 1024 512 1024s392.533-177.493 392.533-392.533c0-105.814-44.373-201.387-112.64-273.067zm-293.546-78.507c6.826-6.826 17.066-6.826 23.893 0 3.413 3.414 6.827 6.827 6.827 13.654s-3.414 10.24-6.827 10.24c0 0-6.827 3.413-10.24 3.413s-10.24-3.413-13.653-3.413c-3.414-3.414-3.414-6.827-3.414-13.654 0-3.413 3.414-10.24 3.414-10.24zm-317.44 361.814c0 3.413-6.827 6.826-10.24 6.826-3.414 0-10.24-3.413-13.654-6.826-3.413-3.414-3.413-6.827-3.413-10.24 0-3.414 3.413-10.24 3.413-13.654 6.827-6.826 17.067-6.826 23.894 0 3.413 3.414 6.826 6.827 6.826 10.24 0 6.827-3.413 13.654-6.826 13.654zm51.2 170.666c0 3.414-6.827 6.827-10.24 6.827-3.414 0-10.24-3.413-13.654-6.827 0 0-3.413-6.826-3.413-10.24s3.413-10.24 3.413-13.653c6.827-6.827 17.067-6.827 23.894 0 3.413 3.413 6.826 10.24 6.826 13.653 0 3.414-3.413 10.24-6.826 10.24zm0-341.333c0 3.413-6.827 6.827-10.24 6.827-3.414 0-10.24-3.414-13.654-6.827 0 0-3.413-6.827-3.413-10.24s3.413-10.24 3.413-13.653c6.827-6.827 17.067-6.827 23.894 0 3.413 3.413 6.826 10.24 6.826 13.653 0 3.413-3.413 10.24-6.826 10.24zm119.466 460.8c-3.413 3.413-6.826 6.827-10.24 6.827-3.413 0-10.24-3.414-13.653-6.827-3.413-3.413-3.413-6.827-3.413-10.24s3.413-10.24 3.413-10.24c6.827-6.827 17.067-6.827 23.893 0 3.414 3.413 6.827 6.827 6.827 10.24 0 3.413-3.413 10.24-6.827 10.24zm6.827-590.507c0 10.24-6.827 17.067-17.067 17.067s-17.066-6.827-17.066-17.067v-6.826c0-10.24 6.826-17.067 17.066-17.067s17.067 6.827 17.067 17.067v6.826zm163.84 645.12s-6.827 3.414-10.24 3.414-10.24-3.414-13.653-6.827c-3.414-3.413-3.414-6.827-3.414-10.24 0-3.413 3.414-10.24 3.414-10.24 6.826-6.827 17.066-6.827 23.893 0 3.413 3.413 6.827 6.827 6.827 10.24 0 3.413-3.414 10.24-6.827 13.653zm6.827-382.293v95.573c0 10.24-6.827 17.067-17.067 17.067s-17.067-6.827-17.067-17.067v-61.44l-71.68 71.68c-3.413 6.827-10.24 6.827-13.653 6.827s-10.24 0-13.653-3.413c-6.827-6.827-6.827-17.067 0-23.894l98.986-98.986V358.4c0-10.24 6.827-17.067 17.067-17.067s17.067 6.827 17.067 17.067v197.973L634.88 450.56c6.827-6.827 17.067-6.827 23.893 0s6.827 17.067 0 23.893L529.067 604.16zM696.32 931.84c-3.413 3.413-6.827 6.827-13.653 6.827s-10.24-3.414-13.654-3.414c-3.413-3.413-3.413-6.826-3.413-13.653s3.413-10.24 3.413-10.24c6.827-6.827 17.067-6.827 23.894 0 3.413 3.413 6.826 6.827 6.826 10.24s-3.413 10.24-3.413 10.24zm0-580.267c-3.413 3.414-6.827 6.827-13.653 6.827s-10.24-3.413-13.654-3.413c-3.413-3.414-3.413-6.827-3.413-13.654s3.413-10.24 3.413-10.24c6.827-6.826 17.067-6.826 23.894 0 3.413 3.414 6.826 6.827 6.826 10.24s-3.413 10.24-3.413 10.24zm116.053 460.8c-3.413 3.414-6.826 6.827-10.24 6.827s-10.24-3.413-13.653-3.413c-3.413-3.414-3.413-10.24-3.413-13.654s3.413-10.24 3.413-10.24c6.827-6.826 17.067-6.826 23.893 0 3.414 3.414 6.827 6.827 6.827 10.24 0 3.414-3.413 10.24-6.827 10.24zm0-341.333c-3.413 3.413-6.826 6.827-10.24 6.827s-10.24-3.414-13.653-6.827c-3.413 0-3.413-6.827-3.413-10.24s3.413-10.24 3.413-10.24c6.827-6.827 17.067-6.827 23.893 0 3.414 3.413 6.827 6.827 6.827 10.24 0 3.413-3.413 10.24-6.827 10.24zm40.96 177.493c-3.413 0-10.24-3.413-13.653-6.826-3.413-3.414-3.413-6.827-3.413-10.24s3.413-10.24 3.413-13.654c6.827-6.826 17.067-6.826 23.893 0 3.414 3.414 6.827 6.827 6.827 13.654s-3.413 10.24-6.827 10.24c0 3.413-6.826 6.826-10.24 6.826z"/></svg>