<?xml version="1.0" standalone="no"?><!DOCTYPE svg PUBLIC "-//W3C//DTD SVG 1.1//EN" "http://www.w3.org/Graphics/SVG/1.1/DTD/svg11.dtd"><svg t="1618565505789" class="icon" viewBox="0 0 1024 1024" version="1.1" xmlns="http://www.w3.org/2000/svg" p-id="12717" xmlns:xlink="http://www.w3.org/1999/xlink" width="200" height="200"><defs><style type="text/css"></style></defs><path d="M512 204.8c10.24 0 17.066667-6.826667 17.066667-17.066667V136.533333h34.133333c10.24 0 17.066667-6.826667 17.066667-17.066666s-6.826667-17.066667-17.066667-17.066667h-102.4c-10.24 0-17.066667 6.826667-17.066667 17.066667s6.826667 17.066667 17.066667 17.066666h34.133333v51.2c0 10.24 6.826667 17.066667 17.066667 17.066667z" fill="" p-id="12718"></path><path d="M307.2 238.933333l17.066667-3.413333v-13.653333C324.266667 119.466667 409.6 34.133333 512 34.133333s187.733333 85.333333 187.733333 187.733334V238.933333c0 10.24 6.826667 17.066667 17.066667 17.066667s17.066667-6.826667 17.066667-17.066667v-13.653333C733.866667 98.986667 634.88 0 512 0S290.133333 98.986667 290.133333 221.866667V238.933333H307.2z" fill="" p-id="12719"></path><path d="M791.893333 358.4l34.133334-34.133333 13.653333 13.653333c3.413333 3.413333 10.24 3.413333 13.653333 3.413333s10.24 0 13.653334-3.413333c6.826667-6.826667 6.826667-17.066667 0-23.893333l-51.2-51.2c-6.826667-6.826667-17.066667-6.826667-23.893334 0s-6.826667 17.066667 0 23.893333l13.653334 13.653333-34.133334 34.133334C699.733333 276.48 610.986667 238.933333 512 238.933333 296.96 238.933333 119.466667 416.426667 119.466667 631.466667S296.96 1024 512 1024s392.533333-177.493333 392.533333-392.533333c0-105.813333-44.373333-201.386667-112.64-273.066667z m-293.546666-78.506667c6.826667-6.826667 17.066667-6.826667 23.893333 0 3.413333 3.413333 6.826667 6.826667 6.826667 13.653334s-3.413333 10.24-6.826667 10.24c0 0-6.826667 3.413333-10.24 3.413333s-10.24-3.413333-13.653333-3.413333c-3.413333-3.413333-3.413333-6.826667-3.413334-13.653334 0-3.413333 3.413333-10.24 3.413334-10.24zM180.906667 641.706667c0 3.413333-6.826667 6.826667-10.24 6.826666-3.413333 0-10.24-3.413333-13.653334-6.826666-3.413333-3.413333-3.413333-6.826667-3.413333-10.24 0-3.413333 3.413333-10.24 3.413333-13.653334 6.826667-6.826667 17.066667-6.826667 23.893334 0 3.413333 3.413333 6.826667 6.826667 6.826666 10.24 0 6.826667-3.413333 13.653333-6.826666 13.653334z m51.2 170.666666c0 3.413333-6.826667 6.826667-10.24 6.826667-3.413333 0-10.24-3.413333-13.653334-6.826667 0 0-3.413333-6.826667-3.413333-10.24s3.413333-10.24 3.413333-13.653333c6.826667-6.826667 17.066667-6.826667 23.893334 0 3.413333 3.413333 6.826667 10.24 6.826666 13.653333 0 3.413333-3.413333 10.24-6.826666 10.24z m0-341.333333c0 3.413333-6.826667 6.826667-10.24 6.826667-3.413333 0-10.24-3.413333-13.653334-6.826667 0 0-3.413333-6.826667-3.413333-10.24s3.413333-10.24 3.413333-13.653333c6.826667-6.826667 17.066667-6.826667 23.893334 0 3.413333 3.413333 6.826667 10.24 6.826666 13.653333 0 3.413333-3.413333 10.24-6.826666 10.24z m119.466666 460.8c-3.413333 3.413333-6.826667 6.826667-10.24 6.826667-3.413333 0-10.24-3.413333-13.653333-6.826667-3.413333-3.413333-3.413333-6.826667-3.413333-10.24s3.413333-10.24 3.413333-10.24c6.826667-6.826667 17.066667-6.826667 23.893333 0 3.413333 3.413333 6.826667 6.826667 6.826667 10.24 0 3.413333-3.413333 10.24-6.826667 10.24z m6.826667-590.506667c0 10.24-6.826667 17.066667-17.066667 17.066667s-17.066667-6.826667-17.066666-17.066667v-6.826666c0-10.24 6.826667-17.066667 17.066666-17.066667s17.066667 6.826667 17.066667 17.066667v6.826666z m163.84 645.12s-6.826667 3.413333-10.24 3.413334-10.24-3.413333-13.653333-6.826667c-3.413333-3.413333-3.413333-6.826667-3.413334-10.24 0-3.413333 3.413333-10.24 3.413334-10.24 6.826667-6.826667 17.066667-6.826667 23.893333 0 3.413333 3.413333 6.826667 6.826667 6.826667 10.24 0 3.413333-3.413333 10.24-6.826667 13.653333z m6.826667-382.293333v95.573333c0 10.24-6.826667 17.066667-17.066667 17.066667s-17.066667-6.826667-17.066667-17.066667v-61.44l-71.68 71.68c-3.413333 6.826667-10.24 6.826667-13.653333 6.826667s-10.24 0-13.653333-3.413333c-6.826667-6.826667-6.826667-17.066667 0-23.893334l98.986666-98.986666v-232.106667c0-10.24 6.826667-17.066667 17.066667-17.066667s17.066667 6.826667 17.066667 17.066667v197.973333l105.813333-105.813333c6.826667-6.826667 17.066667-6.826667 23.893333 0s6.826667 17.066667 0 23.893333l-129.706666 129.706667z m167.253333 327.68c-3.413333 3.413333-6.826667 6.826667-13.653333 6.826667s-10.24-3.413333-13.653334-3.413334c-3.413333-3.413333-3.413333-6.826667-3.413333-13.653333s3.413333-10.24 3.413333-10.24c6.826667-6.826667 17.066667-6.826667 23.893334 0 3.413333 3.413333 6.826667 6.826667 6.826666 10.24s-3.413333 10.24-3.413333 10.24z m0-580.266667c-3.413333 3.413333-6.826667 6.826667-13.653333 6.826667s-10.24-3.413333-13.653334-3.413333c-3.413333-3.413333-3.413333-6.826667-3.413333-13.653334s3.413333-10.24 3.413333-10.24c6.826667-6.826667 17.066667-6.826667 23.893334 0 3.413333 3.413333 6.826667 6.826667 6.826666 10.24s-3.413333 10.24-3.413333 10.24z m116.053333 460.8c-3.413333 3.413333-6.826667 6.826667-10.24 6.826667s-10.24-3.413333-13.653333-3.413333c-3.413333-3.413333-3.413333-10.24-3.413333-13.653334s3.413333-10.24 3.413333-10.24c6.826667-6.826667 17.066667-6.826667 23.893333 0 3.413333 3.413333 6.826667 6.826667 6.826667 10.24 0 3.413333-3.413333 10.24-6.826667 10.24z m0-341.333333c-3.413333 3.413333-6.826667 6.826667-10.24 6.826667s-10.24-3.413333-13.653333-6.826667c-3.413333 0-3.413333-6.826667-3.413333-10.24s3.413333-10.24 3.413333-10.24c6.826667-6.826667 17.066667-6.826667 23.893333 0 3.413333 3.413333 6.826667 6.826667 6.826667 10.24 0 3.413333-3.413333 10.24-6.826667 10.24zM853.333333 648.533333c-3.413333 0-10.24-3.413333-13.653333-6.826666-3.413333-3.413333-3.413333-6.826667-3.413333-10.24s3.413333-10.24 3.413333-13.653334c6.826667-6.826667 17.066667-6.826667 23.893333 0 3.413333 3.413333 6.826667 6.826667 6.826667 13.653334s-3.413333 10.24-6.826667 10.24c0 3.413333-6.826667 6.826667-10.24 6.826666z" fill="" p-id="12720"></path></svg>