<svg class="icon" viewBox="0 0 1024 1024" xmlns="http://www.w3.org/2000/svg" width="200" height="200"><defs><style/></defs><path d="M527.36 92.16c98.81 0 179.2 80.39 179.2 179.2s-80.39 179.2-179.2 179.2-179.2-80.39-179.2-179.2 80.39-179.2 179.2-179.2m0-61.44c-132.9 0-240.64 107.74-240.64 240.64S394.46 512 527.36 512 768 404.26 768 271.36 660.26 30.72 527.36 30.72zm161.572 563.2c15.657 3.497 96.133 26.168 172.436 132.992l.476.67.497.656c29.768 39.398 62.403 96.051 48.835 142.193-10.788 36.68-49.66 61.45-71.501 71.649h-624.63c-21.837-10.204-60.713-34.975-71.5-71.65-13.569-46.14 19.066-102.794 48.834-142.192l.497-.655.476-.671c75.714-106 155.366-129.085 172.708-132.992h322.872m5.442-61.44H360.346S245.76 547.84 143.36 691.2c-174.08 230.4 59.494 312.32 59.494 312.32h649.012S1085.44 921.6 911.36 691.2c-102.4-143.36-216.986-158.72-216.986-158.72z"/></svg>