<?xml version="1.0" standalone="no"?><!DOCTYPE svg PUBLIC "-//W3C//DTD SVG 1.1//EN" "http://www.w3.org/Graphics/SVG/1.1/DTD/svg11.dtd"><svg t="1608282517230" class="icon" viewBox="0 0 1024 1024" version="1.1" xmlns="http://www.w3.org/2000/svg" p-id="1121" xmlns:xlink="http://www.w3.org/1999/xlink" width="200" height="200"><defs><style type="text/css"></style></defs><path d="M527.36 92.16c98.81088 0 179.2 80.38912 179.2 179.2s-80.38912 179.2-179.2 179.2-179.2-80.38912-179.2-179.2 80.38912-179.2 179.2-179.2m0-61.44C394.46016 30.72 286.72 138.46016 286.72 271.36s107.74016 240.64 240.64 240.64 240.64-107.74016 240.64-240.64-107.74016-240.64-240.64-240.64zM688.93184 593.92c15.65696 3.49696 96.13312 26.16832 172.43648 132.992l0.47616 0.67072 0.49664 0.65536c29.76768 39.3984 62.40256 96.0512 48.83456 142.19264-10.78784 36.67968-49.65888 61.45024-71.5008 71.64928H215.04512c-21.8368-10.20416-60.71296-34.97472-71.5008-71.64928-13.568-46.14144 19.06688-102.79424 48.83456-142.19264l0.49664-0.65536 0.47616-0.67072C269.06624 620.91264 348.71808 597.82656 366.05952 593.92h322.87232m5.44256-61.44H360.3456S245.76 547.84 143.36 691.2c-174.08 230.4 59.4944 312.32 59.4944 312.32h649.0112S1085.44 921.6 911.36 691.2c-102.4-143.36-216.9856-158.72-216.9856-158.72z" p-id="1122"></path></svg>