<svg class="icon" viewBox="0 0 1024 1024" xmlns="http://www.w3.org/2000/svg" width="200" height="200"><defs><style/></defs><path d="M629.84 312.481c0-104.22-84.497-188.717-188.717-188.717s-188.717 84.497-188.717 188.717c0 69.722 37.822 130.556 94.07 163.25-142.659 56.174-245.254 209.055-245.254 388.38v36.45h406.985v-72.937H175.784C191.571 658.09 316.202 525.62 467.06 525.62c38.257 0 75.43 8.381 110.435 24.926l31.14-65.928a338.683 338.683 0 0 0-55.308-20.41c46.42-34.391 76.513-89.518 76.513-151.726zM441.123 428.298c-63.87 0-115.817-51.947-115.817-115.817s51.948-115.816 115.817-115.816S556.94 248.612 556.94 312.48s-51.948 115.817-115.817 115.817zM629.876 827.66H920.43v72.9H629.876zm0-262.954H920.43v72.9H629.876zm0 133.085H920.43v72.9H629.876z"/></svg>