<?xml version="1.0" standalone="no"?><!DOCTYPE svg PUBLIC "-//W3C//DTD SVG 1.1//EN" "http://www.w3.org/Graphics/SVG/1.1/DTD/svg11.dtd"><svg t="1608282857610" class="icon" viewBox="0 0 1024 1024" version="1.1" xmlns="http://www.w3.org/2000/svg" p-id="1952" xmlns:xlink="http://www.w3.org/1999/xlink" width="200" height="200"><defs><style type="text/css"></style></defs><path d="M629.839836 312.481479c0-104.220701-84.496437-188.717138-188.717138-188.717138S252.40556 208.260778 252.40556 312.481479c0 69.721301 37.822903 130.555846 94.069569 163.248994-142.657729 56.174416-245.252805 209.055528-245.252805 388.38016v36.450152h406.984548V827.624356H175.784379c15.786637-169.534749 140.417978-302.005221 291.276088-302.005221 38.256403 0 75.429055 8.381006 110.434206 24.926268l31.139773-65.928173a338.682961 338.682961 0 0 0-55.307416-20.41064c46.420659-34.391025 76.512806-89.517816 76.512806-151.725111z m-188.717138 115.816835c-63.869047 0-115.816835-51.947788-115.816835-115.816835s51.947788-115.816835 115.816835-115.816835 115.816835 51.947788 115.816835 115.816835-51.947788 115.816835-115.816835 115.816835zM629.875961 827.660481h290.553588v72.900304h-290.553588zM629.875961 564.706414h290.553588v72.900303h-290.553588zM629.875961 697.791011h290.553588v72.900303h-290.553588z" p-id="1953"></path></svg>