<svg class="icon" viewBox="0 0 1024 1024" xmlns="http://www.w3.org/2000/svg" width="200" height="200"><defs><style/></defs><path d="M311.2 433.6V389c0-.9-.8-1.7-1.7-1.7h-44.6c-.9 0-1.7.8-1.7 1.7v44.6c0 .9.8 1.7 1.7 1.7h44.6c1-.1 1.7-.8 1.7-1.7zm301.9-46.4H364.6c-.9 0-1.7.8-1.7 1.7v44.6c0 .9.8 1.7 1.7 1.7h248.5c.9 0 1.7-.8 1.7-1.7v-44.6c0-.9-.8-1.7-1.7-1.7zM263.9 498.1c-.9 0-1.7.8-1.7 1.7v44.6c0 .9.8 1.7 1.7 1.7h44.6c.9 0 1.7-.8 1.7-1.7v-44.6c0-.9-.8-1.7-1.7-1.7h-44.6zm348.5 0H363.9c-.9 0-1.7.8-1.7 1.7v44.6c0 .9.8 1.7 1.7 1.7h248.5c.9 0 1.7-.8 1.7-1.7v-44.6c0-1-.7-1.7-1.7-1.7zm225.7 113.3c-.7-.7-1.7-.7-2.4 0L655 792.1c-.7.7-.7 1.7 0 2.4l31.6 31.6c.7.7 1.7.7 2.4 0l180.8-180.8c.7-.7.7-1.7 0-2.4l-31.7-31.5zm67.6-4.5l-31.6-31.6c-.7-.7-1.7-.7-2.4 0l-28 28c-.7.7-.7 1.7 0 2.4l31.6 31.6c.7.7 1.7.7 2.4 0l28-28c.7-.7.7-1.8 0-2.4zm-255 193.3c-.9-.9-2.4-.5-2.8.6l-15.7 45.8c-.5 1.3.8 2.6 2.1 2.1l45.8-15.7c1.2-.4 1.5-1.9.6-2.8l-30-30z"/><path d="M165.8 181H250v65c0 1.1.9 2 2 2h429c1.1 0 2-.9 2-2v-65h83.8v415h48V135c0-1.1-.9-2-2-2H683V80c0-1.1-.9-2-2-2H252c-1.1 0-2 .9-2 2v53H119.8c-1.1 0-2 .9-2 2v809c0 1.1.9 2 2 2h494v-48h-448V181zM298 128c0-1.1.9-2 2-2h333c1.1 0 2 .9 2 2v70c0 1.1-.9 2-2 2H300c-1.1 0-2-.9-2-2v-70z"/></svg>