<?xml version="1.0" standalone="no"?><!DOCTYPE svg PUBLIC "-//W3C//DTD SVG 1.1//EN" "http://www.w3.org/Graphics/SVG/1.1/DTD/svg11.dtd"><svg t="1608282533197" class="icon" viewBox="0 0 1024 1024" version="1.1" xmlns="http://www.w3.org/2000/svg" p-id="1654" xmlns:xlink="http://www.w3.org/1999/xlink" width="200" height="200"><defs><style type="text/css"></style></defs><path d="M302.08 107.52c107.27936 0 194.56 87.28064 194.56 194.56S409.35936 496.64 302.08 496.64 107.52 409.35936 107.52 302.08s87.28064-194.56 194.56-194.56m0-61.44C160.69632 46.08 46.08 160.69632 46.08 302.08s114.61632 256 256 256 256-114.61632 256-256S443.46368 46.08 302.08 46.08z" p-id="1655"></path><path d="M601.6 281.6c176.45056 0 320 143.54944 320 320S778.05056 921.6 601.6 921.6 281.6 778.05056 281.6 601.6 425.14944 281.6 601.6 281.6m0-61.44C390.9376 220.16 220.16 390.9376 220.16 601.6S390.9376 983.04 601.6 983.04s381.44-170.7776 381.44-381.44S812.2624 220.16 601.6 220.16z" p-id="1656"></path></svg>