<svg class="icon" viewBox="0 0 1024 1024" xmlns="http://www.w3.org/2000/svg" width="200" height="200"><defs><style/></defs><path d="M302.08 107.52c107.28 0 194.56 87.28 194.56 194.56s-87.28 194.56-194.56 194.56-194.56-87.28-194.56-194.56 87.28-194.56 194.56-194.56m0-61.44c-141.384 0-256 114.616-256 256s114.616 256 256 256 256-114.616 256-256-114.616-256-256-256z"/><path d="M601.6 281.6c176.45 0 320 143.55 320 320s-143.55 320-320 320-320-143.55-320-320 143.55-320 320-320m0-61.44c-210.662 0-381.44 170.778-381.44 381.44S390.938 983.04 601.6 983.04 983.04 812.262 983.04 601.6 812.262 220.16 601.6 220.16z"/></svg>