<?xml version="1.0" standalone="no"?><!DOCTYPE svg PUBLIC "-//W3C//DTD SVG 1.1//EN" "http://www.w3.org/Graphics/SVG/1.1/DTD/svg11.dtd"><svg t="1608282760614" class="icon" viewBox="0 0 1024 1024" version="1.1" xmlns="http://www.w3.org/2000/svg" p-id="5545" xmlns:xlink="http://www.w3.org/1999/xlink" width="200" height="200"><defs><style type="text/css"></style></defs><path d="M249.6 96a38.4 38.4 0 0 1 38.208 34.464L288 134.4v755.2a38.4 38.4 0 0 1-34.464 38.208L249.6 928H134.4a38.4 38.4 0 0 1-38.208-34.464L96 889.6V134.4a38.4 38.4 0 0 1 34.464-38.208L134.4 96h115.2z m256 128a38.4 38.4 0 0 1 38.208 34.464L544 262.4v627.2a38.4 38.4 0 0 1-34.464 38.208L505.6 928h-115.2a38.4 38.4 0 0 1-38.208-34.464L352 889.6V262.4a38.4 38.4 0 0 1 34.464-38.208L390.4 224h115.2z m256 224a38.4 38.4 0 0 1 38.208 34.464L800 486.4v403.2a38.4 38.4 0 0 1-34.464 38.208L761.6 928h-115.2a38.4 38.4 0 0 1-38.208-34.464L608 889.6V486.4a38.4 38.4 0 0 1 34.464-38.208L646.4 448h115.2zM224 160H160v704h64V160z m256 128h-64v576h64V288z m256 224h-64v352h64V512z" fill="#717378" p-id="5546"></path></svg>