<svg class="icon" viewBox="0 0 1024 1024" xmlns="http://www.w3.org/2000/svg" width="200" height="200"><defs><style/></defs><path d="M936.96 385.877l-203.435-204.8-18.09-7.68h-406.87l-18.09 7.68-203.435 204.8c-9.728 9.899-9.899 25.942-.17 35.84l406.869 421.035c4.778 4.95 11.434 7.85 18.432 7.85 6.997 0 13.653-2.9 18.432-7.85l406.869-421.035c9.387-10.069 9.216-25.941-.512-35.84zm-68.437 3.755H726.528l-163.84-165.035h141.995l163.84 165.035zM319.317 224.768h143.019l-163.84 165.035H155.477l163.84-165.035zM176.47 440.832h132.608l18.091-7.51 185.173-186.538 185.174 186.539 18.09 7.509H847.19L512 787.968 176.47 440.832z"/></svg>