<svg class="icon" viewBox="0 0 1128 1024" xmlns="http://www.w3.org/2000/svg" width="220.313" height="200"><defs><style/></defs><path d="M969.058.006H68.052A67.125 67.125 0 0 0 .026 68.933v826.223a67.125 67.125 0 0 0 68.026 68.927h901.006a67.125 67.125 0 0 0 68.026-68.927V68.933A67.125 67.125 0 0 0 969.058.006zM954.192 83.35v549.614H83.369V82.9zM83.369 881.19V716.306H953.29V881.19zm0 0"/><path d="M145.088 414.019h126.14a52.258 52.258 0 0 0 45.051-29.283l62.62-127.492 147.315 277.51a51.808 51.808 0 0 0 45.05 27.48 51.808 51.808 0 0 0 45.05-30.183l82.442-173.895 19.822 35.14a52.258 52.258 0 0 0 45.05 26.58H898.78a41.672 41.672 0 1 0 0-83.344H783.9l-40.094-72.08a51.808 51.808 0 0 0-92.354 3.604l-81.54 173.894-146.414-274.807a51.808 51.808 0 0 0-92.804 0l-78.838 163.983h-106.77a41.672 41.672 0 1 0 0 83.343zm668.096 345.536H695.603a41.672 41.672 0 1 0 0 83.343h117.581a41.672 41.672 0 1 0 0-83.343zm-299.134 0H161.306a41.672 41.672 0 0 0 0 83.343H514.05a41.672 41.672 0 0 0 0-83.343zm0 0"/></svg>