<?xml version="1.0" standalone="no"?><!DOCTYPE svg PUBLIC "-//W3C//DTD SVG 1.1//EN" "http://www.w3.org/Graphics/SVG/1.1/DTD/svg11.dtd"><svg t="1608283030141" class="icon" viewBox="0 0 1024 1024" version="1.1" xmlns="http://www.w3.org/2000/svg" p-id="2567" xmlns:xlink="http://www.w3.org/1999/xlink" width="200" height="200"><defs><style type="text/css"></style></defs><path d="M520 912A408 408 0 1 1 928 504 408.48 408.48 0 0 1 520 912z m0-768A360 360 0 1 0 880 504 360.32 360.32 0 0 0 520 144z" p-id="2568"></path><path d="M520 608a104 104 0 1 1 104-104 104.16 104.16 0 0 1-104 104z m0-160a56 56 0 1 0 56 56 56 56 0 0 0-56-56z" p-id="2569"></path></svg>