<svg class="icon" viewBox="0 0 1024 1024" xmlns="http://www.w3.org/2000/svg" width="200" height="200"><defs><style/></defs><path d="M935 812.8L744.4 840c-15.5 2.2-29.8-8.6-32-24.2l-82.6-586.1c-2.2-15.6 8.6-30 24.1-32.2l190.6-27.2c15.5-2.2 29.8 8.6 32 24.2L959 780.6c2.2 15.6-8.5 30-24 32.2zm-156.4-95.6c3.7 26.5 28.1 44.9 54.4 41.1 26.3-3.8 44.6-28.2 40.9-54.7-3.7-26.5-28.1-44.9-54.4-41.1-26.3 3.8-44.6 28.2-40.9 54.7zm96.7-206.4l-34.2-242.3c-2.2-15.6-16.5-26.4-32-24.2l-100.9 14.4c-15.5 2.2-26.2 16.6-24 32.2l34.2 242.3c2.2 15.6 16.5 26.4 32 24.2L851.2 543c15.5-2.2 26.3-16.6 24.1-32.2zM733.7 439l100.9-14.4 4 28.2-100.9 14.4-4-28.2zm-13.5-95.8L821 328.8l4 28.2-100.9 14.4-3.9-28.2zm-7.2-50.7l100.9-14.4 4 28.2L717 320.7l-4-28.2zM556.7 840.9H364.2c-15.6 0-28.3-12.7-28.3-28.5v-592c0-15.7 12.7-28.5 28.3-28.5h192.5c15.6 0 28.3 12.7 28.3 28.5v592c0 15.8-12.7 28.5-28.3 28.5zm-93.4-68.3c26.6 0 48.1-21.7 48.1-48.4s-21.5-48.4-48.1-48.4-48.1 21.7-48.1 48.4c0 26.8 21.5 48.4 48.1 48.4zm76.4-483.8c0-15.7-12.7-28.5-28.3-28.5H409.5c-15.6 0-28.3 12.7-28.3 28.5v244.8c0 15.7 12.7 28.5 28.3 28.5h101.9c15.6 0 28.3-12.7 28.3-28.5V288.8zM409.5 442.5h101.9V471H409.5v-28.5zm0-96.8h101.9v28.5H409.5v-28.5zm0-51.2h101.9V323H409.5v-28.5zM285 840.9H92.5c-15.6 0-28.3-12.7-28.3-28.5v-592c0-15.7 12.7-28.5 28.3-28.5H285c15.6 0 28.3 12.7 28.3 28.5v592c0 15.8-12.7 28.5-28.3 28.5zm-93.4-68.3c26.6 0 48.1-21.7 48.1-48.4s-21.5-48.4-48.1-48.4-48.1 21.7-48.1 48.4c0 26.8 21.5 48.4 48.1 48.4zM268 288.8c0-15.7-12.7-28.5-28.3-28.5H137.8c-15.6 0-28.3 12.7-28.3 28.5v244.8c0 15.7 12.7 28.5 28.3 28.5h101.9c15.6 0 28.3-12.7 28.3-28.5V288.8zM137.8 442.5h101.9V471H137.8v-28.5zm0-96.8h101.9v28.5H137.8v-28.5zm0-51.2h101.9V323H137.8v-28.5z"/></svg>