<?xml version="1.0" standalone="no"?><!DOCTYPE svg PUBLIC "-//W3C//DTD SVG 1.1//EN" "http://www.w3.org/Graphics/SVG/1.1/DTD/svg11.dtd"><svg t="1608282852846" class="icon" viewBox="0 0 1024 1024" version="1.1" xmlns="http://www.w3.org/2000/svg" p-id="1668" xmlns:xlink="http://www.w3.org/1999/xlink" width="200" height="200"><defs><style type="text/css"></style></defs><path d="M166.030622 512.180625c0-91.721442 35.727651-177.915755 100.572073-242.760178 64.808297-64.808297 151.038736-100.535949 242.724053-100.535948V102.4867c-109.422705 0-212.342906 42.627531-289.686587 120.007338-77.379807 77.343682-120.007338 180.263882-120.007338 289.686587 0 94.430819 31.717773 183.98476 90.131941 256.451563l-63.652297 32.982149 30.525648 58.956043 142.043604-73.550554-32.079024-32.079023c-64.844422-64.844422-100.572074-151.038736-100.572073-242.760178zM828.852607 255.729062l63.652297-32.982149-30.525648-58.956043-141.971354 73.550554 32.079024 32.079023c133.807098 133.843223 133.807098 351.641008 0 485.484231-64.844422 64.808297-151.074861 100.535949-242.760178 100.535949v66.433923c109.422705 0 212.30678-42.627531 289.686587-120.007338 149.087984-149.051859 159.022366-385.417907 29.839272-546.13815z" p-id="1669"></path><path d="M542.525647 775.026318v-127.015593h146.378608V581.612926h-146.378608v-55.704791h146.378608V459.510337h-145.908982l129.146969-129.14697-46.962534-46.926409-114.552459 114.552458-114.552459-114.552458-46.962534 46.926409 127.015593 127.051718v2.095252H329.713116v66.397798h146.414733V581.612926H329.713116v66.397799h146.414733v127.015593z" p-id="1670"></path></svg>