<svg class="icon" viewBox="0 0 1024 1024" xmlns="http://www.w3.org/2000/svg" width="200" height="200"><defs><style/></defs><path d="M166.03 512.18c0-91.72 35.728-177.915 100.573-242.76 64.808-64.808 151.038-100.536 242.724-100.536v-66.397c-109.423 0-212.343 42.627-289.687 120.007-77.38 77.344-120.007 180.264-120.007 289.687 0 94.43 31.718 183.984 90.132 256.451l-63.653 32.982 30.526 58.956 142.044-73.55-32.08-32.08c-64.844-64.844-100.571-151.038-100.571-242.76zm662.823-256.45l63.652-32.983-30.526-58.956-141.971 73.55 32.079 32.08c133.807 133.843 133.807 351.64 0 485.484-64.844 64.808-151.075 100.536-242.76 100.536v66.434c109.422 0 212.307-42.628 289.686-120.008 149.088-149.052 159.023-385.418 29.84-546.138z"/><path d="M542.526 775.026V648.011h146.378v-66.398H542.526v-55.705h146.378V459.51H542.995l129.147-129.147-46.962-46.926-114.553 114.552-114.552-114.552-46.963 46.926 127.016 127.052v2.095H329.713v66.398h146.415v55.705H329.713v66.398h146.415v127.015z"/></svg>