<?xml version="1.0" standalone="no"?><!DOCTYPE svg PUBLIC "-//W3C//DTD SVG 1.1//EN" "http://www.w3.org/Graphics/SVG/1.1/DTD/svg11.dtd"><svg t="1608282551411" class="icon" viewBox="0 0 1024 1024" version="1.1" xmlns="http://www.w3.org/2000/svg" p-id="2320" xmlns:xlink="http://www.w3.org/1999/xlink" width="200" height="200"><defs><style type="text/css"></style></defs><path d="M778.24 484.69504h-266.24a30.72 30.72 0 1 0 0 61.44h266.24a30.72 30.72 0 1 0 0-61.44z" p-id="2321"></path><path d="M512 218.45504a30.72 30.72 0 0 0-30.72 30.72v266.24a30.72 30.72 0 1 0 61.44 0v-266.24a30.72 30.72 0 0 0-30.72-30.72z" p-id="2322"></path><path d="M512 89.6c234.79296 0 425.81504 191.01696 425.81504 425.81504S746.79296 941.22496 512 941.22496s-425.81504-191.01696-425.81504-425.81504S277.20704 89.6 512 89.6m0-61.44c-269.10208 0-487.25504 218.15296-487.25504 487.25504S242.89792 1002.66496 512 1002.66496s487.25504-218.15296 487.25504-487.25504S781.10208 28.16 512 28.16z" p-id="2323"></path></svg>