<svg class="icon" viewBox="0 0 1024 1024" xmlns="http://www.w3.org/2000/svg" width="200" height="200"><defs><style/></defs><path d="M778.24 484.695H512a30.72 30.72 0 1 0 0 61.44h266.24a30.72 30.72 0 1 0 0-61.44z"/><path d="M512 218.455a30.72 30.72 0 0 0-30.72 30.72v266.24a30.72 30.72 0 1 0 61.44 0v-266.24a30.72 30.72 0 0 0-30.72-30.72z"/><path d="M512 89.6c234.793 0 425.815 191.017 425.815 425.815S746.793 941.225 512 941.225 86.185 750.208 86.185 515.41 277.207 89.6 512 89.6m0-61.44c-269.102 0-487.255 218.153-487.255 487.255s218.153 487.25 487.255 487.25S999.255 784.512 999.255 515.41 781.102 28.16 512 28.16z"/></svg>