<svg class="icon" viewBox="0 0 1024 1024" xmlns="http://www.w3.org/2000/svg" width="200" height="200"><defs><style/></defs><path d="M942.252 0H81.748a60.235 60.235 0 0 0-60.235 60.235v903.53A60.235 60.235 0 0 0 81.748 1024h860.504a60.235 60.235 0 0 0 60.235-60.235V60.235A60.235 60.235 0 0 0 942.252 0zm-17.21 946.555H98.958V77.445h826.084z"/><path d="M253.849 149.297H770.15v81.748H253.85zm442.299 315.375H588.155l43.025-111.435a30.978 30.978 0 0 0-28.397-43.025h-152.31a30.548 30.548 0 0 0-27.965 18.07L299.455 605.795a30.548 30.548 0 0 0 27.967 43.025h118.75l-26.246 211.684a30.548 30.548 0 0 0 55.933 20.652L721.533 512.43a30.548 30.548 0 0 0-25.385-47.758zm-198.346 255.57L512 615.261a27.536 27.536 0 0 0-27.536-30.979h-96.377l86.05-193.183h80.888L512 491.348a27.536 27.536 0 0 0 25.815 37.862h86.05z"/></svg>