<svg class="icon" viewBox="0 0 1024 1024" xmlns="http://www.w3.org/2000/svg" width="200" height="200"><defs><style/></defs><path d="M443.744 68.256c207.36 0 375.456 168.128 375.456 375.488 0 100.064-39.168 191.04-103.008 258.336l215.2 215.168a32 32 0 0 1 0 45.248l-3.008 3.04a32 32 0 0 1-45.28 0l-218.24-218.304a373.76 373.76 0 0 1-221.12 71.968c-207.36 0-375.488-168.096-375.488-375.456S236.384 68.256 443.744 68.256zm0 68.288a307.2 307.2 0 1 0 0 614.4 307.2 307.2 0 0 0 0-614.4zm2.112 136.512a32 32 0 0 1 32 32V409.6l104.544.032a32 32 0 0 1 32 32v4.256a32 32 0 0 1-32 32H477.856V582.4a32 32 0 0 1-32 32H441.6a32 32 0 0 1-32-32V477.856H305.024a32 32 0 0 1-32-32V441.6a32 32 0 0 1 32-32H409.6l.032-104.544a32 32 0 0 1 32-32h4.256z"/></svg>