<?xml version="1.0" standalone="no"?><!DOCTYPE svg PUBLIC "-//W3C//DTD SVG 1.1//EN" "http://www.w3.org/Graphics/SVG/1.1/DTD/svg11.dtd"><svg t="1608282953956" class="icon" viewBox="0 0 1127 1024" version="1.1" xmlns="http://www.w3.org/2000/svg" p-id="4285" xmlns:xlink="http://www.w3.org/1999/xlink" width="220.1171875" height="200"><defs><style type="text/css"></style></defs><path d="M975.017683 817.38963a51.174882 51.174882 0 0 0-46.949433-53.991848H404.112576a41.315501 41.315501 0 0 0-12.676346 0 41.784995 41.784995 0 0 0-20.657751-5.633932 46.949433 46.949433 0 0 0-44.132467 46.949433 123.477009 123.477009 0 0 1-98.124315 124.885492A117.843077 117.843077 0 0 1 94.715813 848.84575a128.641447 128.641447 0 0 1 53.991848-153.99414 46.949433 46.949433 0 0 0 0-80.283531 42.25449 42.25449 0 0 0-44.132468 0 223.479301 223.479301 0 0 0-96.715832 247.893007 209.394472 209.394472 0 0 0 200.004585 161.036555 203.291045 203.291045 0 0 0 146.482231-63.851229 222.070818 222.070818 0 0 0 51.174882-88.734428h522.547191a51.174882 51.174882 0 0 0 46.949433-53.522354z" p-id="4286"></path><path d="M1046.850315 658.700546a240.381097 240.381097 0 0 0-175.121385-46.949433 46.949433 46.949433 0 0 0-4.694943-10.79837l-267.611769-426.770346a50.235893 50.235893 0 0 0-65.259712-15.962808 46.949433 46.949433 0 0 0-22.535728 27.700166 41.315501 41.315501 0 0 0 5.164438 32.864603l265.264297 422.544898a42.723984 42.723984 0 0 0-16.901796 33.803592 43.662973 43.662973 0 0 0 23.944211 38.498535 51.644376 51.644376 0 0 0 46.949433 0 140.848299 140.848299 0 0 1 165.262004 26.761177 110.800662 110.800662 0 0 1 0 152.585657 140.848299 140.848299 0 0 1-165.262004 26.761177 51.644376 51.644376 0 0 0-46.949433 0 42.25449 42.25449 0 0 0 0 76.527576 243.198063 243.198063 0 0 0 113.148133 27.700165 226.765762 226.765762 0 0 0 211.741944-136.153356 196.24863 196.24863 0 0 0-67.13769-229.113233z" p-id="4287"></path><path d="M159.975524 754.007895a41.315501 41.315501 0 0 0-5.164437 32.864603 46.949433 46.949433 0 0 0 22.535728 27.700166 50.705388 50.705388 0 0 0 23.944211 6.103426 46.949433 46.949433 0 0 0 41.315501-22.066233l241.320086-385.454846a44.132467 44.132467 0 0 0 40.376512-30.047637 61.973252 61.973252 0 0 0-2.816966-46.949433 64.320723 64.320723 0 0 0-25.822188-23.474717 59.156286 59.156286 0 0 0-16.901796-4.694943 131.458413 131.458413 0 0 1-26.291682-130.519424 117.843077 117.843077 0 0 1 132.397401-80.753025 123.477009 123.477009 0 0 1 98.124315 123.946503 44.132467 44.132467 0 1 0 88.264934 0A215.028403 215.028403 0 0 0 600.830701 5.164438a205.169023 205.169023 0 0 0-230.991211 140.848299 227.70475 227.70475 0 0 0 37.090052 216.436886z" p-id="4288"></path></svg>