<svg class="icon" viewBox="0 0 1127 1024" xmlns="http://www.w3.org/2000/svg" width="220.117" height="200"><defs><style/></defs><path d="M975.018 817.39a51.175 51.175 0 0 0-46.95-53.992H404.113a41.316 41.316 0 0 0-12.677 0 41.785 41.785 0 0 0-20.658-5.634 46.95 46.95 0 0 0-44.132 46.95 123.477 123.477 0 0 1-98.124 124.885 117.843 117.843 0 0 1-133.806-80.753 128.641 128.641 0 0 1 53.992-153.994 46.95 46.95 0 0 0 0-80.284 42.254 42.254 0 0 0-44.133 0A223.48 223.48 0 0 0 7.86 862.461a209.394 209.394 0 0 0 200.005 161.037 203.291 203.291 0 0 0 146.482-63.852 222.07 222.07 0 0 0 51.175-88.734h522.547a51.175 51.175 0 0 0 46.95-53.522z"/><path d="M1046.85 658.7a240.381 240.381 0 0 0-175.121-46.949 46.95 46.95 0 0 0-4.695-10.798l-267.612-426.77a50.236 50.236 0 0 0-65.26-15.963 46.95 46.95 0 0 0-22.535 27.7 41.316 41.316 0 0 0 5.164 32.864L782.056 641.33a42.724 42.724 0 0 0-16.902 33.804 43.663 43.663 0 0 0 23.944 38.498 51.644 51.644 0 0 0 46.95 0 140.848 140.848 0 0 1 165.261 26.762 110.8 110.8 0 0 1 0 152.585 140.848 140.848 0 0 1-165.262 26.761 51.644 51.644 0 0 0-46.95 0 42.254 42.254 0 0 0 0 76.528 243.198 243.198 0 0 0 113.15 27.7 226.766 226.766 0 0 0 211.741-136.153A196.249 196.249 0 0 0 1046.85 658.7z"/><path d="M159.976 754.008a41.316 41.316 0 0 0-5.165 32.864 46.95 46.95 0 0 0 22.536 27.7 50.705 50.705 0 0 0 23.944 6.104 46.95 46.95 0 0 0 41.316-22.066l241.32-385.455a44.132 44.132 0 0 0 40.376-30.048 61.973 61.973 0 0 0-2.817-46.95 64.32 64.32 0 0 0-25.822-23.474 59.156 59.156 0 0 0-16.902-4.695 131.458 131.458 0 0 1-26.292-130.52 117.843 117.843 0 0 1 132.398-80.752 123.477 123.477 0 0 1 98.124 123.946 44.132 44.132 0 1 0 88.265 0A215.028 215.028 0 0 0 600.831 5.164a205.169 205.169 0 0 0-230.992 140.849 227.705 227.705 0 0 0 37.09 216.437z"/></svg>