<svg class="icon" viewBox="0 0 1024 1024" xmlns="http://www.w3.org/2000/svg" width="200" height="200"><defs><style/></defs><path d="M776 880H264a120 120 0 0 1-120-120V248a120 120 0 0 1 120-120h512a120 120 0 0 1 120 120v512a120 120 0 0 1-120 120zM264 176a72.16 72.16 0 0 0-72 72v512a72.16 72.16 0 0 0 72 72h512a72.16 72.16 0 0 0 72-72V248a72.16 72.16 0 0 0-72-72z"/><path d="M360 464a24.16 24.16 0 0 1-16.96-7.04l-80-80a24 24 0 0 1 33.92-33.92L360 406.08l63.04-63.04a24 24 0 0 1 33.92 33.92l-80 80A24.16 24.16 0 0 1 360 464zm80 80H280a24 24 0 0 1 0-48h160a24 24 0 0 1 0 48z"/><path d="M360 637.92a24 24 0 0 1-24-24V440a24 24 0 0 1 48 0v173.92a24 24 0 0 1-24 24zM760 448H632a24 24 0 0 1 0-48h128a24 24 0 0 1 0 48zm0 176H632a24 24 0 0 1 0-48h128a24 24 0 0 1 0 48z"/><path d="M696 512a24 24 0 0 1-24-24V360a24 24 0 0 1 48 0v128a24 24 0 0 1-24 24z"/></svg>