<svg class="icon" viewBox="0 0 1024 1024" xmlns="http://www.w3.org/2000/svg" width="200" height="200"><defs><style/></defs><path d="M96.502 519.311c.143-4.341 1.454-8.601 3.891-12.247L231.608 310.17c4.322-6.41 11.633-10.302 19.395-10.302H428.36c12.861 0 23.285 10.445 23.285 23.306v379.618c0 12.84-10.444 23.285-23.326 23.285H380.62a106.537 106.537 0 0 1-213.136 0h-47.718a23.347 23.347 0 0 1-23.306-23.306V519.987l.04-.676zm248.566-6.348v-142.09H255.18l-94.74 142.09h184.606zm-71.046 266.342a53.33 53.33 0 0 0 53.29-53.248 53.35 53.35 0 0 0-53.29-53.289 53.35 53.35 0 0 0-53.248 53.268 53.33 53.33 0 0 0 53.248 53.269zm244.04-550.502h399.852c17.08 0 30.924 13.844 30.924 30.924v435.364a30.925 30.925 0 0 1-30.924 30.945h-75.572a106.537 106.537 0 0 1-106.557 106.537 106.537 106.537 0 0 1-106.557-106.537H518.103a30.925 30.925 0 0 1-30.925-30.924V259.707c0-17.06 13.824-30.925 30.925-30.925zm217.702 550.502a53.33 53.33 0 0 0 53.248-53.248 53.35 53.35 0 0 0-53.248-53.289 53.37 53.37 0 0 0-53.309 53.268 53.33 53.33 0 0 0 53.289 53.269z"/></svg>