<?xml version="1.0" standalone="no"?><!DOCTYPE svg PUBLIC "-//W3C//DTD SVG 1.1//EN" "http://www.w3.org/Graphics/SVG/1.1/DTD/svg11.dtd"><svg t="1608283040749" class="icon" viewBox="0 0 1024 1024" version="1.1" xmlns="http://www.w3.org/2000/svg" p-id="2704" xmlns:xlink="http://www.w3.org/1999/xlink" width="200" height="200"><defs><style type="text/css"></style></defs><path d="M520 784A417.76 417.76 0 0 1 129.6 512a24.64 24.64 0 0 1 0-16 416 416 0 0 1 780.8 0 24.64 24.64 0 0 1 0 17.28A417.76 417.76 0 0 1 520 784zM177.92 504a368 368 0 0 0 684.16 0 368 368 0 0 0-684.16 0z" p-id="2705"></path><path d="M520 624a120 120 0 1 1 120-120 120 120 0 0 1-120 120z m0-192a72 72 0 1 0 72 72 72.16 72.16 0 0 0-72-72z" p-id="2706"></path></svg>