<svg class="icon" viewBox="0 0 1024 1024" xmlns="http://www.w3.org/2000/svg" width="200" height="200"><defs><style/></defs><path d="M744 928H296a120 120 0 0 1-120-120V296a120 120 0 0 1 120-120h64a24 24 0 0 1 0 48h-64a72.16 72.16 0 0 0-72 72v512a72.16 72.16 0 0 0 72 72h448a72.16 72.16 0 0 0 72-72V296a72.16 72.16 0 0 0-72-72h-64a24 24 0 0 1 0-48h64a120 120 0 0 1 120 120v512a120 120 0 0 1-120 120z"/><path d="M632 288H408a72.16 72.16 0 0 1-72-72v-48a72.16 72.16 0 0 1 72-72h224a72.16 72.16 0 0 1 72 72v48a72.16 72.16 0 0 1-72 72zM408 144a24 24 0 0 0-24 24v48a24 24 0 0 0 24 24h224a24 24 0 0 0 24-24v-48a24 24 0 0 0-24-24zm272 416H360a24 24 0 0 1 0-48h320a24 24 0 0 1 0 48zm-32 112H392a24 24 0 0 1 0-48h256a24 24 0 0 1 0 48z"/><path d="M520 816a24 24 0 0 1-24-24V536a24 24 0 0 1 48 0v256a24 24 0 0 1-24 24z"/><path d="M520 560a23.68 23.68 0 0 1-18.88-9.28l-112-144a24 24 0 1 1 37.76-29.44L520 496.96l93.12-119.68a24 24 0 0 1 37.76 29.44l-112 144A23.68 23.68 0 0 1 520 560z"/></svg>