<?xml version="1.0" standalone="no"?><!DOCTYPE svg PUBLIC "-//W3C//DTD SVG 1.1//EN" "http://www.w3.org/Graphics/SVG/1.1/DTD/svg11.dtd"><svg t="1608283058421" class="icon" viewBox="0 0 1024 1024" version="1.1" xmlns="http://www.w3.org/2000/svg" p-id="3395" xmlns:xlink="http://www.w3.org/1999/xlink" width="200" height="200"><defs><style type="text/css"></style></defs><path d="M744 928h-448a120 120 0 0 1-120-120v-512a120 120 0 0 1 120-120h64a24 24 0 0 1 0 48h-64a72.16 72.16 0 0 0-72 72v512a72.16 72.16 0 0 0 72 72h448a72.16 72.16 0 0 0 72-72v-512a72.16 72.16 0 0 0-72-72h-64a24 24 0 0 1 0-48h64a120 120 0 0 1 120 120v512a120 120 0 0 1-120 120z" p-id="3396"></path><path d="M632 288h-224a72.16 72.16 0 0 1-72-72v-48A72.16 72.16 0 0 1 408 96h224a72.16 72.16 0 0 1 72 72v48a72.16 72.16 0 0 1-72 72z m-224-144a24 24 0 0 0-24 24v48a24 24 0 0 0 24 24h224a24 24 0 0 0 24-24v-48A24 24 0 0 0 632 144zM680 560h-320a24 24 0 0 1 0-48h320a24 24 0 0 1 0 48zM648 672h-256a24 24 0 0 1 0-48h256a24 24 0 0 1 0 48z" p-id="3397"></path><path d="M520 816a24 24 0 0 1-24-24v-256a24 24 0 0 1 48 0v256a24 24 0 0 1-24 24z" p-id="3398"></path><path d="M520 560a23.68 23.68 0 0 1-18.88-9.28l-112-144a24 24 0 1 1 37.76-29.44l93.12 119.68 93.12-119.68a24 24 0 0 1 37.76 29.44l-112 144a23.68 23.68 0 0 1-18.88 9.28z" p-id="3399"></path></svg>