<svg class="icon" viewBox="0 0 1024 1024" xmlns="http://www.w3.org/2000/svg" width="200" height="200"><defs><style/></defs><path d="M520 912a408 408 0 1 1 133.44-793.6 24 24 0 1 1-16 45.28A360 360 0 1 0 880 504a364.48 364.48 0 0 0-13.28-97.6 24 24 0 1 1 46.08-12.96A408.16 408.16 0 0 1 520 912z"/><path d="M680 496H360a24 24 0 0 1 0-48h320a24 24 0 0 1 0 48zm-32 112H392a24 24 0 0 1 0-48h256a24 24 0 0 1 0 48z"/><path d="M520 752a24 24 0 0 1-24-24V472a24 24 0 0 1 48 0v256a24 24 0 0 1-24 24z"/><path d="M520 496a23.68 23.68 0 0 1-18.88-9.28l-112-144a24 24 0 1 1 37.76-29.44L520 432.96l93.12-119.68a24 24 0 0 1 37.76 29.44l-112 144A23.68 23.68 0 0 1 520 496zm304-208a24.32 24.32 0 0 1-16.96-7.04 24 24 0 0 1 21.6-40.96l4.48 1.28 4.16 2.24a33.76 33.76 0 0 1 3.68 3.04A24.32 24.32 0 0 1 848 264a24 24 0 0 1-7.04 16.96 33.76 33.76 0 0 1-3.68 3.04l-4.16 2.24-4.48 1.28a21.76 21.76 0 0 1-4.64.48z"/></svg>