<?xml version="1.0" standalone="no"?><!DOCTYPE svg PUBLIC "-//W3C//DTD SVG 1.1//EN" "http://www.w3.org/Graphics/SVG/1.1/DTD/svg11.dtd"><svg t="1608283045921" class="icon" viewBox="0 0 1024 1024" version="1.1" xmlns="http://www.w3.org/2000/svg" p-id="3117" xmlns:xlink="http://www.w3.org/1999/xlink" width="200" height="200"><defs><style type="text/css"></style></defs><path d="M520 912a408 408 0 1 1 133.44-793.6 24 24 0 1 1-16 45.28A360 360 0 1 0 880 504a364.48 364.48 0 0 0-13.28-97.6 24 24 0 1 1 46.08-12.96A408.16 408.16 0 0 1 520 912z" p-id="3118"></path><path d="M680 496h-320a24 24 0 0 1 0-48h320a24 24 0 0 1 0 48zM648 608h-256a24 24 0 0 1 0-48h256a24 24 0 0 1 0 48z" p-id="3119"></path><path d="M520 752a24 24 0 0 1-24-24v-256a24 24 0 0 1 48 0v256a24 24 0 0 1-24 24z" p-id="3120"></path><path d="M520 496a23.68 23.68 0 0 1-18.88-9.28l-112-144a24 24 0 1 1 37.76-29.44l93.12 119.68 93.12-119.68a24 24 0 0 1 37.76 29.44l-112 144a23.68 23.68 0 0 1-18.88 9.28zM824 288a24.32 24.32 0 0 1-16.96-7.04A24 24 0 0 1 828.64 240l4.48 1.28 4.16 2.24a33.76 33.76 0 0 1 3.68 3.04A24.32 24.32 0 0 1 848 264a24 24 0 0 1-7.04 16.96 33.76 33.76 0 0 1-3.68 3.04l-4.16 2.24-4.48 1.28a21.76 21.76 0 0 1-4.64 0.48z" p-id="3121"></path></svg>