<svg class="icon" viewBox="0 0 1024 1024" xmlns="http://www.w3.org/2000/svg" width="200" height="200"><defs><style/></defs><path d="M616 928a23.04 23.04 0 0 1-10.72-2.56l-224-112A23.84 23.84 0 0 1 368 792V537.6a72.32 72.32 0 0 0-16-44.96L138.08 224.96a40 40 0 0 1 31.2-64.96H868a40 40 0 0 1 29.76 66.72l-240 265.92a71.68 71.68 0 0 0-18.56 48V904a24.32 24.32 0 0 1-11.36 20.48A25.6 25.6 0 0 1 616 928zM416 777.12l176 88V540.8a119.52 119.52 0 0 1 30.72-80L850.08 208H185.92l203.84 254.72A120.48 120.48 0 0 1 416 537.6zM868 208z"/><path d="M808.8 640h-80a24 24 0 0 1 0-48h80a24 24 0 0 1 0 48zm0 144h-80a24 24 0 0 1 0-48h80a24 24 0 0 1 0 48z"/></svg>