<?xml version="1.0" standalone="no"?><!DOCTYPE svg PUBLIC "-//W3C//DTD SVG 1.1//EN" "http://www.w3.org/Graphics/SVG/1.1/DTD/svg11.dtd"><svg t="1608283044365" class="icon" viewBox="0 0 1024 1024" version="1.1" xmlns="http://www.w3.org/2000/svg" p-id="2980" xmlns:xlink="http://www.w3.org/1999/xlink" width="200" height="200"><defs><style type="text/css"></style></defs><path d="M616 928a23.04 23.04 0 0 1-10.72-2.56l-224-112A23.84 23.84 0 0 1 368 792V537.6a72.32 72.32 0 0 0-16-44.96L138.08 224.96A40 40 0 0 1 169.28 160h698.72a40 40 0 0 1 29.76 66.72l-240 265.92a71.68 71.68 0 0 0-18.56 48V904a24.32 24.32 0 0 1-11.36 20.48 25.6 25.6 0 0 1-11.84 3.52zM416 777.12l176 88V540.8a119.52 119.52 0 0 1 30.72-80L850.08 208H185.92l203.84 254.72A120.48 120.48 0 0 1 416 537.6zM868 208z" p-id="2981"></path><path d="M808.8 640h-80a24 24 0 0 1 0-48h80a24 24 0 0 1 0 48zM808.8 784h-80a24 24 0 0 1 0-48h80a24 24 0 0 1 0 48z" p-id="2982"></path></svg>