<?xml version="1.0" standalone="no"?><!DOCTYPE svg PUBLIC "-//W3C//DTD SVG 1.1//EN" "http://www.w3.org/Graphics/SVG/1.1/DTD/svg11.dtd"><svg t="1608289471222" class="icon" viewBox="0 0 1024 1024" version="1.1" xmlns="http://www.w3.org/2000/svg" p-id="12282" xmlns:xlink="http://www.w3.org/1999/xlink" width="200" height="200"><defs><style type="text/css"></style></defs><path d="M120.830973 412.700413c-3.387144 0-6.816243-0.522909-10.162454-1.651616-16.85283-5.625114-25.927509-23.815405-20.281929-40.647769C151.358243 187.903577 321.686537 65.290005 514.179642 65.290005c186.17726 0 354.623693 117.30159 419.10938 291.916513 6.147 16.644075-2.342348 35.106566-18.9854 41.254589-16.644075 6.188956-35.0861-2.342348-41.2331-19.006889-55.243185-149.4815-199.476147-249.930259-358.889857-249.930259-164.850535 0-310.672692 104.986099-362.904287 261.242909C146.800437 404.212088 134.254703 412.700413 120.830973 412.700413z" p-id="12283"></path><path d="M514.179642 958.708971c-179.026396 0-340.28001-106.34505-410.786831-270.923386-6.984065-16.309454 0.585331-35.190477 16.894785-42.174542 16.183588-6.984065 35.170011 0.564865 42.153052 16.874319 60.386322 140.92973 198.430328 231.990678 351.738993 231.990678s291.393603-91.102904 351.780949-232.095056c6.984065-16.309454 25.969465-23.87885 42.153052-16.874319 16.309454 6.984065 23.87885 25.865087 16.894785 42.174542C854.501608 852.321966 693.247994 958.708971 514.179642 958.708971z" p-id="12284"></path><path d="M798.107203 185.697329l81.515548-70.316485c11.527544-9.943466 29.477358-2.805906 31.027667 12.339026l24.060999 235.046271c0.632403 6.178723-7.30743 9.226129-10.971889 4.210905L797.185204 193.753819C795.347346 191.238532 795.748483 187.732685 798.107203 185.697329z" p-id="12285"></path><path d="M238.058884 855.255785l-81.515548 70.316485c-11.527544 9.943466-29.477358 2.805906-31.028691-12.339026l-24.060999-235.046271c-0.632403-6.178723 7.30743-9.226129 10.971889-4.210905l126.556371 173.22425C240.819764 849.714582 240.417605 853.220429 238.058884 855.255785z" p-id="12286"></path><path d="M667.569148 503.468696 377.48947 503.468696c-18.117636 0-32.94125-14.823614-32.94125-32.94125l0-6.161327c0-18.117636 14.823614-32.94125 32.94125-32.94125l290.079678 0c18.117636 0 32.94125 14.823614 32.94125 32.94125l0 6.161327C700.510398 488.645083 685.686784 503.468696 667.569148 503.468696z" p-id="12287"></path><path d="M675.528424 625.715925 369.530195 625.715925c-18.117636 0-32.94125-14.823614-32.94125-32.94125l0-6.161327c0-18.117636 14.823614-32.94125 32.94125-32.94125l305.998229 0c18.117636 0 32.94125 14.823614 32.94125 32.94125l0 6.161327C708.469674 610.892311 693.64606 625.715925 675.528424 625.715925z" p-id="12288"></path><path d="M558.551222 464.365096l0 253.348102c0 18.117636-14.823614 32.94125-32.94125 32.94125l-6.161327 0c-18.117636 0-32.94125-14.823614-32.94125-32.94125L486.507396 464.365096c0-18.117636 14.823614-32.94125 32.94125-32.94125l6.161327 0C543.727609 431.423847 558.551222 446.24746 558.551222 464.365096z" p-id="12289"></path><path d="M499.236302 495.140007 347.150488 343.054193c-12.81077-12.81077-12.81077-33.775244 0-46.586015l4.357238-4.357238c12.81077-12.81077 33.775244-12.81077 46.586015 0l152.085814 152.085814c12.81077 12.81077 12.81077 33.775244 0 46.586015l-4.357238 4.357238C533.011546 507.950777 512.047072 507.950777 499.236302 495.140007z" p-id="12290"></path><path d="M494.879064 444.196755l152.085814-152.085814c12.81077-12.81077 33.775244-12.81077 46.586015 0l4.357238 4.357238c12.81077 12.81077 12.81077 33.775244 0 46.586015L545.822316 495.140007c-12.81077 12.81077-33.775244 12.81077-46.586015 0l-4.357238-4.357238C482.068294 477.971999 482.068294 457.007525 494.879064 444.196755z" p-id="12291"></path></svg>