<svg class="icon" viewBox="0 0 1024 1024" xmlns="http://www.w3.org/2000/svg" width="200" height="200"><defs><style/></defs><path d="M120.831 412.7c-3.387 0-6.816-.522-10.162-1.651-16.853-5.625-25.928-23.816-20.282-40.648C151.358 187.904 321.687 65.29 514.18 65.29c186.177 0 354.623 117.302 419.109 291.917 6.147 16.644-2.342 35.106-18.985 41.254-16.644 6.19-35.086-2.342-41.233-19.007-55.244-149.481-199.477-249.93-358.89-249.93-164.85 0-310.673 104.986-362.905 261.243-4.476 13.445-17.021 21.933-30.445 21.933zM514.18 958.709a446.402 446.402 0 0 1-410.787-270.923c-6.984-16.31.585-35.19 16.895-42.175 16.183-6.984 35.17.565 42.153 16.874 60.386 140.93 198.43 231.991 351.739 231.991s291.393-91.103 351.78-232.095c6.985-16.31 25.97-23.879 42.154-16.874 16.31 6.984 23.878 25.865 16.894 42.174C854.502 852.322 693.248 958.71 514.18 958.71z"/><path d="M798.107 185.697l81.516-70.316c11.527-9.944 29.477-2.806 31.027 12.339l24.061 235.046c.633 6.179-7.307 9.226-10.971 4.211L797.185 193.754a5.981 5.981 0 0 1 .922-8.057zM238.059 855.256l-81.516 70.316c-11.527 9.944-29.477 2.806-31.028-12.339l-24.061-235.046c-.633-6.179 7.307-9.226 10.972-4.21L238.982 847.2a5.98 5.98 0 0 1-.923 8.056zM667.57 503.469H377.49c-18.118 0-32.942-14.824-32.942-32.942v-6.16c0-18.119 14.824-32.942 32.941-32.942h290.08c18.118 0 32.941 14.823 32.941 32.941v6.161c0 18.118-14.823 32.942-32.94 32.942zM675.528 625.716H369.53c-18.117 0-32.941-14.824-32.941-32.941v-6.162c0-18.117 14.824-32.94 32.941-32.94h305.998c18.118 0 32.942 14.823 32.942 32.94v6.162c0 18.117-14.824 32.94-32.942 32.94z"/><path d="M558.551 464.365v253.348c0 18.118-14.823 32.941-32.941 32.941h-6.161c-18.118 0-32.942-14.823-32.942-32.94V464.364c0-18.118 14.824-32.941 32.942-32.941h6.161c18.118 0 32.941 14.823 32.941 32.941z"/><path d="M499.236 495.14L347.15 343.054c-12.81-12.81-12.81-33.775 0-46.586l4.358-4.357c12.81-12.81 33.775-12.81 46.586 0L550.18 444.197c12.81 12.81 12.81 33.775 0 46.586l-4.358 4.357c-12.81 12.81-33.775 12.81-46.586 0z"/><path d="M494.88 444.197L646.964 292.11c12.81-12.81 33.775-12.81 46.586 0l4.357 4.357c12.81 12.81 12.81 33.775 0 46.586L545.822 495.14c-12.81 12.81-33.775 12.81-46.586 0l-4.357-4.357c-12.81-12.811-12.81-33.775 0-46.586z"/></svg>