<svg class="icon" viewBox="0 0 1024 1024" xmlns="http://www.w3.org/2000/svg" width="200" height="200"><defs><style/></defs><path d="M848.21 887.42a21.16 21.16 0 0 0-3.18 2.75l.26-.18c.9-.78 1.84-1.53 2.7-2.35zM273.84 133.9c-.9.78-1.84 1.53-2.7 2.35l-.22.23a22.36 22.36 0 0 0 3.18-2.76z"/><path d="M896.9 100.1C878 76.63 847.21 65.06 817.65 65H300.66c-35.32.12-71.67 17.81-88.74 49.75-7.95 14.88-10.67 30.76-10.67 47.34v498.38h-11.36a72.14 72.14 0 0 0-48.1 18.27c-11.27 9.93-17.11 23.13-21.52 37.14a289.15 289.15 0 0 0-8.68 35c-5.42 29.94-7.13 60.44-3.68 90.71 2.92 25.69 6.21 55.93 21.76 77.53 17.63 24.5 44.59 39.39 75 39.69H720c33 0 66 .27 99 0 42.73-.34 87-27.5 96.54-71.26 2-9.12 2.34-17.88 2.34-27V159c0-22.08-7.12-41.72-20.98-58.9zm-629.28 39.72a23.88 23.88 0 0 0 1.42-2c.1.18-.63 1.07-1.42 2zm-83.21 582a3.2 3.2 0 0 0 .27-.25zm383 176.42h-298c-21.43 0-42.86.15-64.29 0-1.5 0-3-.06-4.48-.16a65.12 65.12 0 0 1-7.91-2.17 60.58 60.58 0 0 1-5.77-3.26l-.53-.36c-1-.87-2-1.69-2.93-2.6s-2.07-2.17-3.07-3.28l-.07-.11a59 59 0 0 1-3.76-6.55c-4-11-6.06-23.09-7.72-34.76a292.2 292.2 0 0 1-.22-70c2.39-16 5.86-32.46 11.44-47.74.49-.93 1-1.84 1.54-2.77l-.22.18.29-.3.38-.68.1-.17.08-.06 1-.6c.28-.24.54-.5.81-.75h.08l-.51.53c.47-.28.94-.55 1.42-.81.89-.27 1.78-.52 2.68-.73 5-.25 10 0 14.9 0l40.8-.07 135.09-.25 164.34-.29 142.52-.25c8.7 0 17.4 0 26.11.11-17.93 57.57-18.77 119.91-.22 177.95H567.42zm279.1-9.12l-1.23.83c-.42.36-.83.73-1.22 1.11.35-.34.66-.65 1-.93l-.71.48a70 70 0 0 1-7.51 4.22 79.82 79.82 0 0 1-11.7 3.17c-11.76 1-23.87.25-35.58.25h-14.1A274.59 274.59 0 0 1 760 840.2a270.78 270.78 0 0 1 0-62.34 272.91 272.91 0 0 1 16.68-60.8c1.78-4 3.65-8 5.62-12 4.93-9.88 5.76-20.76 0-30.59a30.51 30.51 0 0 0-26.16-15l-68.61.12-158.41.28-179.68.32-87.55.16v-443c0-20.35-.17-40.71 0-61.06 0-1.21.06-2.42.13-3.62a59.56 59.56 0 0 1 1.76-6.31 57.91 57.91 0 0 1 3.61-6.18c1.17-1.27 2.33-2.55 3.57-3.75-.53.27.46-.92 1.69-1.74l1.23-.84c.42-.36.83-.73 1.22-1.11-.35.34-.66.65-1 .93l.71-.48a70 70 0 0 1 7.51-4.22 80.1 80.1 0 0 1 11.38-3.1c6.14-.46 12.32-.31 18.47-.31h445.72c20.25 0 40.5-.13 60.75 0 2.24 0 4.46.12 6.68.29a80.58 80.58 0 0 1 11.51 3.15 69 69 0 0 1 6.93 3.85c.34.21 1 .65 1.64 1.13.93.79 2.15 1.82 2.59 2.24 1.24 1.2 2.45 2.44 3.59 3.73v.05c1.38 2.12 2.66 4.27 3.81 6.49a61.34 61.34 0 0 1 1.73 6.24c.46 6.81.12 13.77.12 20.52v694.01c0 1.31 0 2.61-.13 3.91a59.56 59.56 0 0 1-1.76 6.31 57.91 57.91 0 0 1-3.61 6.18c-1.17 1.27-2.33 2.55-3.57 3.76.57-.28-.42.91-1.65 1.74zm5-5.08c-.3.4-1.46 1.92-1.42 2-.09-.11.63-1.04 1.42-1.96z"/><path d="M183.66 722.65l-.38.24c-.22.19-.45.38-.65.59s-.59.61-.87.92l-.07.12c.47-.4 1.12-1 1.97-1.87zM509.6 318.81H769c15.85 0 31-13.94 30.3-30.3s-13.3-30.3-30.3-30.3H509.6c-15.85 0-31 13.94-30.3 30.3s13.31 30.3 30.3 30.3zm266.7 134.55H516.91c-15.85 0-31 13.94-30.3 30.3S499.92 514 516.91 514H776.3c15.85 0 31-13.94 30.3-30.31s-13.31-30.33-30.3-30.33zM337.62 288.51a30.3 30.3 0 1 0 60.6 0 30.3 30.3 0 1 0-60.6 0zM337.62 483.66a30.3 30.3 0 1 0 60.6 0 30.3 30.3 0 1 0-60.6 0z"/></svg>