<svg class="icon" viewBox="0 0 1024 1024" xmlns="http://www.w3.org/2000/svg" width="200" height="200"><defs><style/></defs><path d="M597.12 752.064a32 32 0 0 1 12.736 43.456A598.848 598.848 0 0 1 487.36 951.744a32 32 0 1 1-42.88-47.488A534.912 534.912 0 0 0 553.6 764.8a32 32 0 0 1 43.456-12.736zm173.568-103.68l5.76.832a32 32 0 0 1 23.36 38.72 715.776 715.776 0 0 1-99.2 225.216 32 32 0 1 1-53.312-35.52 651.776 651.776 0 0 0 90.368-205.056 32 32 0 0 1 33.024-24.256zM512 480a32 32 0 0 1 32 32c0 79.616-41.088 198.784-88.512 251.712a292.48 292.48 0 0 1-130.112 88.448 32 32 0 1 1-20.48-60.608 229.504 229.504 0 0 0 102.272-69.76C444.16 680.448 480 576.576 480 512a32 32 0 0 1 32-32zm-143.68 93.504a32 32 0 0 1 19.584 40.832 300.48 300.48 0 0 1-59.392 100.608A292.48 292.48 0 0 1 198.4 803.456a32 32 0 1 1-20.48-60.672 229.504 229.504 0 0 0 102.208-69.76 238.08 238.08 0 0 0 47.36-79.872 32 32 0 0 1 40.832-19.584zm344.448-462.08c134.4 67.904 227.008 199.168 244.096 347.904l1.6 16.64c.96 7.68 1.28 14.72 1.472 24.64V520l-.192 12.48a160 160 0 0 1-.64 9.472l-.512 4.416a443.712 443.712 0 0 1-41.92 157.312 32 32 0 0 1-57.792-27.52 380.352 380.352 0 0 0 33.92-115.584l2.112-20.672c.512-4.032.832-7.936.96-13.632L896 508.8c0-8.896-.192-14.912-.64-20.608l-.576-5.76a385.92 385.92 0 0 0-210.88-313.792 32 32 0 0 1 28.864-57.152zM512 341.12c87.872 0 161.408 66.56 169.92 152.32l.576 5.12.32 5.312.064 8.128c0 64.192-10.24 126.976-30.272 186.624a32 32 0 1 1-60.672-20.352 521.28 521.28 0 0 0 26.368-141.824l.576-27.136-.192-5.568-.256-2.624a106.88 106.88 0 0 0-124.224-94.528C442.88 415.04 405.12 459.328 405.12 512a32 32 0 0 1-64 0A170.432 170.432 0 0 1 512 341.12zm-111.872-84.8a32 32 0 0 1-11.712 43.712 227.584 227.584 0 0 0-60.608 50.944 238.208 238.208 0 0 0-60.48 145.92L266.88 512c0 60.416-31.36 115.2-81.792 145.92a32 32 0 1 1-33.28-54.656c31.552-19.2 51.072-53.312 51.072-91.264 0-76.8 27.52-148.096 76.608-202.944 21.568-25.664 47.68-47.552 76.928-64.448a32 32 0 0 1 43.712 11.712zM512 202.88c26.624 0 53.12 3.456 77.696 9.984A308.16 308.16 0 0 1 821.12 512a32 32 0 1 1-64 0 244.288 244.288 0 0 0-183.552-237.248A242.112 242.112 0 0 0 512 266.88a32 32 0 0 1 0-64zM168.448 275.2a32 32 0 0 1 11.52 43.776c-12.16 20.864-22.4 43.136-30.72 66.432A389.12 389.12 0 0 0 128 512a32 32 0 0 1-64 0c0-50.368 8.512-99.904 24.832-147.584 9.6-27.328 21.568-53.312 35.84-77.696a32 32 0 0 1 43.776-11.52zM512 64c29.184 0 57.856 2.816 86.016 8.256a32 32 0 0 1-12.16 62.784 388.096 388.096 0 0 0-116.416-4.608 381.888 381.888 0 0 0-149.568 49.088 371.648 371.648 0 0 0-44.416 29.76 32 32 0 1 1-39.36-50.368 434.509 434.509 0 0 1 51.84-34.88A444.992 444.992 0 0 1 512 64z"/></svg>