<svg class="icon" viewBox="0 0 1024 1024" xmlns="http://www.w3.org/2000/svg" width="200" height="200"><defs><style/></defs><path d="M961.341 497.633l-7.836 11.32c-28.3 43.537-117.987 78.367-240.327 98.394h-7.837v83.592h10.45c163.7-26.123 265.142-81.415 265.142-143.674a67.048 67.048 0 0 0-12.626-37.877zm0-161.089l-7.836 11.32c-28.3 43.537-117.987 78.367-240.327 98.395h-7.837v83.591h10.885c163.7-26.122 265.143-81.415 265.143-143.673a67.048 67.048 0 0 0-12.626-37.878zM306.54 529.415h10.884v-81.85h-7.837C187.681 427.973 97.994 390.966 69.26 349.17l-7.402-12.626-7.836 11.32a67.048 67.048 0 0 0-12.626 37.877c0 62.259 101.442 117.116 265.143 143.674zm0 160.653h10.884v-81.85h-7.837C187.681 588.626 97.994 551.619 69.26 509.823l-7.402-12.19-7.836 13.06a67.048 67.048 0 0 0-12.626 37.878c0 60.517 101.442 115.375 265.143 141.497zM961.34 815.456l-7.836 11.32C909.967 892.517 723.192 940.408 511.6 940.408S114.103 892.517 69.26 826.776l-7.402-11.32-7.836 11.32a67.048 67.048 0 0 0-12.626 37.877C41.396 953.905 247.763 1024 511.6 1024s470.204-70.095 470.204-159.347a67.048 67.048 0 0 0-12.626-37.877z"/><path d="M306.539 849.85h10.884V768h-7.837C187.681 748.408 97.994 711.401 69.26 669.605l-7.402-12.19-7.836 11.32a67.048 67.048 0 0 0-12.626 37.877c0 61.823 101.442 117.116 265.143 143.238zM961.34 657.415l-7.836 11.32c-28.3 43.537-117.987 78.367-240.327 98.394h-7.837v83.592h10.885c163.7-26.122 265.143-81.415 265.143-143.673a67.048 67.048 0 0 0-12.626-37.878zM50.539 185.034a461.061 185.034 0 1 0 922.122 0 461.061 185.034 0 1 0-922.122 0zM490.266 879.456a112.762 112.762 0 0 0 24.817 3.047 105.796 105.796 0 0 0 24.38-3.047h3.484v-53.987a137.143 137.143 0 0 0 71.837-35.7 92.735 92.735 0 0 0 26.557-67.048 99.265 99.265 0 0 0-6.966-39.184 76.626 76.626 0 0 0-19.156-26.993 114.939 114.939 0 0 0-29.606-18.285c-11.32-4.79-23.945-10.014-37.442-14.803l-32.653-11.32-16.109-6.095a71.401 71.401 0 0 1-13.496-6.966 28.735 28.735 0 0 1-8.708-9.143 25.687 25.687 0 0 1-3.047-13.061 23.946 23.946 0 0 1 3.918-14.368 28.3 28.3 0 0 1 10.449-8.272 48.762 48.762 0 0 1 15.673-4.353 207.673 207.673 0 0 1 43.538 0l20.898 3.047 17.415 4.354 16.544 5.66h3.483v-3.483a151.51 151.51 0 0 0 21.769-54.422v-3.918h-3.919c-15.238-4.354-29.17-7.837-43.537-10.45a322.177 322.177 0 0 0-39.62-6.095v-47.02h-3.482a107.537 107.537 0 0 0-49.197 0h-3.483v48.327a136.707 136.707 0 0 0-74.45 29.605 87.075 87.075 0 0 0-29.17 68.79 87.075 87.075 0 0 0 6.096 34.394 73.143 73.143 0 0 0 17.415 24.816 105.796 105.796 0 0 0 26.122 17.85 330.449 330.449 0 0 0 32.653 13.932l28.735 10.45 19.156 6.965a87.075 87.075 0 0 1 16.545 7.402 37.442 37.442 0 0 1 11.755 10.449 25.252 25.252 0 0 1 4.354 15.238 29.17 29.17 0 0 1-16.11 27.864 110.585 110.585 0 0 1-50.503 9.578 286.04 286.04 0 0 1-43.537-3.048 242.503 242.503 0 0 1-43.538-10.449h-3.918v3.919c-3.918 10.013-7.401 19.591-10.449 28.734a151.946 151.946 0 0 0-6.095 27.864v3.483h3.483l26.122 7.837c8.272 2.177 16.98 3.918 25.687 5.225s17.415 2.612 26.994 3.047h31.782v47.891z"/></svg>