<?xml version="1.0" standalone="no"?><!DOCTYPE svg PUBLIC "-//W3C//DTD SVG 1.1//EN" "http://www.w3.org/Graphics/SVG/1.1/DTD/svg11.dtd"><svg t="1608282940148" class="icon" viewBox="0 0 1024 1024" version="1.1" xmlns="http://www.w3.org/2000/svg" p-id="3741" xmlns:xlink="http://www.w3.org/1999/xlink" width="200" height="200"><defs><style type="text/css"></style></defs><path d="M961.341323 497.632653l-7.836735 11.319728c-28.29932 43.537415-117.986395 78.367347-240.32653 98.394558h-7.836735v83.591837h10.44898c163.70068-26.122449 265.142857-81.414966 265.142857-143.67347a67.047619 67.047619 0 0 0-12.625851-37.877551zM961.341323 336.544218l-7.836735 11.319728c-28.29932 43.537415-117.986395 78.367347-240.32653 98.394557h-7.836735v83.591837h10.884354c163.70068-26.122449 265.142857-81.414966 265.142857-143.673469A67.047619 67.047619 0 0 0 968.742683 348.29932zM306.538602 529.414966h10.884354v-81.85034h-7.836735C187.681459 427.972789 97.994384 390.965986 69.25969 349.170068l-7.40136-12.62585-7.836735 11.319728a67.047619 67.047619 0 0 0-12.62585 37.877551c0 62.258503 101.442177 117.115646 265.142857 143.673469zM306.538602 690.068027h10.884354v-81.85034h-7.836735c-121.904762-19.591837-211.591837-56.598639-240.326531-98.394558l-7.40136-12.190476-7.836735 13.061225a67.047619 67.047619 0 0 0-12.62585 37.877551c0 60.517007 101.442177 115.37415 265.142857 141.496598zM961.341323 815.455782l-7.836735 11.319728c-43.537415 65.741497-230.312925 113.632653-441.904762 113.632653S114.103228 892.517007 69.25969 826.77551l-7.40136-11.319728-7.836735 11.319728a67.047619 67.047619 0 0 0-12.62585 37.877551c0 89.251701 206.367347 159.346939 470.204081 159.346939s470.204082-70.095238 470.204082-159.346939a67.047619 67.047619 0 0 0-12.62585-37.877551z" p-id="3742"></path><path d="M306.538602 849.85034h10.884354v-81.85034h-7.836735c-121.904762-19.591837-211.591837-56.598639-240.326531-98.394558l-7.40136-12.190476-7.836735 11.319728a67.047619 67.047619 0 0 0-12.62585 37.877551c0 61.823129 101.442177 117.115646 265.142857 143.238095zM961.341323 657.414966l-7.836735 11.319728c-28.29932 43.537415-117.986395 78.367347-240.32653 98.394558h-7.836735v83.591836h10.884354c163.70068-26.122449 265.142857-81.414966 265.142857-143.673469a67.047619 67.047619 0 0 0-12.625851-37.877551z" p-id="3743"></path><path d="M50.538602 185.034014a461.061224 185.034014 0 1 0 922.122449 0 461.061224 185.034014 0 1 0-922.122449 0Z" p-id="3744"></path><path d="M490.266493 879.455782a112.761905 112.761905 0 0 0 24.816327 3.047619 105.795918 105.795918 0 0 0 24.380952-3.047619h3.482993v-53.986394a137.142857 137.142857 0 0 0 71.836735-35.700681 92.734694 92.734694 0 0 0 26.557823-67.047619 99.265306 99.265306 0 0 0-6.965986-39.183673 76.62585 76.62585 0 0 0-19.156463-26.993197 114.938776 114.938776 0 0 0-29.605442-18.285715c-11.319728-4.789116-23.945578-10.013605-37.442177-14.802721l-32.653061-11.319728-16.108844-6.095238a71.401361 71.401361 0 0 1-13.496599-6.965986 28.734694 28.734694 0 0 1-8.707483-9.142857 25.687075 25.687075 0 0 1-3.047619-13.061225 23.945578 23.945578 0 0 1 3.918368-14.367347 28.29932 28.29932 0 0 1 10.448979-8.272108 48.761905 48.761905 0 0 1 15.67347-4.353742 207.673469 207.673469 0 0 1 43.537415 0l20.897959 3.047619 17.414966 4.353742 16.544218 5.659864h3.482993v-3.482994a151.510204 151.510204 0 0 0 21.768707-54.421768v-3.918368h-3.918367c-15.238095-4.353741-29.170068-7.836735-43.537415-10.448979a322.176871 322.176871 0 0 0-39.619048-6.095238v-47.020409h-3.482993a107.537415 107.537415 0 0 0-49.197279 0h-3.482993v48.326531a136.707483 136.707483 0 0 0-74.44898 29.605442 87.07483 87.07483 0 0 0-29.170068 68.789116 87.07483 87.07483 0 0 0 6.095239 34.394558 73.142857 73.142857 0 0 0 17.414965 24.816326 105.795918 105.795918 0 0 0 26.122449 17.85034 330.44898 330.44898 0 0 0 32.653062 13.931973l28.734694 10.44898 19.156462 6.965986a87.07483 87.07483 0 0 1 16.544218 7.401361 37.442177 37.442177 0 0 1 11.755102 10.448979 25.251701 25.251701 0 0 1 4.353741 15.238095 29.170068 29.170068 0 0 1-16.108843 27.863946 110.585034 110.585034 0 0 1-50.503402 9.578231 286.040816 286.040816 0 0 1-43.537414-3.047619 242.503401 242.503401 0 0 1-43.537415-10.448979h-3.918368v3.918367c-3.918367 10.013605-7.401361 19.591837-10.448979 28.734694a151.945578 151.945578 0 0 0-6.095238 27.863946v3.482993h3.482993l26.122449 7.836734c8.272109 2.176871 16.979592 3.918367 25.687075 5.22449s17.414966 2.612245 26.993197 3.047619h31.782313v47.891157z" p-id="3745"></path></svg>