<svg class="icon" viewBox="0 0 1024 1024" xmlns="http://www.w3.org/2000/svg" width="200" height="200"><defs><style/></defs><path d="M741.76 358.4h33.579a38.4 38.4 0 0 1 34.944 22.4L851.2 512.896v270.037a38.4 38.4 0 0 1-38.4 38.4H217.6a38.4 38.4 0 0 1-38.4-38.4V513.92l40.96-132.992a38.4 38.4 0 0 1 34.987-22.528h33.493a32.128 32.128 0 0 1-.64-6.4V192a32 32 0 0 1 64 0v160a32 32 0 0 1-.64 6.4h327.68a32.128 32.128 0 0 1-.64-6.4V192a32 32 0 1 1 64 0v160a32 32 0 0 1-.64 6.4zm-468.31 67.541l-19.2 81.067a6.4 6.4 0 0 0 5.718 9.259h511.573a6.4 6.4 0 0 0 6.016-8.662l-14.421-81.066a6.4 6.4 0 0 0-5.973-4.139H279.168a6.4 6.4 0 0 0-5.717 3.541zM620.8 647.467c0 15.914 12.885 28.8 28.8 28.8H720a28.8 28.8 0 0 0 0-57.6h-70.4a28.8 28.8 0 0 0-28.8 28.8zm-102.4 0c0 15.914 12.885 28.8 28.8 28.8H560a28.8 28.8 0 0 0 0-57.6h-12.8a28.8 28.8 0 0 0-28.8 28.8zm-102.4 0c0 15.914 12.885 28.8 28.8 28.8h12.8a28.8 28.8 0 0 0 0-57.6h-12.8a28.8 28.8 0 0 0-28.8 28.8z"/></svg>