<svg class="icon" viewBox="0 0 1024 1024" xmlns="http://www.w3.org/2000/svg" width="200" height="200"><defs><style/></defs><path d="M802.406 0H85.3C38.298 0 0 36.813 0 81.971v791.757c0 45.005 38.298 82.022 85.3 82.022h419.532a34.714 34.714 0 0 0 35.43-34.099 34.714 34.714 0 0 0-35.43-34.048H85.299a13.978 13.978 0 0 1-14.182-13.619V81.92c0-7.475 6.4-13.62 14.182-13.62h717.107c7.783 0 14.132 6.145 14.132 13.62v404.275c0 18.893 15.872 34.1 35.481 34.1a34.714 34.714 0 0 0 35.43-34.1V81.971C887.707 36.864 849.409 0 802.407 0z"/><path d="M782.592 632.986c96.87 0 175.718 73.932 175.718 164.71s-78.848 164.71-175.718 164.71c-96.82 0-175.667-73.932-175.667-164.71s78.848-164.71 175.667-164.71zm0-61.594c-133.325 0-241.357 101.274-241.357 226.304S649.216 1024 782.592 1024 1024 922.726 1024 797.696 915.968 571.392 782.592 571.392zM136.55 583.475c0 19.866 17.255 36.045 38.4 36.045h321.024c21.146 0 38.4-16.18 38.4-36.045 0-19.814-17.254-36.045-38.4-36.045H174.95c-21.145 0-38.4 16.23-38.4 36.045zm0-171.315c0 19.866 17.255 36.045 38.4 36.045H587.47c21.145 0 38.4-16.18 38.4-36.045 0-19.866-17.255-36.045-38.4-36.045H175.002c-21.197 0-38.452 16.18-38.452 36.045zm0-171.315c0 19.865 17.255 36.045 38.4 36.045h503.757c21.146 0 38.4-16.18 38.4-36.045 0-19.866-17.254-36.045-38.4-36.045H175.002c-21.197 0-38.452 16.18-38.452 36.045z"/><path d="M887.347 783.462a20.992 20.992 0 0 0-5.273-16.076l-72.91-78.848a19.149 19.149 0 0 0-14.284-5.888 30.515 30.515 0 0 0-21.197 9.984c-10.957 11.776-12.8 28.262-4.25 37.58l23.194 24.986-82.073-.666c-15.258 0-27.648 13.312-27.904 29.543 0 7.833 2.867 15.411 7.936 21.094a27.648 27.648 0 0 0 19.558 8.909l81.92.614-23.654 24.781c-8.756 9.319-7.168 25.856 3.89 37.786 6.094 6.502 13.825 10.24 21.351 10.24a18.74 18.74 0 0 0 14.08-5.888l71.066-74.957 1.024-1.024 1.638-1.792a21.197 21.197 0 0 0 5.274-16.077c.205-.614.205-1.28.205-2.15.614-.87.614-1.536.41-2.15z"/></svg>