<svg class="icon" viewBox="0 0 1024 1024" xmlns="http://www.w3.org/2000/svg" width="200" height="200"><defs><style/></defs><path d="M808 528H232a72.16 72.16 0 0 1-72-72v-96a72.16 72.16 0 0 1 72-72h576a72.16 72.16 0 0 1 72 72v96a72.16 72.16 0 0 1-72 72zM232 336a24 24 0 0 0-24 24v96a24 24 0 0 0 24 24h576a24 24 0 0 0 24-24v-96a24 24 0 0 0-24-24z"/><path d="M520 320H376a88.16 88.16 0 0 1-88-88 104.16 104.16 0 0 1 104-104 152.16 152.16 0 0 1 152 152v16a24 24 0 0 1-24 24zM392 176a56 56 0 0 0-56 56 40 40 0 0 0 40 40h120a104.16 104.16 0 0 0-104-96z"/><path d="M664 320H520a24 24 0 0 1-24-24v-16a152.16 152.16 0 0 1 152-152 104.16 104.16 0 0 1 104 104 88.16 88.16 0 0 1-88 88zm-120-48h120a40 40 0 0 0 40-40 56 56 0 0 0-56-56 104.16 104.16 0 0 0-104 96zm216 608H280a56 56 0 0 1-56-56V536a56 56 0 0 1 56-56h480a56 56 0 0 1 56 56v288a56 56 0 0 1-56 56zM280 528a8 8 0 0 0-8 8v288a8 8 0 0 0 8 8h480a8 8 0 0 0 8-8V536a8 8 0 0 0-8-8z"/><path d="M520 880a24 24 0 0 1-24-24V312a24 24 0 0 1 48 0v544a24 24 0 0 1-24 24z"/></svg>