<?xml version="1.0" standalone="no"?><!DOCTYPE svg PUBLIC "-//W3C//DTD SVG 1.1//EN" "http://www.w3.org/Graphics/SVG/1.1/DTD/svg11.dtd"><svg t="1608282521559" class="icon" viewBox="0 0 1024 1024" version="1.1" xmlns="http://www.w3.org/2000/svg" p-id="1253" xmlns:xlink="http://www.w3.org/1999/xlink" width="200" height="200"><defs><style type="text/css"></style></defs><path d="M138.24 325.12a30.72 30.72 0 0 0-30.72 30.72v588.8a30.72 30.72 0 1 0 61.44 0v-588.8a30.72 30.72 0 0 0-30.72-30.72zM76.8 110.08a30.72 30.72 0 0 0-30.72 30.72v215.04a30.72 30.72 0 1 0 61.44 0v-215.04a30.72 30.72 0 0 0-30.72-30.72zM947.2 110.08a30.72 30.72 0 0 0-30.72 30.72v215.04a30.72 30.72 0 1 0 61.44 0v-215.04a30.72 30.72 0 0 0-30.72-30.72zM885.76 325.12a30.72 30.72 0 0 0-30.72 30.72v588.8a30.72 30.72 0 1 0 61.44 0v-588.8a30.72 30.72 0 0 0-30.72-30.72z" p-id="1254"></path><path d="M885.76 913.92H138.24a30.72 30.72 0 1 0 0 61.44h747.52a30.72 30.72 0 1 0 0-61.44zM696.32 499.2a30.72 30.72 0 0 0-30.72 30.72v122.88a30.72 30.72 0 1 0 61.44 0v-122.88a30.72 30.72 0 0 0-30.72-30.72zM327.68 499.2a30.72 30.72 0 0 0-30.72 30.72v122.88a30.72 30.72 0 1 0 61.44 0v-122.88a30.72 30.72 0 0 0-30.72-30.72z" p-id="1255"></path><path d="M696.32 499.2H327.68a30.72 30.72 0 1 0 0 61.44h368.64a30.72 30.72 0 1 0 0-61.44zM696.32 622.08H327.68a30.72 30.72 0 1 0 0 61.44h368.64a30.72 30.72 0 1 0 0-61.44zM947.2 325.12H76.8a30.72 30.72 0 1 0 0 61.44h870.4a30.72 30.72 0 1 0 0-61.44zM947.2 110.08H76.8a30.72 30.72 0 1 0 0 61.44h870.4a30.72 30.72 0 1 0 0-61.44z" p-id="1256"></path></svg>