<svg class="icon" viewBox="0 0 1024 1024" xmlns="http://www.w3.org/2000/svg" width="200" height="200"><defs><style/></defs><path d="M138.24 325.12a30.72 30.72 0 0 0-30.72 30.72v588.8a30.72 30.72 0 1 0 61.44 0v-588.8a30.72 30.72 0 0 0-30.72-30.72zM76.8 110.08a30.72 30.72 0 0 0-30.72 30.72v215.04a30.72 30.72 0 1 0 61.44 0V140.8a30.72 30.72 0 0 0-30.72-30.72zm870.4 0a30.72 30.72 0 0 0-30.72 30.72v215.04a30.72 30.72 0 1 0 61.44 0V140.8a30.72 30.72 0 0 0-30.72-30.72zm-61.44 215.04a30.72 30.72 0 0 0-30.72 30.72v588.8a30.72 30.72 0 1 0 61.44 0v-588.8a30.72 30.72 0 0 0-30.72-30.72z"/><path d="M885.76 913.92H138.24a30.72 30.72 0 1 0 0 61.44h747.52a30.72 30.72 0 1 0 0-61.44zM696.32 499.2a30.72 30.72 0 0 0-30.72 30.72V652.8a30.72 30.72 0 1 0 61.44 0V529.92a30.72 30.72 0 0 0-30.72-30.72zm-368.64 0a30.72 30.72 0 0 0-30.72 30.72V652.8a30.72 30.72 0 1 0 61.44 0V529.92a30.72 30.72 0 0 0-30.72-30.72z"/><path d="M696.32 499.2H327.68a30.72 30.72 0 1 0 0 61.44h368.64a30.72 30.72 0 1 0 0-61.44zm0 122.88H327.68a30.72 30.72 0 1 0 0 61.44h368.64a30.72 30.72 0 1 0 0-61.44zM947.2 325.12H76.8a30.72 30.72 0 1 0 0 61.44h870.4a30.72 30.72 0 1 0 0-61.44zm0-215.04H76.8a30.72 30.72 0 1 0 0 61.44h870.4a30.72 30.72 0 1 0 0-61.44z"/></svg>