<svg class="icon" viewBox="0 0 1060 1024" xmlns="http://www.w3.org/2000/svg" width="207.031" height="200"><defs><style/></defs><path d="M515.763 958.87c246.966 0 447.17-200.203 447.17-447.17 0-246.966-200.204-447.17-447.17-447.17-246.967 0-447.17 200.204-447.17 447.17 0 246.967 200.203 447.17 447.17 447.17zm0 63.882c-282.252 0-511.052-228.8-511.052-511.051C4.71 229.449 233.51.649 515.763.649c282.238 0 511.051 228.8 511.051 511.052 0 282.25-228.8 511.051-511.051 511.051zm0 0"/><path d="M547.703 192.293c0-17.642-14.298-31.94-31.94-31.94s-31.941 14.298-31.941 31.94v343.363a31.981 31.981 0 0 0 10.855 24.018L686.32 727.363c13.263 11.64 33.463 10.318 45.104-2.932 11.64-13.263 10.318-33.463-2.932-45.104l-180.79-158.169V192.293zm0 0"/></svg>