<svg class="icon" viewBox="0 0 1024 1024" xmlns="http://www.w3.org/2000/svg" width="200" height="200"><defs><style/></defs><path d="M520 944a24 24 0 0 1-14.4-4.8l-22.72-16.96C346.24 820.16 176 693.12 176 568V276.32a71.52 71.52 0 0 1 61.6-71.04A395.84 395.84 0 0 0 359.68 160c48-23.84 96-48 160-48s113.92 28.8 161.6 56.64a361.6 361.6 0 0 0 121.44 52.16A72.8 72.8 0 0 1 864 292v276c0 139.36-167.68 257.44-302.56 352l-27.52 19.36A23.68 23.68 0 0 1 520 944zm0-784c-52.48 0-94.4 20.96-138.72 43.2a442.24 442.24 0 0 1-136.64 49.44A24 24 0 0 0 224 276.32V568c0 101.12 166.24 225.12 288 315.84l8.8 6.56 13.44-9.44C659.52 792.48 816 682.56 816 568V292a24.8 24.8 0 0 0-21.12-23.84 404.16 404.16 0 0 1-137.44-58.08C613.28 184.32 571.68 160 520 160z"/><path d="M520 624a120 120 0 1 1 120-120 120 120 0 0 1-120 120zm0-192a72 72 0 1 0 72 72 72.16 72.16 0 0 0-72-72z"/></svg>