<svg class="icon" viewBox="0 0 1024 1024" xmlns="http://www.w3.org/2000/svg" width="200" height="200"><defs><style/></defs><path d="M273.94 301.729a42.607 42.607 0 0 0-57.946 0L74.54 444.035a80.1 80.1 0 0 0-21.303 54.963v3.835a80.527 80.527 0 0 0 21.303 54.962l141.454 142.733a42.607 42.607 0 0 0 57.094 0 42.607 42.607 0 0 0 0-57.093L130.78 501.128 273.94 358.822a42.607 42.607 0 0 0 0-57.093zm533.436 6.817a42.607 42.607 0 0 0-55.815 0 42.607 42.607 0 0 0 0 55.815l139.75 139.75-139.75 139.324a39.624 39.624 0 0 0 55.815 55.815l139.75-139.324a85.214 85.214 0 0 0 0-111.63zm-488.7 246.267l67.745 74.988a67.319 67.319 0 0 0 97.996 0l28.12-28.12a39.624 39.624 0 0 0-55.814-55.816l-20.878 20.878-61.353-62.632 298.247-298.248a108.647 108.647 0 1 0-60.076-94.16 107.795 107.795 0 0 0 8.948 42.606L318.677 455.113a67.319 67.319 0 0 0 0 99.7z"/><path d="M210.456 912.283a111.204 111.204 0 1 0 216.016-36.641l303.36-303.36a68.597 68.597 0 0 0 0-99.7l-71.153-78.397a68.597 68.597 0 0 0-99.7 0l-21.304 21.304a40.476 40.476 0 0 0 57.093 57.093l21.304-21.304 63.91 63.91-301.656 301.656a110.778 110.778 0 0 0-167.87 95.44z"/></svg>