<?xml version="1.0" standalone="no"?><!DOCTYPE svg PUBLIC "-//W3C//DTD SVG 1.1//EN" "http://www.w3.org/Graphics/SVG/1.1/DTD/svg11.dtd"><svg t="1608282935863" class="icon" viewBox="0 0 1024 1024" version="1.1" xmlns="http://www.w3.org/2000/svg" p-id="3471" xmlns:xlink="http://www.w3.org/1999/xlink" width="200" height="200"><defs><style type="text/css"></style></defs><path d="M273.939644 301.728654a42.606751 42.606751 0 0 0-57.945181 0L74.54005 444.035202a80.100692 80.100692 0 0 0-21.303376 54.962709v3.834607a80.526759 80.526759 0 0 0 21.303376 54.962709l141.454413 142.732616a42.606751 42.606751 0 0 0 57.093046 0 42.606751 42.606751 0 0 0 0-57.093047L130.780961 501.128248l143.158683-142.306548a42.606751 42.606751 0 0 0 0-57.093046zM807.376166 308.545734a42.606751 42.606751 0 0 0-55.814844 0 42.606751 42.606751 0 0 0 0 55.814844l139.750143 139.750143-139.750143 139.324075a39.624278 39.624278 0 0 0 55.814844 55.814844l139.750143-139.324075a85.213502 85.213502 0 0 0 0-111.629688zM318.676733 554.812755l67.744734 74.987881a67.318666 67.318666 0 0 0 97.995527 0l28.120455-28.120455a39.624278 39.624278 0 0 0-55.814843-55.814844l-20.877308 20.877308-61.353722-62.631924 298.247257-298.247256a108.647215 108.647215 0 1 0-60.075519-94.16092 107.79508 107.79508 0 0 0 8.947418 42.606751l-302.933999 300.803661a67.318666 67.318666 0 0 0 0 99.699798z" p-id="3472"></path><path d="M210.455585 912.283395a111.20362 111.20362 0 1 0 216.016228-36.641806l303.360066-303.360067a68.596869 68.596869 0 0 0 0-99.699797l-71.153274-78.396421a68.596869 68.596869 0 0 0-99.699797 0l-21.303376 21.303375a40.476413 40.476413 0 0 0 57.093047 57.093046l21.303375-21.303375 63.910127 63.910126-301.655797 301.655797a110.777552 110.777552 0 0 0-167.870599 95.439122z" p-id="3473"></path></svg>