<svg class="icon" viewBox="0 0 1159 1024" xmlns="http://www.w3.org/2000/svg" width="226.367" height="200"><defs><style/></defs><path d="M1147.54 864.75a112.73 112.73 0 0 0-104.542-69.855 111.767 111.767 0 0 0-74.671 28.905l-121.884-70.818V478.864L609.419 342.046V224.498a113.694 113.694 0 1 0-70.336-4.818v121.884l-235.578 137.3v266.892l-110.803 66a111.767 111.767 0 0 0-138.745-13.97 112.73 112.73 0 0 0 79.489 206.672 112.73 112.73 0 0 0 91.052-111.285 100.205 100.205 0 0 0 0-16.862l111.285-64.073 240.877 140.19 235.096-136.336 121.884 70.336a110.322 110.322 0 0 0-2.89 23.606 113.212 113.212 0 1 0 217.27-43.84zM740.456 500.542l-164.76 96.35-166.206-96.35 164.76-96.351zm34.204 61.183v192.702l-165.242 96.35V658.077z"/></svg>