<?xml version="1.0" standalone="no"?><!DOCTYPE svg PUBLIC "-//W3C//DTD SVG 1.1//EN" "http://www.w3.org/Graphics/SVG/1.1/DTD/svg11.dtd"><svg t="1608282951339" class="icon" viewBox="0 0 1024 1024" version="1.1" xmlns="http://www.w3.org/2000/svg" p-id="4148" xmlns:xlink="http://www.w3.org/1999/xlink" width="200" height="200"><defs><style type="text/css"></style></defs><path d="M605.546667 786.773333H290.666667a39.893333 39.893333 0 1 0 0 79.786667H605.546667a39.893333 39.893333 0 1 0 0-79.786667zM290.666667 551.68h189.013333a39.893333 39.893333 0 1 0 0-79.786667H290.666667a39.893333 39.893333 0 1 0 0 79.786667zM250.56 669.44a40.106667 40.106667 0 0 0 39.68 40.106667h441.173333a39.893333 39.893333 0 1 0 0-79.786667H290.666667a40.106667 40.106667 0 0 0-40.106667 39.68z" p-id="4149"></path><path d="M890.56 189.013333H227.946667a54.613333 54.613333 0 0 1 0-109.226666h662.613333a39.893333 39.893333 0 0 0 0-79.786667H227.946667A134.4 134.4 0 0 0 93.546667 134.4v786.773333A102.826667 102.826667 0 0 0 196.373333 1024h629.333334a102.826667 102.826667 0 0 0 102.826666-102.826667V228.693333a40.106667 40.106667 0 0 0-37.973333-39.68zM668.266667 396.8l102.826666 77.653333V268.8h76.8v652.373333a23.04 23.04 0 0 1-23.04 23.04H196.373333a23.04 23.04 0 0 1-23.04-23.04V256a133.973333 133.973333 0 0 0 54.613334 11.52h337.92v205.653333z" p-id="4150"></path></svg>