<svg class="icon" viewBox="0 0 1024 1024" xmlns="http://www.w3.org/2000/svg" width="200" height="200"><defs><style/></defs><path d="M605.547 786.773h-314.88a39.893 39.893 0 1 0 0 79.787h314.88a39.893 39.893 0 1 0 0-79.787zM290.667 551.68H479.68a39.893 39.893 0 1 0 0-79.787H290.667a39.893 39.893 0 1 0 0 79.787zM250.56 669.44a40.107 40.107 0 0 0 39.68 40.107h441.173a39.893 39.893 0 1 0 0-79.787H290.667a40.107 40.107 0 0 0-40.107 39.68z"/><path d="M890.56 189.013H227.947a54.613 54.613 0 0 1 0-109.226H890.56a39.893 39.893 0 0 0 0-79.787H227.947a134.4 134.4 0 0 0-134.4 134.4v786.773A102.827 102.827 0 0 0 196.373 1024h629.334a102.827 102.827 0 0 0 102.826-102.827v-692.48a40.107 40.107 0 0 0-37.973-39.68zM668.267 396.8l102.826 77.653V268.8h76.8v652.373a23.04 23.04 0 0 1-23.04 23.04h-628.48a23.04 23.04 0 0 1-23.04-23.04V256a133.973 133.973 0 0 0 54.614 11.52h337.92v205.653z"/></svg>