<?xml version="1.0" standalone="no"?><!DOCTYPE svg PUBLIC "-//W3C//DTD SVG 1.1//EN" "http://www.w3.org/Graphics/SVG/1.1/DTD/svg11.dtd"><svg t="1608282961566" class="icon" viewBox="0 0 1024 1024" version="1.1" xmlns="http://www.w3.org/2000/svg" p-id="4556" xmlns:xlink="http://www.w3.org/1999/xlink" width="200" height="200"><defs><style type="text/css"></style></defs><path d="M940.321614 1024h-858.700209a60.109015 60.109015 0 0 1-60.109015-60.109015v-901.63522A60.109015 60.109015 0 0 1 81.621405 0h858.700209a60.109015 60.109015 0 0 1 60.109015 60.109015v901.63522a60.109015 60.109015 0 0 1-60.109015 62.255765z m-841.526205-77.283019H923.14761V79.429769H98.795409z" p-id="4557"></path><path d="M808.081782 757.802935h-167.446541a29.195807 29.195807 0 0 1 0-57.962264h167.446541a29.195807 29.195807 0 0 1 0 57.962264z" p-id="4558"></path><path d="M808.081782 766.389937h-167.446541a37.782809 37.782809 0 0 1 0-75.136268h167.446541a37.782809 37.782809 0 0 1 0 75.136268z m-167.446541-57.962264a20.608805 20.608805 0 0 0 0 40.78826h167.446541a20.608805 20.608805 0 0 0 0-40.78826zM808.081782 613.11195h-249.452411a29.195807 29.195807 0 0 1 0-57.962264h249.452411a29.195807 29.195807 0 0 1 0 57.962264z" p-id="4559"></path><path d="M808.081782 621.698952h-249.452411a37.782809 37.782809 0 0 1 0-75.136269h249.452411a37.782809 37.782809 0 0 1 0 75.136269z m-250.740461-57.962264a20.608805 20.608805 0 0 0 0 40.78826h250.740461a20.608805 20.608805 0 0 0 0-40.78826zM808.081782 467.991614h-249.452411a28.981132 28.981132 0 0 1 0-57.962264h249.452411a28.981132 28.981132 0 0 1 0 57.962264z" p-id="4560"></path><path d="M808.081782 476.578616h-249.452411a37.782809 37.782809 0 0 1 0-75.136268h249.452411a37.782809 37.782809 0 0 1 0 75.136268z m-249.452411-57.962264a20.608805 20.608805 0 0 0 0 40.78826h249.452411a20.608805 20.608805 0 0 0 0-40.78826zM808.081782 323.300629h-249.452411a29.195807 29.195807 0 0 1 0-57.962264h249.452411a29.195807 29.195807 0 0 1 0 57.962264z" p-id="4561"></path><path d="M808.081782 331.887631h-249.452411a37.782809 37.782809 0 0 1 0-75.136268h249.452411a37.782809 37.782809 0 0 1 0 75.136268z m-249.452411-57.962264a20.608805 20.608805 0 0 0 0 40.78826h249.452411a20.608805 20.608805 0 0 0 0-40.78826zM335.796667 680.519916v61.826415a114.636478 114.636478 0 0 1-27.049057 3.005451 122.36478 122.36478 0 0 1-27.478407-3.005451v-58.820964h-42.07631c-10.733753-3.005451-21.038155-3.005451-32.201258-3.005451s-19.320755-3.434801-29.195807-6.010901l-30.054507-9.016353a169.163941 169.163941 0 0 1 6.869601-30.913207q5.152201-15.885954 12.021803-32.630608a279.506918 279.506918 0 0 0 49.375262 12.451153 334.893082 334.893082 0 0 0 49.375262 3.434801 132.239832 132.239832 0 0 0 60.967715-11.592453 38.641509 38.641509 0 0 0 21.467506-36.924109 35.206709 35.206709 0 0 0-6.010902-21.038155 48.516562 48.516562 0 0 0-15.027254-13.739203 105.620126 105.620126 0 0 0-20.179454-9.016353l-21.896856-8.157652-33.059958-12.451153a370.958491 370.958491 0 0 1-37.353459-15.885954 118.071279 118.071279 0 0 1-29.195807-19.750104 78.571069 78.571069 0 0 1-18.891405-27.049057 96.174423 96.174423 0 0 1-6.440251-37.782809 94.886373 94.886373 0 0 1 31.771907-75.565619 156.283438 156.283438 0 0 1 89.734172-34.777358v-55.815514a114.207128 114.207128 0 0 1 27.049057-3.005451 128.805031 128.805031 0 0 1 27.478407 3.005451v55.815514a375.681342 375.681342 0 0 1 48.087211 6.010901q23.184906 4.722851 48.945912 12.021803a168.734591 168.734591 0 0 1-20.179455 60.538365l-18.891404-6.440252a167.017191 167.017191 0 0 0-20.608805-5.152201l-24.902306-3.434801h-31.342558a180.327044 180.327044 0 0 0-21.467505 0 62.685115 62.685115 0 0 0-19.750105 5.581552 38.641509 38.641509 0 0 0-14.597904 12.021803 33.059958 33.059958 0 0 0-5.581551 19.750104 35.206709 35.206709 0 0 0 4.293501 18.032705 38.641509 38.641509 0 0 0 12.021803 12.451153 85.870021 85.870021 0 0 0 16.744654 8.587002l18.891405 6.869602 37.353459 13.309853q23.614256 8.587002 42.93501 17.174004a124.08218 124.08218 0 0 1 33.059958 20.608805 82.86457 82.86457 0 0 1 21.038156 29.195807 109.054927 109.054927 0 0 1 7.728301 42.935011 101.755975 101.755975 0 0 1-27.907756 73.418868 154.995388 154.995388 0 0 1-85.870021 42.93501z" p-id="4562"></path></svg>