<svg class="icon" viewBox="0 0 1024 1024" xmlns="http://www.w3.org/2000/svg" width="200" height="200"><defs><style/></defs><path d="M940.322 1024h-858.7a60.109 60.109 0 0 1-60.11-60.109V62.256A60.109 60.109 0 0 1 81.622 0h858.7a60.109 60.109 0 0 1 60.109 60.109v901.635A60.109 60.109 0 0 1 940.32 1024zM98.795 946.717h824.353V79.43H98.795z"/><path d="M808.082 757.803H640.635a29.196 29.196 0 0 1 0-57.962h167.447a29.196 29.196 0 0 1 0 57.962z"/><path d="M808.082 766.39H640.635a37.783 37.783 0 0 1 0-75.136h167.447a37.783 37.783 0 0 1 0 75.136zm-167.447-57.962a20.609 20.609 0 0 0 0 40.788h167.447a20.609 20.609 0 0 0 0-40.788zm167.447-95.316H558.629a29.196 29.196 0 0 1 0-57.962h249.453a29.196 29.196 0 0 1 0 57.962z"/><path d="M808.082 621.699H558.629a37.783 37.783 0 0 1 0-75.136h249.453a37.783 37.783 0 0 1 0 75.136zm-250.74-57.962a20.609 20.609 0 0 0 0 40.788h250.74a20.609 20.609 0 0 0 0-40.788zm250.74-95.745H558.629a28.981 28.981 0 0 1 0-57.963h249.453a28.981 28.981 0 0 1 0 57.963z"/><path d="M808.082 476.579H558.629a37.783 37.783 0 0 1 0-75.137h249.453a37.783 37.783 0 0 1 0 75.137zm-249.453-57.963a20.609 20.609 0 0 0 0 40.789h249.453a20.609 20.609 0 0 0 0-40.789zm249.453-95.315H558.629a29.196 29.196 0 0 1 0-57.963h249.453a29.196 29.196 0 0 1 0 57.963z"/><path d="M808.082 331.888H558.629a37.783 37.783 0 0 1 0-75.137h249.453a37.783 37.783 0 0 1 0 75.137zm-249.453-57.963a20.609 20.609 0 0 0 0 40.789h249.453a20.609 20.609 0 0 0 0-40.789zM335.797 680.52v61.826a114.636 114.636 0 0 1-27.05 3.006 122.365 122.365 0 0 1-27.478-3.006v-58.82h-42.076c-10.734-3.006-21.038-3.006-32.201-3.006s-19.321-3.435-29.196-6.011l-30.055-9.016a169.164 169.164 0 0 1 6.87-30.914q5.152-15.885 12.022-32.63a279.507 279.507 0 0 0 49.375 12.451 334.893 334.893 0 0 0 49.375 3.435 132.24 132.24 0 0 0 60.968-11.593 38.642 38.642 0 0 0 21.467-36.924 35.207 35.207 0 0 0-6.01-21.038 48.517 48.517 0 0 0-15.028-13.74 105.62 105.62 0 0 0-20.18-9.015l-21.896-8.158-33.06-12.451a370.958 370.958 0 0 1-37.353-15.886 118.071 118.071 0 0 1-29.196-19.75 78.571 78.571 0 0 1-18.892-27.05 96.174 96.174 0 0 1-6.44-37.782 94.886 94.886 0 0 1 31.772-75.566 156.283 156.283 0 0 1 89.734-34.777v-55.816a114.207 114.207 0 0 1 27.05-3.005 128.805 128.805 0 0 1 27.478 3.005v55.816a375.681 375.681 0 0 1 48.087 6.01q23.185 4.724 48.946 12.023a168.735 168.735 0 0 1-20.18 60.538l-18.891-6.44a167.017 167.017 0 0 0-20.609-5.153l-24.902-3.434h-31.343a180.327 180.327 0 0 0-21.467 0 62.685 62.685 0 0 0-19.75 5.581 38.642 38.642 0 0 0-14.598 12.022 33.06 33.06 0 0 0-5.582 19.75 35.207 35.207 0 0 0 4.294 18.033 38.642 38.642 0 0 0 12.022 12.451 85.87 85.87 0 0 0 16.744 8.587l18.892 6.87 37.353 13.31q23.614 8.586 42.935 17.173a124.082 124.082 0 0 1 33.06 20.61 82.865 82.865 0 0 1 21.038 29.195 109.055 109.055 0 0 1 7.728 42.935 101.756 101.756 0 0 1-27.907 73.419 154.995 154.995 0 0 1-85.87 42.935z"/></svg>