<svg class="icon" viewBox="0 0 1024 1024" xmlns="http://www.w3.org/2000/svg" width="200" height="200"><defs><style/></defs><path d="M96 652.8c-19.2 0-38.4-19.2-38.4-38.4V409.6c0-19.2 19.2-38.4 38.4-38.4s38.4 19.2 38.4 38.4v204.8c0 25.6-12.8 38.4-38.4 38.4z"/><path d="M1017.6 512c0-51.2-32-89.6-76.8-102.4V160c0-83.2-64-147.2-147.2-147.2H204.8c-83.2 0-147.2 64-147.2 147.2v19.2c0 19.2 19.2 38.4 38.4 38.4s38.4-19.2 38.4-38.4V160c0-38.4 32-70.4 70.4-70.4H800c38.4 0 70.4 32 70.4 70.4v249.6c-38.4 12.8-76.8 57.6-76.8 102.4 0 51.2 32 89.6 76.8 102.4V864c0 38.4-32 70.4-70.4 70.4H204.8c-38.4 0-70.4-32-70.4-70.4v-19.2c0-19.2-19.2-38.4-38.4-38.4s-38.4 19.2-38.4 38.4V864c0 83.2 64 147.2 147.2 147.2H800c83.2 0 147.2-64 147.2-147.2V620.8c44.8-19.2 70.4-57.6 70.4-108.8zm-108.8 51.2c-25.6 0-51.2-19.2-51.2-51.2 0-25.6 19.2-51.2 51.2-51.2S960 480 960 512c-6.4 25.6-25.6 51.2-51.2 51.2z"/><path d="M659.2 332.8H345.6c-19.2 0-38.4-12.8-38.4-38.4 0-19.2 19.2-38.4 38.4-38.4h313.6c19.2 0 38.4 19.2 38.4 38.4 0 25.6-19.2 38.4-38.4 38.4zm0 217.6H345.6c-19.2 0-38.4-12.8-38.4-38.4 0-19.2 19.2-38.4 38.4-38.4h313.6c19.2 0 38.4 19.2 38.4 38.4 0 25.6-19.2 38.4-38.4 38.4zm0 217.6H345.6c-19.2 0-38.4-19.2-38.4-38.4s19.2-38.4 38.4-38.4h313.6c19.2 0 38.4 19.2 38.4 38.4 0 25.6-19.2 38.4-38.4 38.4zM153.6 768H44.8c-19.2 0-38.4-19.2-38.4-38.4s19.2-38.4 38.4-38.4h108.8c19.2 0 38.4 19.2 38.4 38.4 0 25.6-19.2 38.4-38.4 38.4zM153.6 332.8H44.8c-25.6 0-38.4-12.8-38.4-38.4 0-19.2 12.8-38.4 38.4-38.4h108.8c19.2 0 38.4 19.2 38.4 38.4 0 25.6-19.2 38.4-38.4 38.4z"/></svg>