<?xml version="1.0" standalone="no"?><!DOCTYPE svg PUBLIC "-//W3C//DTD SVG 1.1//EN" "http://www.w3.org/Graphics/SVG/1.1/DTD/svg11.dtd"><svg t="1608289217417" class="icon" viewBox="0 0 1024 1024" version="1.1" xmlns="http://www.w3.org/2000/svg" p-id="5541" xmlns:xlink="http://www.w3.org/1999/xlink" width="200" height="200"><defs><style type="text/css"></style></defs><path d="M853.36 85.32H256.11c-23.47 0-42.66 19.2-42.66 42.66h-42.66c-23.47 0-42.66 19.2-42.66 42.66s19.2 42.66 42.66 42.66h42.66v85.32h-42.66c-23.47 0-42.66 19.2-42.66 42.66s19.2 42.66 42.66 42.66h42.66v85.32h-42.66c-23.47 0-42.66 19.2-42.66 42.66s19.2 42.66 42.66 42.66h42.66v85.32h-42.66c-23.47 0-42.66 19.2-42.66 42.66s19.2 42.66 42.66 42.66h42.66v85.32h-42.66c-23.47 0-42.66 19.2-42.66 42.66s19.2 42.66 42.66 42.66h42.66c0 23.46 19.2 42.66 42.66 42.66h597.25c23.47 0 42.66-19.2 42.66-42.66V127.98c0-23.46-19.2-42.66-42.66-42.66zM810.7 853.21H298.77V170.64H810.7v682.57z" fill="#1A1A1A" p-id="5542"></path><path d="M426.75 725.23m-42.66 0a42.66 42.66 0 1 0 85.32 0 42.66 42.66 0 1 0-85.32 0Z" fill="#1A1A1A" p-id="5543"></path><path d="M554.73 725.23m-42.66 0a42.66 42.66 0 1 0 85.32 0 42.66 42.66 0 1 0-85.32 0Z" fill="#1A1A1A" p-id="5544"></path><path d="M682.72 725.23m-42.66 0a42.66 42.66 0 1 0 85.32 0 42.66 42.66 0 1 0-85.32 0Z" fill="#1A1A1A" p-id="5545"></path><path d="M426.75 597.25c23.56 0 42.66-19.1 42.66-42.66V401.61l183.14 183.14a42.605 42.605 0 0 0 30.16 12.5c5.5 0 11.04-1.06 16.33-3.25 15.94-6.6 26.33-22.16 26.33-39.41V298.62c0-23.56-19.1-42.66-42.66-42.66-23.56 0-42.66 19.1-42.66 42.66V451.6L456.91 268.46a42.62 42.62 0 0 0-46.49-9.25c-15.94 6.6-26.33 22.16-26.33 39.41v255.96c0 23.57 19.1 42.67 42.66 42.67z" fill="#1A1A1A" p-id="5546"></path></svg>