<svg class="icon" viewBox="0 0 1024 1024" xmlns="http://www.w3.org/2000/svg" width="200" height="200"><defs><style/></defs><path d="M322.866 445.888c-17.275 0-31.272 14.002-31.272 31.273v30.508c0 17.27 13.997 31.273 31.272 31.273s31.273-14.002 31.273-31.273v-30.508c0-17.27-13.997-31.273-31.273-31.273zM566.946 445.888c-17.275 0-31.272 14.002-31.272 31.273v30.508c0 17.27 13.997 31.273 31.272 31.273 17.276 0 31.273-14.002 31.273-31.273v-30.508c0-17.27-13.998-31.273-31.273-31.273zM522.028 587.519c-14.282-9.437-33.613-5.42-43.213 8.754-.132.199-13.63 19.79-34.224 19.79-20.014 0-32.474-18.14-33.308-19.398-9.192-14.43-28.32-18.833-42.887-9.772-14.669 9.115-19.178 28.402-10.058 43.07 11.229 18.065 42.022 48.645 86.254 48.645 44.017 0 75.197-30.352 86.69-48.283 9.232-14.41 5.05-33.395-9.254-42.806z"/><path d="M787.392 317.513c-.315-.009-.61-.093-.927-.093h-571.45c-17.275 0-31.272 14.002-31.272 31.273 0 17.27 13.997 31.272 31.272 31.272h540.178v205.789c0 171.874-139.829 311.708-311.703 311.708s-311.715-139.835-311.715-311.71v-237.06c0-17.27-13.997-31.272-31.272-31.272s-31.272 14.002-31.272 31.273v237.06c0 206.365 167.895 374.254 374.258 374.254 182.992 0 335.622-132.052 367.87-305.845 28.642-5.94 58.463-20.68 82.359-41.412 39.588-34.352 61.394-82.89 61.394-136.673.001-89.777-71.971-157.563-167.72-158.564zm30.306 269.76c.002-.51.04-1.01.04-1.52V384.2c40.74 10.685 74.83 41.746 74.83 91.875 0 61.504-39.568 97.013-74.87 111.197zM227.618 263.462a31.157 31.157 0 0 0 18.64 6.174c9.548 0 18.975-4.357 25.113-12.612l105.92-142.46c10.312-13.86 7.421-33.452-6.434-43.758-13.854-10.282-33.43-7.432-43.752 6.438l-105.92 142.46c-10.313 13.86-7.421 33.452 6.433 43.758zM415.516 263.091a31.144 31.144 0 0 0 19.127 6.545c9.345 0 18.589-4.169 24.747-12.13l53.8-69.49c10.577-13.657 8.073-33.3-5.578-43.87-13.661-10.577-33.298-8.068-43.874 5.583l-53.8 69.492c-10.577 13.656-8.073 33.298 5.578 43.87zM577.842 263.091a31.144 31.144 0 0 0 19.127 6.545c9.345 0 18.589-4.169 24.747-12.13l53.8-69.49c10.577-13.657 8.073-33.3-5.578-43.87-13.661-10.577-33.298-8.068-43.874 5.583l-53.8 69.492c-10.577 13.656-8.073 33.298 5.578 43.87z"/></svg>