<svg class="icon" viewBox="0 0 1024 1024" xmlns="http://www.w3.org/2000/svg" width="200" height="200"><defs><style/></defs><path d="M540.924 1009.213l11.83-11.83 40.664-44.36c42.143-46.58 84.286-97.595 123.471-147.87a1248.762 1248.762 0 0 0 133.084-221.806 478.36 478.36 0 0 0 50.275-195.188 388.529 388.529 0 0 0-777.057.74 508.673 508.673 0 0 0 69.5 226.24 1469.089 1469.089 0 0 0 113.86 180.402c39.185 53.972 81.328 105.727 123.47 154.524l40.665 45.84 11.83 12.569 4.436 4.436a35.489 35.489 0 0 0 50.275 0l4.436-4.436zm0-45.1l-7.393-1.48-11.09-11.829-39.186-44.36c-40.664-47.32-81.329-97.595-119.775-147.87a1404.765 1404.765 0 0 1-107.945-175.966 443.61 443.61 0 0 1-58.409-193.71 317.92 317.92 0 0 1 635.102 0 412.557 412.557 0 0 1-43.622 166.354 1182.96 1182.96 0 0 1-125.69 205.54c-37.706 51.014-78.37 100.551-119.034 147.87l-39.186 42.142-11.83 11.83v3.697zM670.31 388.898a158.96 158.96 0 1 0-158.22 158.96 158.96 158.96 0 0 0 158.22-158.96zm-246.943 0a87.983 87.983 0 1 1 88.722 87.983 87.983 87.983 0 0 1-88.722-87.983zm0 0"/></svg>