<?xml version="1.0" standalone="no"?><!DOCTYPE svg PUBLIC "-//W3C//DTD SVG 1.1//EN" "http://www.w3.org/Graphics/SVG/1.1/DTD/svg11.dtd"><svg t="1608282892133" class="icon" viewBox="0 0 1024 1024" version="1.1" xmlns="http://www.w3.org/2000/svg" p-id="1580" xmlns:xlink="http://www.w3.org/1999/xlink" width="200" height="200"><defs><style type="text/css"></style></defs><path d="M540.924138 1009.212996l11.829603-11.829602 40.664259-44.361011c42.14296-46.579061 84.285921-97.594224 123.471481-147.870036a1248.762455 1248.762455 0 0 0 133.083032-221.805055 478.359567 478.359567 0 0 0 50.275812-195.188447 388.52852 388.52852 0 0 0-777.057039 0.73935 508.672924 508.672924 0 0 0 69.498917 226.241155 1469.088809 1469.088809 0 0 0 113.859927 180.401444c39.18556 53.972563 81.32852 105.727076 123.471481 154.524188l40.664259 45.839711 11.829603 12.568953 4.436101 4.436101a35.488809 35.488809 0 0 0 50.275813 0l4.436101-4.436101z m0-45.100361l-7.393502-1.4787-11.090253-11.829603-39.185559-44.361011c-40.66426-47.318412-81.32852-97.594224-119.77473-147.870036a1404.765343 1404.765343 0 0 1-107.945126-175.965343 443.610108 443.610108 0 0 1-58.408664-193.709747 317.920578 317.920578 0 0 1 635.101805 0 412.557401 412.557401 0 0 1-43.621661 166.353791 1182.960289 1182.960289 0 0 1-125.689531 205.53935c-37.706859 51.015162-78.371119 100.551625-119.035379 147.870036l-39.185559 42.14296-11.829603 11.829603v3.696751z m129.386281-575.21444A158.960289 158.960289 0 1 0 512.089481 547.858484a158.960289 158.960289 0 0 0 158.220938-158.960289z m-246.94296 0a87.982671 87.982671 0 1 1 88.722022 87.982671 87.982671 87.982671 0 0 1-88.722022-87.982671z m0 0" p-id="1581"></path></svg>