<svg class="icon" viewBox="0 0 1024 1024" xmlns="http://www.w3.org/2000/svg" width="200" height="200"><defs><style/></defs><path d="M722.964 72.827c-82.237 0-164.485.025-246.727.102a207.744 207.744 0 0 0-28.012 2.059c-46.853 6.456-79.851 42.496-82.135 90.01-.732 15.185-.112 30.438-.112 49.52-20.091 0-38.78-.051-56.925-.051-11.258 0-22.313.02-33.367.081-39.541.23-73.415 13.41-99.123 44.473-42.393 51.225-86.697 101.053-126.018 154.547-15.698 21.356-27.694 50.606-28.621 76.713-3.354 94.53-2.606 189.276-.789 283.889 1.101 57.395 43.126 95.738 100.941 97.346 9.078.251 18.192.568 27.285.568a265.626 265.626 0 0 0 21.294-.762 50.16 50.16 0 0 1 4.106-.174c13.102 0 20.285 5.872 27.039 19.025 20.239 39.414 54.144 60.345 98.401 60.345h.84c44.661-.266 78.438-22.011 98.882-61.322 6.979-13.42 14.474-17.844 28.478-17.844l.732.005c31.068.333 62.131.584 93.204.584 27.766 0 55.542-.2 83.303-.727.727-.015 1.438-.02 2.14-.02 18.422 0 29.348 4.869 39.598 23.219 20.9 37.422 59.254 56.755 97.213 56.755 34.72 0 69.11-16.184 89.493-49.51 16.589-27.121 33.838-30.362 59.013-30.362l2.038.005 1.019.005c65.986 0 107.607-39.895 107.837-105.175.701-196.127.323-392.253.2-588.38-.02-31.959-8.996-60.314-34.437-81.971-22.308-18.99-48.779-22.917-76.534-22.922-56.75-.016-113.5-.031-170.256-.031zm-139.96 440.345c-35.01 0-70.036-.01-105.047-.05-36.562-.042-44.226-7.327-44.278-42.681-.138-95.55-.143-191.099.005-286.648.057-34.535 7.547-41.79 41.97-41.795a969267.64 969267.64 0 0 1 417.172 0c35.875.01 42.455 6.231 42.496 40.975a154845.696 154845.696 0 0 1-.01 304.564c-.006 7.48-.81 14.955-1.424 25.615H723.123c-46.715 0-93.414.02-140.119.02zM153.482 802.964c-68.203 0-65.234-5.713-64.727-80.46.502-74.184-.916-148.398.912-222.541.404-16.415 7.321-35.343 17.387-48.364 38.047-49.203 77.86-97.116 118.805-143.943 9.774-11.177 25.907-21.596 40.115-23.122 13.46-1.45 27.023-1.864 40.878-1.864 19.02 0 38.579.789 59.13.789 0 64.721-.086 125.998.021 187.269.133 72.253 38.006 110.515 110.46 110.653 58.992.113 117.98.143 176.972.143 82.16 0 164.316-.061 246.477-.061h33.121c1.1 6.784 2.77 12.34 2.79 17.905.2 53.719.4 107.443.026 161.162-.215 31.058-10.87 40.366-41.493 42.204-2.954.18-5.79.277-8.524.277-21.12 0-36.03-6.011-50.202-29.338-20.67-34.022-55.567-50.54-90.803-50.54-38.963 0-78.336 20.21-99.287 59.29-8.535 15.923-17.495 20.393-33.73 20.393l-1.178-.005c-30.464-.384-60.918-.492-91.423-.492-36.065 0-72.207.149-108.457.149-7.086-11.976-12.718-24.438-20.925-34.872-23.394-29.722-56.377-44.278-89.047-44.278-38.134 0-75.843 19.83-97.357 58.496-8.802 15.81-17.552 20.982-35.052 21.089-5.31.036-10.26.061-14.889.061zm588.529 77.768c-.845 0-1.7-.02-2.555-.066-24.008-1.23-41.759-21.576-40.73-46.67 1.009-24.514 19.989-42.27 44.452-42.27 1.116 0 2.248.036 3.385.113 24.647 1.628 42.173 21.432 41.031 46.372-1.1 24.207-20.997 42.521-45.583 42.521zm-443.3.026c-23.506 0-42.829-19.728-43.1-44.17-.271-24.566 18.314-43.9 43.07-44.806.588-.02 1.167-.03 1.75-.03 24.735 0 44.555 19.225 44.933 44.001.38 24.714-19.983 44.616-46.039 44.995-.204.01-.41.01-.614.01z"/><path d="M345.364 835.758c.38 24.714-19.983 44.616-46.039 44.995-23.787.348-43.443-19.508-43.714-44.165-.271-24.566 18.314-43.9 43.07-44.806 25.548-.926 46.294 18.617 46.683 43.976zm401.199-43.92c24.647 1.629 42.173 21.433 41.031 46.373-1.142 25.036-22.395 43.776-48.143 42.455-24.008-1.23-41.759-21.576-40.73-46.67 1.06-25.625 21.765-43.878 47.842-42.157zM253.926 404.29c-11.525 0-24.642 3.375-31.314 10.072-20.802 20.89-37.534 45.962-54.963 70.031-12.303 16.993-9.907 33.894 5.796 47.683 6.794 5.964 13.676 8.611 20.28 8.611 9.053 0 17.593-4.966 24.704-13.158 20.567-23.7 39.378-48.957 58.26-74.06 3.867-5.141 4.788-12.494 8.7-23.358-6.615-7.977-13.113-23.245-22.216-25.001a49.628 49.628 0 0 0-9.247-.82z"/></svg>