<?xml version="1.0" standalone="no"?><!DOCTYPE svg PUBLIC "-//W3C//DTD SVG 1.1//EN" "http://www.w3.org/Graphics/SVG/1.1/DTD/svg11.dtd"><svg t="1608282530477" class="icon" viewBox="0 0 1024 1024" version="1.1" xmlns="http://www.w3.org/2000/svg" p-id="1520" xmlns:xlink="http://www.w3.org/1999/xlink" width="200" height="200"><defs><style type="text/css"></style></defs><path d="M722.96448 72.82688c-82.23744 0-164.48512 0.0256-246.72768 0.1024a207.744 207.744 0 0 0-28.01152 2.05824c-46.85312 6.45632-79.85152 42.496-82.13504 90.0096-0.73216 15.18592-0.11264 30.4384-0.11264 49.52064-20.09088 0-38.77888-0.0512-56.92416-0.0512-11.25888 0-22.31296 0.02048-33.36704 0.08192-39.54176 0.2304-73.41568 13.40928-99.1232 44.47232-42.3936 51.2256-86.69696 101.05344-126.01856 154.5472-15.69792 21.35552-27.69408 50.60608-28.6208 76.71296-3.3536 94.53056-2.60608 189.27616-0.78848 283.88864 1.1008 57.3952 43.12576 95.73888 100.9408 97.34656 9.07776 0.25088 18.19136 0.56832 27.28448 0.56832a265.6256 265.6256 0 0 0 21.29408-0.76288c1.4336-0.11776 2.80064-0.17408 4.10624-0.17408 13.10208 0 20.28544 5.87264 27.03872 19.02592 20.23936 39.41376 54.144 60.34432 98.40128 60.34432h0.83968c44.66176-0.26624 78.4384-22.01088 98.88256-61.32224 6.97856-13.41952 14.47424-17.8432 28.47744-17.8432l0.73216 0.00512c31.06816 0.3328 62.1312 0.58368 93.20448 0.58368 27.76576 0 55.54176-0.19968 83.3024-0.72704 0.72704-0.01536 1.43872-0.02048 2.14016-0.02048 18.42176 0 29.34784 4.86912 39.59808 23.2192 20.89984 37.42208 59.25376 56.7552 97.21344 56.7552 34.71872 0 69.10976-16.18432 89.49248-49.5104 16.5888-27.12064 33.83808-30.3616 59.01312-30.3616l2.03776 0.00512 1.01888 0.00512c65.98656 0 107.60704-39.89504 107.83744-105.17504 0.70144-196.12672 0.32256-392.25344 0.19968-588.38016-0.02048-31.95904-8.99584-60.3136-34.43712-81.9712-22.30784-18.99008-48.77824-22.91712-76.53376-22.92224-56.75008-0.01536-113.50016-0.03072-170.25536-0.03072z m-139.96032 440.3456c-35.01056 0-70.03648-0.01024-105.04704-0.0512-36.56192-0.04096-44.22656-7.32672-44.27776-42.68032-0.13824-95.54944-0.14336-191.09888 0.00512-286.64832 0.05632-34.5344 7.54688-41.78944 41.96864-41.79456a969267.64032 969267.64032 0 0 1 417.17248 0c35.87584 0.01024 42.45504 6.23104 42.496 40.97536a154845.696 154845.696 0 0 1-0.01024 304.5632c-0.00512 7.48032-0.80896 14.95552-1.42336 25.61536h-210.7648c-46.71488 0-93.4144 0.02048-140.11904 0.02048z m-429.52192 289.792c-68.20352 0-65.23392-5.71392-64.72704-80.4608 0.50176-74.18368-0.91648-148.39808 0.91136-222.5408 0.40448-16.41472 7.3216-35.34336 17.38752-48.36352 38.04672-49.2032 77.85984-97.11616 118.80448-143.94368 9.77408-11.17696 25.9072-21.59616 40.1152-23.12192 13.46048-1.44896 27.02336-1.86368 40.87808-1.86368 19.0208 0 38.5792 0.78848 59.13088 0.78848 0 64.72192-0.08704 125.99808 0.02048 187.26912 0.13312 72.25344 38.00576 110.5152 110.45888 110.65344 58.99264 0.11264 117.98016 0.14336 176.9728 0.14336 82.16064 0 164.31616-0.06144 246.4768-0.06144h33.12128c1.1008 6.784 2.76992 12.3392 2.7904 17.90464 0.19968 53.71904 0.39936 107.4432 0.0256 161.16224-0.21504 31.05792-10.86976 40.36608-41.49248 42.20416-2.95424 0.1792-5.79072 0.27648-8.5248 0.27648-21.12 0-36.02944-6.01088-50.2016-29.3376-20.66944-34.0224-55.56736-50.53952-90.8032-50.53952-38.9632 0-78.336 20.20864-99.28704 59.2896-8.53504 15.9232-17.49504 20.39296-33.73056 20.39296l-1.1776-0.00512c-30.464-0.384-60.91776-0.49152-91.42272-0.49152-36.06528 0-72.20736 0.14848-108.45696 0.14848-7.08608-11.97568-12.71808-24.43776-20.92544-34.87232-23.39328-29.7216-56.37632-44.27776-89.04704-44.27776-38.13376 0-75.84256 19.82976-97.3568 58.496-8.80128 15.81056-17.55136 20.98176-35.05152 21.08928-5.30944 0.03584-10.26048 0.06144-14.88896 0.06144z m588.52864 77.76768c-0.8448 0-1.69984-0.02048-2.55488-0.06656-24.00768-1.2288-41.75872-21.57568-40.7296-46.6688 1.00864-24.51456 19.98848-42.27072 44.45184-42.27072 1.11616 0 2.24768 0.03584 3.38432 0.11264 24.64768 1.62816 42.17344 21.43232 41.03168 46.37184-1.1008 24.20736-20.99712 42.5216-45.58336 42.5216z m-443.29984 0.0256c-23.50592 0-42.8288-19.72736-43.10016-44.17024-0.27136-24.56576 18.31424-43.89888 43.06944-44.80512 0.5888-0.02048 1.16736-0.03072 1.75104-0.03072 24.73472 0 44.55424 19.2256 44.93312 44.00128 0.37888 24.71424-19.98336 44.61568-46.03904 44.99456-0.2048 0.01024-0.4096 0.01024-0.6144 0.01024z" p-id="1521"></path><path d="M345.36448 835.75808c0.37888 24.71424-19.98336 44.61568-46.03904 44.99456-23.78752 0.34816-43.4432-19.5072-43.71456-44.16512-0.27136-24.56576 18.31424-43.89888 43.06944-44.80512 25.5488-0.92672 46.29504 18.61632 46.68416 43.97568zM746.56256 791.83872c24.64768 1.62816 42.17344 21.43232 41.03168 46.37184-1.14176 25.0368-22.39488 43.776-48.14336 42.45504-24.00768-1.2288-41.75872-21.57568-40.7296-46.6688 1.05984-25.6256 21.76512-43.8784 47.84128-42.15808z" p-id="1522"></path><path d="M253.9264 404.29056c-11.52512 0-24.64256 3.37408-31.31392 10.07104-20.80256 20.8896-37.53472 45.96224-54.9632 70.03136-12.30336 16.99328-9.9072 33.8944 5.79584 47.68256 6.79424 5.9648 13.67552 8.61184 20.28032 8.61184 9.05216 0 17.59232-4.9664 24.704-13.1584 20.56704-23.70048 39.37792-48.95744 58.26048-74.0608 3.8656-5.14048 4.7872-12.4928 8.69888-23.35744-6.61504-7.97696-13.11232-23.2448-22.21568-25.00096a49.62816 49.62816 0 0 0-9.24672-0.8192z" p-id="1523"></path></svg>