<svg class="icon" viewBox="0 0 1038 1024" xmlns="http://www.w3.org/2000/svg" width="202.734" height="200"><defs><style/></defs><path d="M76.778 76.778H853.19v328.25h77.21V59.956A59.956 59.956 0 0 0 872.6 0H59.956A59.956 59.956 0 0 0 0 59.956v898.05a59.956 59.956 0 0 0 59.956 59.955h414.517v-75.916H76.778z"/><path d="M209.631 256.647h513.294v81.092H209.631zm0 216.101h389.068v81.092H209.631zm0 211.788h278.214v81.092H209.631zm705.24 90.15a163.046 163.046 0 1 0-227.747 0 180.731 180.731 0 0 0-122.07 180.731c0 68.583 102.228 68.583 243.708 68.583h86.267c59.957 0 101.365-3.45 125.089-27.606a57.8 57.8 0 0 0 17.685-43.134A172.536 172.536 0 0 0 914.87 774.686zM733.277 590.504a94.895 94.895 0 0 1 67.29-28.037 92.307 92.307 0 1 1-67.29 26.743zm122.5 364.913h-46.584a862.679 862.679 0 0 1-172.536-10.352c5.608-99.64 92.738-121.207 166.066-121.207 144.499 0 164.772 70.74 166.497 125.952a480.944 480.944 0 0 1-113.442 5.607z"/></svg>