<svg class="icon" viewBox="0 0 1024 1024" xmlns="http://www.w3.org/2000/svg" width="200" height="200"><defs><style/></defs><path d="M790.528 446.464q-58.368 0-109.056 22.016t-88.576 59.904-59.904 88.576-22.016 109.056q0 43.008 11.776 81.408t33.28 71.168q-37.888 48.128-46.08 74.752-5.12-16.384-22.016-43.52t-44.544-57.856-64.512-62.976-80.896-60.928q-45.056-29.696-97.28-60.416t-96.768-70.144-74.24-91.648T0 379.904q0-89.088 29.184-154.624t74.752-104.448 101.888-51.2 112.64 4.096 107.008 61.952 83.456 122.368q31.744-73.728 81.92-118.784t106.496-61.44 113.664-5.632 103.424 49.152 75.264 102.4 30.208 154.112q1.024 43.008-10.24 78.336t-29.696 65.024q-37.888-35.84-86.016-55.296t-103.424-19.456zm231.424 260.096q1.024 8.192 1.536 15.36t.512 14.336q0 8.192-.512 15.872T1021.952 768v1.024q-6.144 40.96-25.6 76.288T947.2 906.24t-67.584 40.448-80.896 14.848q-46.08 0-87.04-17.408T640.512 896t-48.128-71.68-17.92-88.064q0-46.08 17.92-87.04t48.128-71.168 71.168-48.128T798.72 512q43.008 0 80.384 14.848t67.072 40.448 49.664 60.416 26.112 75.776v3.072zM769.024 825.344q-20.48-8.192-35.328-22.016t-23.04-34.304h-68.608q10.24 47.104 44.544 80.896t82.432 41.984v-66.56zm0-247.808q-48.128 9.216-82.944 43.52t-45.056 82.432h69.632q7.168-20.48 22.528-36.352t35.84-23.04v-66.56zm64.512 314.368q46.08-10.24 79.36-43.52t42.496-79.36H890.88q-7.168 20.48-22.016 34.304t-35.328 22.016v66.56zm122.88-188.416q-9.216-47.104-43.008-80.896t-79.872-45.056v66.56q20.48 7.168 35.84 23.04t22.528 36.352h64.512z"/></svg>