<svg class="icon" viewBox="0 0 1024 1024" xmlns="http://www.w3.org/2000/svg" width="200" height="200"><defs><style/></defs><path d="M911.9 122H782V62a30 30 0 0 0-60 0v60H542V62a30 30 0 0 0-60 0v60H302V62a30 30 0 0 0-60 0v60H112.1A80.1 80.1 0 0 0 32 202.1v709.8a80.1 80.1 0 0 0 80.1 80.1h799.8a80.1 80.1 0 0 0 80.1-80.1V202.1a80.1 80.1 0 0 0-80.1-80.1zM932 911.9a20.1 20.1 0 0 1-20.1 20.1H112.1A20.1 20.1 0 0 1 92 911.9V202.1a20.1 20.1 0 0 1 20.1-20.1H242v60a30 30 0 0 0 60 0v-60h180v60a30 30 0 0 0 60 0v-60h180v60a30 30 0 0 0 60 0v-60h129.9a20.1 20.1 0 0 1 20.1 20.1z"/><path d="M242 392h120v90H242zm0 150h120v90H242zm0 150h120v90H242zm210 0h120v90H452zm0-150h120v90H452zm0-150h120v90H452zm210 300h120v90H662zm0-150h120v90H662zm0-150h120v90H662z"/></svg>