<?xml version="1.0" standalone="no"?><!DOCTYPE svg PUBLIC "-//W3C//DTD SVG 1.1//EN" "http://www.w3.org/Graphics/SVG/1.1/DTD/svg11.dtd"><svg t="1608282855025" class="icon" viewBox="0 0 1024 1024" version="1.1" xmlns="http://www.w3.org/2000/svg" p-id="1809" xmlns:xlink="http://www.w3.org/1999/xlink" width="200" height="200"><defs><style type="text/css"></style></defs><path d="M485.592606 150.966486c-212.270655 0-384.370282 172.099626-384.370282 384.370281 0 212.270655 172.099626 384.370282 384.370282 384.370282s384.370282-172.099626 384.370281-384.370282h-384.370281V150.966486z m308.688351 452.646581c-31.284273 141.573979-157.830241 247.853807-308.688351 247.853807-174.303253 0-316.093982-141.790729-316.093982-316.093982 0-150.894236 106.243703-277.440203 247.817682-308.724476v376.964651h376.964651z" p-id="1810"></path><path d="M531.724264 104.618077v388.741409H920.465674c-0.036125-214.691032-174.086503-388.74141-388.74141-388.741409z m68.240175 75.60968c121.994214 26.588019 218.303535 122.861215 244.85543 244.855429h-244.85543V180.227757z" p-id="1811"></path></svg>