<svg class="icon" viewBox="0 0 1024 1024" xmlns="http://www.w3.org/2000/svg" width="200" height="200"><defs><style/></defs><path d="M485.593 150.966c-212.271 0-384.37 172.1-384.37 384.37 0 212.271 172.099 384.371 384.37 384.371s384.37-172.1 384.37-384.37h-384.37v-384.37zM794.28 603.613c-31.284 141.574-157.83 247.854-308.688 247.854-174.304 0-316.094-141.79-316.094-316.094 0-150.894 106.243-277.44 247.817-308.725v376.965h376.965z"/><path d="M531.724 104.618V493.36h388.742c-.036-214.69-174.087-388.74-388.742-388.74zm68.24 75.61C721.96 206.816 818.268 303.089 844.82 425.083H599.964V180.228z"/></svg>