<svg class="icon" viewBox="0 0 1024 1024" xmlns="http://www.w3.org/2000/svg" width="200" height="200"><defs><style/></defs><path d="M808 827.84H232a120 120 0 0 1-120-120V332.16a120 120 0 0 1 120-120h576a120 120 0 0 1 120 120v375.68a120 120 0 0 1-120 120zM232 260.16a72.16 72.16 0 0 0-72 72v375.68a72.16 72.16 0 0 0 72 72h576a72.16 72.16 0 0 0 72-72V332.16a72.16 72.16 0 0 0-72-72z"/><path d="M520 544a24.16 24.16 0 0 1-10.4-2.4l-368-176a24 24 0 0 1 20.8-43.2L520 493.44 877.6 322.4a24 24 0 1 1 20.8 43.2l-368 176A24.16 24.16 0 0 1 520 544z"/></svg>