<?xml version="1.0" standalone="no"?><!DOCTYPE svg PUBLIC "-//W3C//DTD SVG 1.1//EN" "http://www.w3.org/Graphics/SVG/1.1/DTD/svg11.dtd"><svg t="1608283064377" class="icon" viewBox="0 0 1024 1024" version="1.1" xmlns="http://www.w3.org/2000/svg" p-id="3671" xmlns:xlink="http://www.w3.org/1999/xlink" width="200" height="200"><defs><style type="text/css"></style></defs><path d="M808 827.84h-576a120 120 0 0 1-120-120V332.16a120 120 0 0 1 120-120h576a120 120 0 0 1 120 120v375.68a120 120 0 0 1-120 120z m-576-567.68a72.16 72.16 0 0 0-72 72v375.68a72.16 72.16 0 0 0 72 72h576a72.16 72.16 0 0 0 72-72V332.16a72.16 72.16 0 0 0-72-72z" p-id="3672"></path><path d="M520 544a24.16 24.16 0 0 1-10.4-2.4l-368-176a24 24 0 0 1 20.8-43.2L520 493.44l357.6-171.04a24 24 0 1 1 20.8 43.2l-368 176a24.16 24.16 0 0 1-10.4 2.4z" p-id="3673"></path></svg>