<?xml version="1.0" standalone="no"?><!DOCTYPE svg PUBLIC "-//W3C//DTD SVG 1.1//EN" "http://www.w3.org/Graphics/SVG/1.1/DTD/svg11.dtd"><svg t="1608283069476" class="icon" viewBox="0 0 1024 1024" version="1.1" xmlns="http://www.w3.org/2000/svg" p-id="3808" xmlns:xlink="http://www.w3.org/1999/xlink" width="200" height="200"><defs><style type="text/css"></style></defs><path d="M504 928a24.16 24.16 0 0 1-10.4-2.4C320 842.4 144 664.96 144 456a360 360 0 0 1 720 0c0 208.96-176 386.4-349.6 469.6a24.16 24.16 0 0 1-10.4 2.4z m0-784A312.48 312.48 0 0 0 192 456c0 133.28 96 314.08 312 421.28C720 770.08 816 589.28 816 456A312.48 312.48 0 0 0 504 144z" p-id="3809"></path><path d="M504 592a152 152 0 1 1 152-152 152.16 152.16 0 0 1-152 152z m0-256a104 104 0 1 0 104 104 104.16 104.16 0 0 0-104-104z" p-id="3810"></path></svg>