<svg class="icon" viewBox="0 0 1024 1024" xmlns="http://www.w3.org/2000/svg" width="200" height="200"><defs><style/></defs><path d="M504 928a24.16 24.16 0 0 1-10.4-2.4C320 842.4 144 664.96 144 456a360 360 0 0 1 720 0c0 208.96-176 386.4-349.6 469.6A24.16 24.16 0 0 1 504 928zm0-784a312.48 312.48 0 0 0-312 312c0 133.28 96 314.08 312 421.28 216-107.2 312-288 312-421.28a312.48 312.48 0 0 0-312-312z"/><path d="M504 592a152 152 0 1 1 152-152 152.16 152.16 0 0 1-152 152zm0-256a104 104 0 1 0 104 104 104.16 104.16 0 0 0-104-104z"/></svg>