<?xml version="1.0" standalone="no"?><!DOCTYPE svg PUBLIC "-//W3C//DTD SVG 1.1//EN" "http://www.w3.org/Graphics/SVG/1.1/DTD/svg11.dtd"><svg t="1608282876452" class="icon" viewBox="0 0 1024 1024" version="1.1" xmlns="http://www.w3.org/2000/svg" p-id="3083" xmlns:xlink="http://www.w3.org/1999/xlink" width="200" height="200"><defs><style type="text/css"></style></defs><path d="M817.653849 721.561278V486.965357c0-157.10774-118.779087-286.97721-271.226699-304.714599 0.325125-1.950751 0.541875-3.901503 0.541876-5.924504v-34.607775c0-19.941015-16.184012-36.125026-36.125027-36.125027s-36.125026 16.184012-36.125026 36.125027v34.607775c0 2.023001 0.21675 3.973753 0.541875 5.924504-152.483737 17.701263-271.298949 147.534608-271.298949 304.714599v234.595921H101.222324v72.250053h236.727299c23.553517 72.430678 91.685317 124.920341 171.882875 124.920342s148.293234-52.489663 171.882876-124.920342h238.714175v-72.250053h-102.7757z m-307.821351 124.920342c-39.412404 0-73.984054-21.13314-92.985818-52.670289h185.971637c-19.001764 31.537148-53.573414 52.670289-92.985819 52.670289z m-233.620546-124.920342v-234.559796c0-129.36372 105.232202-234.632047 234.595922-234.632047s234.595922 105.232202 234.595922 234.595922v234.595921H276.211952z" p-id="3084"></path></svg>