<svg class="icon" viewBox="0 0 1024 1024" xmlns="http://www.w3.org/2000/svg" width="200" height="200"><defs><style/></defs><path d="M817.654 721.561V486.965c0-157.107-118.78-286.977-271.227-304.714.325-1.951.542-3.902.542-5.925v-34.608c0-19.94-16.184-36.125-36.125-36.125s-36.125 16.184-36.125 36.125v34.608c0 2.023.217 3.974.542 5.925-152.484 17.701-271.3 147.534-271.3 304.714v234.596H101.223v72.25H337.95c23.553 72.431 91.685 124.92 171.882 124.92s148.294-52.489 171.883-124.92H920.43v-72.25H817.654zm-307.822 124.92c-39.412 0-73.984-21.133-92.985-52.67h185.971c-19.001 31.537-53.573 52.67-92.986 52.67zm-233.62-124.92v-234.56c0-129.363 105.232-234.632 234.596-234.632s234.596 105.233 234.596 234.596v234.596H276.212z"/></svg>