<svg class="icon" viewBox="0 0 1024 1024" xmlns="http://www.w3.org/2000/svg" width="200" height="200"><defs><style/></defs><path d="M504 688a216.32 216.32 0 0 1-216-216V312a216 216 0 0 1 432 0v160a216.32 216.32 0 0 1-216 216zm0-544a168.16 168.16 0 0 0-168 168v160a168 168 0 0 0 336 0V312a168.16 168.16 0 0 0-168-168zm0 784a24 24 0 0 1-24-24V792a24 24 0 0 1 48 0v112a24 24 0 0 1-24 24z"/><path d="M612.96 944H392a24 24 0 0 1 0-48h220.96a24 24 0 0 1 0 48zM456 576.96a24 24 0 0 1-24-24A24.32 24.32 0 0 1 456 528a23.52 23.52 0 0 1 24 24v.96a24 24 0 0 1-24 24zm-48-112a24 24 0 0 1-24-24A24.32 24.32 0 0 1 408 416a23.52 23.52 0 0 1 24 24v.96a24 24 0 0 1-24 24zm144 112a24 24 0 0 1-24-24A24.32 24.32 0 0 1 552 528a23.52 23.52 0 0 1 24 24v.96a24 24 0 0 1-24 24zm-48-112a24 24 0 0 1-24-24A24.32 24.32 0 0 1 504 416a23.52 23.52 0 0 1 24 24v.96a24 24 0 0 1-24 24zm96 0a24 24 0 0 1-24-24A24.32 24.32 0 0 1 600 416a23.52 23.52 0 0 1 24 24v.96a24 24 0 0 1-24 24z"/><path d="M504 816a373.44 373.44 0 0 1-256.96-102.4 120.32 120.32 0 0 1-37.76-87.36v-43.52a24 24 0 1 1 48 0v43.52A72.48 72.48 0 0 0 280 678.72a325.6 325.6 0 0 0 448 0 72.48 72.48 0 0 0 22.72-52.48v-43.52a24 24 0 0 1 48 0v43.52a120.32 120.32 0 0 1-37.76 87.36A373.44 373.44 0 0 1 504 816z"/></svg>