<?xml version="1.0" standalone="no"?><!DOCTYPE svg PUBLIC "-//W3C//DTD SVG 1.1//EN" "http://www.w3.org/Graphics/SVG/1.1/DTD/svg11.dtd"><svg t="1608283071637" class="icon" viewBox="0 0 1024 1024" version="1.1" xmlns="http://www.w3.org/2000/svg" p-id="3945" xmlns:xlink="http://www.w3.org/1999/xlink" width="200" height="200"><defs><style type="text/css"></style></defs><path d="M504 688A216.32 216.32 0 0 1 288 472v-160a216 216 0 0 1 432 0v160A216.32 216.32 0 0 1 504 688z m0-544A168.16 168.16 0 0 0 336 312v160a168 168 0 0 0 336 0v-160A168.16 168.16 0 0 0 504 144zM504 928a24 24 0 0 1-24-24v-112a24 24 0 0 1 48 0v112a24 24 0 0 1-24 24z" p-id="3946"></path><path d="M612.96 944H392a24 24 0 0 1 0-48h220.96a24 24 0 0 1 0 48zM456 576.96a24 24 0 0 1-24-24A24.32 24.32 0 0 1 456 528a23.52 23.52 0 0 1 24 24v0.96a24 24 0 0 1-24 24zM408 464.96a24 24 0 0 1-24-24A24.32 24.32 0 0 1 408 416a23.52 23.52 0 0 1 24 24v0.96a24 24 0 0 1-24 24zM552 576.96a24 24 0 0 1-24-24A24.32 24.32 0 0 1 552 528a23.52 23.52 0 0 1 24 24v0.96a24 24 0 0 1-24 24zM504 464.96a24 24 0 0 1-24-24A24.32 24.32 0 0 1 504 416a23.52 23.52 0 0 1 24 24v0.96a24 24 0 0 1-24 24zM600 464.96a24 24 0 0 1-24-24A24.32 24.32 0 0 1 600 416a23.52 23.52 0 0 1 24 24v0.96a24 24 0 0 1-24 24z" p-id="3947"></path><path d="M504 816a373.44 373.44 0 0 1-256.96-102.4 120.32 120.32 0 0 1-37.76-87.36v-43.52a24 24 0 1 1 48 0v43.52a72.48 72.48 0 0 0 22.72 52.48 325.6 325.6 0 0 0 448 0 72.48 72.48 0 0 0 22.72-52.48v-43.52a24 24 0 0 1 48 0v43.52a120.32 120.32 0 0 1-37.76 87.36A373.44 373.44 0 0 1 504 816z" p-id="3948"></path></svg>