<svg class="icon" viewBox="0 0 1024 1024" xmlns="http://www.w3.org/2000/svg" width="200" height="200"><defs><style/></defs><path d="M874.667 106.667H149.333c-23.466 0-42.666 19.2-42.666 42.666v469.334h810.666V149.333c0-23.466-19.2-42.666-42.666-42.666zM384 469.333C384 492.8 364.8 512 341.333 512h-42.666C275.2 512 256 492.8 256 469.333v-64c0-23.466 19.2-42.666 42.667-42.666h42.666c23.467 0 42.667 19.2 42.667 42.666v64zm192 0C576 492.8 556.8 512 533.333 512h-42.666C467.2 512 448 492.8 448 469.333v-128c0-23.466 19.2-42.666 42.667-42.666h42.666c23.467 0 42.667 19.2 42.667 42.666v128zm192 0C768 492.8 748.8 512 725.333 512h-42.666C659.2 512 640 492.8 640 469.333V256c0-23.467 19.2-42.667 42.667-42.667h42.666C748.8 213.333 768 232.533 768 256v213.333zm-661.333 256c0 23.467 19.2 42.667 42.666 42.667h213.334v85.333H224c-17.067 0-32 14.934-32 32s14.933 32 32 32h576c17.067 0 32-14.933 32-32s-14.933-32-32-32H661.333V768h213.334c23.466 0 42.666-19.2 42.666-42.667v-42.666H106.667v42.666z"/></svg>