<svg class="icon" viewBox="0 0 1024 1024" xmlns="http://www.w3.org/2000/svg" width="200" height="200"><defs><style/></defs><path d="M866.462 137.846H768V98.462c0-31.508-25.6-59.077-59.077-59.077-31.508 0-59.077 25.6-59.077 59.077v39.384H374.154V98.462c0-31.508-25.6-59.077-59.077-59.077-31.508 0-59.077 25.6-59.077 59.077v39.384h-98.462c-43.323 0-78.769 35.446-78.769 78.77v49.23c0 15.754 13.785 29.539 29.539 29.539h807.384c15.754 0 29.539-13.785 29.539-29.539v-49.23c0-43.324-35.446-78.77-78.77-78.77zm49.23 256H108.308c-15.754 0-29.539 13.785-29.539 29.539v482.461c0 43.323 35.446 78.77 78.77 78.77h708.923c43.323 0 78.769-35.447 78.769-78.77V423.385c0-15.754-13.785-29.539-29.539-29.539zM415.508 866.462c-47.262 0-100.431-17.724-116.185-43.324-1.97-3.938-3.938-7.876-3.938-13.784 0-17.723 15.753-31.508 31.507-31.508 5.908 0 11.816 1.97 17.723 3.939 21.662 11.815 47.262 19.692 68.923 19.692 39.385 0 61.047-17.723 61.047-41.354 0-25.6-19.693-37.415-64.985-37.415-25.6 3.938-43.323-7.877-43.323-31.508 0-17.723 11.815-29.538 31.508-29.538 41.353 1.969 70.892-7.877 70.892-35.447 0-25.6-25.6-37.415-59.077-37.415-21.662 0-43.323 5.908-63.015 17.723-3.939 3.939-9.847 3.939-15.754 3.939-15.754 0-29.539-11.816-29.539-29.539 0-7.877 3.939-15.754 9.846-21.661 25.6-21.662 61.047-35.447 106.339-35.447 74.83 0 122.092 33.477 122.092 88.616 0 41.354-35.446 66.954-70.892 74.83 33.477 3.939 74.83 29.539 74.83 76.8-1.969 63.016-51.2 102.4-128 102.4zm313.107-37.416c0 17.723-9.846 37.416-29.538 37.416-17.723 0-29.539-17.724-29.539-37.416v-202.83l-41.353 37.415c-5.908 5.907-13.785 7.877-21.662 7.877-15.754 0-29.538-11.816-29.538-29.539 0-7.877 1.969-13.784 7.877-19.692l74.83-74.83c7.877-7.878 17.723-13.785 29.539-13.785 21.661 0 39.384 19.692 39.384 41.353v254.031z"/></svg>