<?xml version="1.0" standalone="no"?><!DOCTYPE svg PUBLIC "-//W3C//DTD SVG 1.1//EN" "http://www.w3.org/Graphics/SVG/1.1/DTD/svg11.dtd"><svg t="1608283076365" class="icon" viewBox="0 0 1024 1024" version="1.1" xmlns="http://www.w3.org/2000/svg" p-id="4083" xmlns:xlink="http://www.w3.org/1999/xlink" width="200" height="200"><defs><style type="text/css"></style></defs><path d="M408 752a24 24 0 0 1-24-24v-496a24 24 0 0 1 19.84-24l448-80A24.16 24.16 0 0 1 880 152v496a24 24 0 0 1-48 0V180.64l-400 71.52V728a24 24 0 0 1-24 24z" p-id="4084"></path><path d="M280 880a152 152 0 1 1 152-152 152.16 152.16 0 0 1-152 152z m0-256a104 104 0 1 0 104 104 104.16 104.16 0 0 0-104-104zM728 800a152 152 0 1 1 152-152 152.16 152.16 0 0 1-152 152z m0-256a104 104 0 1 0 104 104 104.16 104.16 0 0 0-104-104zM408 352a24 24 0 0 1-4-48l288-48a24 24 0 0 1 8 48l-288 48zM776 288a24 24 0 0 1-4.64-48l80-16a24 24 0 0 1 9.28 48l-80 16a22.88 22.88 0 0 1-4.64 0z" p-id="4085"></path></svg>