<svg class="icon" viewBox="0 0 1024 1024" xmlns="http://www.w3.org/2000/svg" width="200" height="200"><defs><style/></defs><path d="M408 752a24 24 0 0 1-24-24V232a24 24 0 0 1 19.84-24l448-80A24.16 24.16 0 0 1 880 152v496a24 24 0 0 1-48 0V180.64l-400 71.52V728a24 24 0 0 1-24 24z"/><path d="M280 880a152 152 0 1 1 152-152 152.16 152.16 0 0 1-152 152zm0-256a104 104 0 1 0 104 104 104.16 104.16 0 0 0-104-104zm448 176a152 152 0 1 1 152-152 152.16 152.16 0 0 1-152 152zm0-256a104 104 0 1 0 104 104 104.16 104.16 0 0 0-104-104zM408 352a24 24 0 0 1-4-48l288-48a24 24 0 0 1 8 48l-288 48zm368-64a24 24 0 0 1-4.64-48l80-16a24 24 0 0 1 9.28 48l-80 16a22.88 22.88 0 0 1-4.64 0z"/></svg>