<svg class="icon" viewBox="0 0 1024 1024" xmlns="http://www.w3.org/2000/svg" width="200" height="200"><defs><style/></defs><path d="M853.333 938.667c-25.6 0-42.666-17.067-42.666-42.667v-85.333c0-72.534-55.467-128-128-128H341.333c-72.533 0-128 55.466-128 128V896c0 25.6-17.066 42.667-42.666 42.667S128 921.6 128 896v-85.333c0-119.467 93.867-213.334 213.333-213.334h341.334C802.133 597.333 896 691.2 896 810.667V896c0 25.6-17.067 42.667-42.667 42.667zM512 512c-119.467 0-213.333-93.867-213.333-213.333S392.533 85.333 512 85.333 725.333 179.2 725.333 298.667 631.467 512 512 512zm0-341.333c-72.533 0-128 55.466-128 128s55.467 128 128 128 128-55.467 128-128-55.467-128-128-128z"/></svg>