<?xml version="1.0" standalone="no"?><!DOCTYPE svg PUBLIC "-//W3C//DTD SVG 1.1//EN" "http://www.w3.org/Graphics/SVG/1.1/DTD/svg11.dtd"><svg t="1618565206257" class="icon" viewBox="0 0 1024 1024" version="1.1" xmlns="http://www.w3.org/2000/svg" p-id="8543" xmlns:xlink="http://www.w3.org/1999/xlink" width="200" height="200"><defs><style type="text/css"></style></defs><path d="M853.333333 938.666667c-25.6 0-42.666667-17.066667-42.666666-42.666667v-85.333333c0-72.533333-55.466667-128-128-128H341.333333c-72.533333 0-128 55.466667-128 128v85.333333c0 25.6-17.066667 42.666667-42.666666 42.666667s-42.666667-17.066667-42.666667-42.666667v-85.333333c0-119.466667 93.866667-213.333333 213.333333-213.333334h341.333334c119.466667 0 213.333333 93.866667 213.333333 213.333334v85.333333c0 25.6-17.066667 42.666667-42.666667 42.666667zM512 512c-119.466667 0-213.333333-93.866667-213.333333-213.333333s93.866667-213.333333 213.333333-213.333334 213.333333 93.866667 213.333333 213.333334-93.866667 213.333333-213.333333 213.333333z m0-341.333333c-72.533333 0-128 55.466667-128 128s55.466667 128 128 128 128-55.466667 128-128-55.466667-128-128-128z" p-id="8544"></path></svg>