<svg class="icon" viewBox="0 0 1024 1024" xmlns="http://www.w3.org/2000/svg" width="200" height="200"><defs><style/></defs><path d="M511.915 0l-200.32 115.925v87.254l-208 119.168v213.76L14.42 587.69v231.893l200.406 116.01 70.912-41.087L512 1024l226.133-129.493 71.04 41.088 200.406-116.011V587.648l-89.174-51.499V322.347L712.32 203.179v-87.254L511.915 0zm0 50.987l133.418 77.354L512 204.928l-133.333-76.672 133.248-77.227zm-156.075 115.2L489.899 243.2v156.843L355.84 322.347v-156.16zm312.235 0v156.16l-133.888 77.568V243.157l133.888-76.97zm44.245 87.978l163.925 93.739v162.688l-67.072-38.827-200.405 115.883v231.936l85.248 49.323L512 973.013 330.07 868.907l85.162-49.323V587.648L214.827 471.765l-66.987 38.742v-162.56l163.755-93.696v93.653h.085L512 463.829l200.32-115.925v-93.739zM214.827 522.837L348.16 599.98 214.827 676.65 81.493 600.02l22.102-12.842 111.232-64.342zm594.346 0l111.232 64.427 22.016 12.757-133.248 76.63-133.333-76.63 133.333-77.226zM58.752 637.824l134.059 77.184v156.843L58.752 794.027v-156.16zm312.235 0v156.245L241.408 869.12l-4.31 2.56V714.965l133.889-77.098zm282.026 0l134.144 77.184v156.843l-4.565-2.774-129.579-75.008V637.867zm312.235 0v156.245l-133.93 77.611V715.008l133.93-77.184z"/></svg>