<?xml version="1.0" standalone="no"?><!DOCTYPE svg PUBLIC "-//W3C//DTD SVG 1.1//EN" "http://www.w3.org/Graphics/SVG/1.1/DTD/svg11.dtd"><svg t="1618565571559" class="icon" viewBox="0 0 1024 1024" version="1.1" xmlns="http://www.w3.org/2000/svg" p-id="14365" xmlns:xlink="http://www.w3.org/1999/xlink" width="200" height="200"><defs><style type="text/css"></style></defs><path d="M511.914667 0L311.594667 115.925333v87.253334L103.594667 322.346667v213.76l-89.173334 51.584v231.893333l200.405334 116.010667 70.912-41.088L512 1024l226.133333-129.493333 71.04 41.088 200.405334-116.010667v-231.936l-89.173334-51.498667V322.346667l-208.085333-119.168V115.925333L511.914667 0z m0 50.986667l133.418666 77.354666L512 204.928 378.666667 128.256l133.248-77.226667z m-156.074667 115.2L489.898667 243.2v156.842667L355.84 322.346667v-156.16z m312.234667 0v156.16L534.186667 399.914667V243.157333l133.888-76.970666z m44.245333 87.978666l163.925333 93.738667v162.688l-67.072-38.826667-200.405333 115.882667v231.936l85.248 49.322667L512 973.013333l-181.930667-104.106666 85.162667-49.322667v-231.936l-200.405333-115.882667-66.986667 38.741334v-162.56l163.754667-93.696v93.653333h0.085333L512 463.829333l200.32-115.925333V254.165333z m-497.493333 268.672l133.333333 77.141334-133.333333 76.672-133.333334-76.629334 22.101334-12.842666 111.232-64.341334z m594.346666 0l111.232 64.426667 22.016 12.757333-133.248 76.629334-133.333333-76.629334 133.333333-77.226666zM58.752 637.824l134.058667 77.184v156.842667L58.752 794.026667V637.866667z m312.234667 0v156.245333L241.408 869.12l-4.309333 2.56v-156.714667l133.888-77.098666z m282.026666 0l134.144 77.184v156.842667l-4.565333-2.773334-129.578667-75.008V637.866667z m312.234667 0v156.245333l-133.930667 77.610667v-156.672l133.930667-77.184z" p-id="14366"></path></svg>