<svg class="icon" viewBox="0 0 1024 1024" xmlns="http://www.w3.org/2000/svg" width="200" height="200"><defs><style/></defs><path d="M959.586 721.713L746.926 509.26l193.939-193.836c13.343-13.136 20.997-30.513 21.72-48.821.725-18.928-6.102-36.616-19.238-49.648L807.641 81.144C795.126 68.732 778.473 62.01 760.58 62.01c-19.032 0-37.857 7.86-51.614 21.721l-80.782 80.679c-.104.103-.207.103-.207.207l-.207.207-112.744 112.64L302.468 65.008c-12.93-12.825-29.996-19.859-48.097-19.859-18.205 0-35.271 7.034-48.097 19.86L63.844 207.333c-12.825 12.93-19.859 29.996-19.859 47.994 0 18.204 7.034 35.27 19.86 48.097l212.66 212.35-161.15 161.048c-4.24 4.137-6.827 9.826-7.24 15.825L69.74 925.996c0 .207 0 .31-.104.517v.31c0 .31-.103.518-.103.828v4.137c.103 1.552.31 3 .724 4.448 0 .103.103.31.103.414.104.517.31 1.034.414 1.448 2.793 8.585 10.137 14.79 19.135 16.239h.828c1.138.103 2.172.207 3.31.207 1.034 0 1.965-.104 2.896-.207.31 0 .62-.103.93-.103h.104l236.037-38.685c5.896-1.034 10.964-4.034 14.585-8.275l159.806-159.702 212.557 212.454c12.93 12.826 29.996 19.86 48.097 19.86 18.205 0 35.271-7.034 48.097-19.86l142.43-142.222c12.825-12.93 19.859-29.996 19.859-47.994 0-18.204-7.137-35.271-19.86-48.097zm-215.97-603.332c4.654-4.655 10.86-7.344 16.86-7.344 4.86 0 9.205 1.758 12.308 4.861l135.913 135.81c3.31 3.206 4.964 7.757 4.758 13.032-.207 5.793-2.793 11.481-7.344 16.033l-63.612 63.508L680.003 181.89l63.612-63.508zM98.598 268.774c-3.517-3.517-5.482-8.275-5.482-13.343s1.965-9.826 5.482-13.343L241.028 99.762c3.517-3.516 8.275-5.482 13.343-5.482s9.826 1.966 13.343 5.482L480.168 312.32 311.156 481.125 98.6 268.775zm229.417 264.999l.62-.62 203.87-203.56c.62-.62 1.241-1.344 1.758-1.965L645.25 216.643l162.496 162.392L694.898 491.78l-.104.103L491.03 695.441l-.104.103-161.047 160.944L167.383 694.2l160.633-160.427zM149.178 745.4l129.5 129.396-154.945 25.445L149.178 745.4zm775.654 37.546L782.507 925.272c-3.517 3.517-8.275 5.482-13.343 5.482s-9.827-1.965-13.343-5.482L543.16 712.818l71.68-71.577 97.331-97.332L924.832 756.26c3.517 3.517 5.482 8.275 5.482 13.343s-1.965 9.826-5.482 13.343zm0 0"/><path d="M414.28 643.413c6.413 0 12.516-2.586 17.377-7.24l198.594-198.49c4.551-4.552 7.24-10.861 7.24-17.378s-2.585-12.722-7.24-17.377c-4.55-4.55-10.86-7.24-17.377-7.24-6.62 0-12.722 2.586-17.377 7.24L396.903 601.42c-4.55 4.551-7.24 10.86-7.24 17.377s2.586 12.826 7.137 17.273c4.655 4.758 10.86 7.344 17.48 7.344zm0 0"/></svg>