<svg class="icon" viewBox="0 0 1024 1024" xmlns="http://www.w3.org/2000/svg" width="200" height="200"><defs><style/></defs><path d="M334.378 258.549c0 18.65-15.097 33.77-33.752 33.77-18.629 0-33.75-15.12-33.75-33.77 0-18.613 15.116-33.735 33.75-33.735 18.651-.008 33.752 15.122 33.752 33.735zm0 0M334.378 382.325c0 18.664-15.097 33.73-33.752 33.73-18.629 0-33.75-15.078-33.75-33.73 0-18.635 15.116-33.73 33.75-33.73 18.651 0 33.752 15.108 33.752 33.73zm0 0M266.875 506.115c0 8.837 3.637 17.618 9.887 23.863 6.246 6.25 15.027 9.888 23.863 9.888s17.62-3.638 23.869-9.888c6.246-6.246 9.883-15.027 9.883-23.863s-3.638-17.62-9.883-23.869c-6.25-6.245-15.031-9.882-23.869-9.882s-17.618 3.638-23.863 9.882c-6.25 6.25-9.887 15.032-9.887 23.869zm0 0M639.597 289.042h-226.46c-16.808 0-30.464-13.64-30.464-30.493 0-16.817 13.656-30.456 30.464-30.456H639.6c16.833 0 30.465 13.639 30.465 30.456.008 16.853-13.619 30.493-30.47 30.493zm0 0M639.597 412.832h-226.46c-16.808 0-30.464-13.66-30.464-30.494 0-16.838 13.656-30.499 30.464-30.499H639.6c16.833 0 30.465 13.661 30.465 30.499 0 16.833-13.619 30.494-30.47 30.494zm0 0M639.597 536.6h-226.46c-16.808 0-30.464-13.662-30.464-30.476 0-16.867 13.656-30.494 30.464-30.494H639.6c16.833 0 30.465 13.626 30.465 30.494.008 16.815-13.619 30.476-30.47 30.476zm0 0M266.875 622.199c0 8.837 3.637 17.62 9.887 23.863 6.246 6.25 15.027 9.888 23.863 9.888s17.62-3.637 23.869-9.888c6.246-6.245 9.883-15.027 9.883-23.863s-3.638-17.618-9.883-23.868c-6.25-6.246-15.031-9.883-23.869-9.883s-17.618 3.638-23.863 9.883c-6.25 6.25-9.887 15.03-9.887 23.868zm0 0M639.597 652.692h-226.46c-16.808 0-30.464-13.649-30.464-30.494 0-16.837 13.656-30.468 30.464-30.468H639.6c16.833 0 30.465 13.631 30.465 30.468.008 16.845-13.619 30.494-30.47 30.494zm0 0"/><path d="M958.708 242.497c0-110.112-40.662-150.77-90.849-150.77H249.95c-51.61 0-93.63 41.981-93.63 93.642V774.01H65.292c0 137.476 50.737 158.263 113.386 158.263H720.7c51.651 0 93.65-41.982 93.65-93.638V242.497h144.357zm-181.83 596.126c0 30.972-25.193 56.175-56.176 56.175-50.15 0-75.819-10.701-75.819-120.81H193.793V185.357c0-30.973 25.158-56.176 56.146-56.176h551.656c-14.852 23.54-24.104 59.164-24.508 110.009-.12 1.144-.218 2.284-.218 3.308v596.126h.008zm0 0"/></svg>