<svg class="icon" viewBox="0 0 1024 1024" xmlns="http://www.w3.org/2000/svg" width="200" height="200"><defs><style/></defs><path d="M511.386 931.512c-121.974 0-243.953.041-365.927-.015-57.241-.026-77.593-20.009-77.609-76.273-.046-226.037-.046-452.075 0-678.118.01-52.24 22.405-74.977 74.44-74.998 247.362-.112 494.725-.118 742.088.005 50.729.026 74.02 23.071 74.045 73.145.113 227.742.102 455.49.005 683.233-.02 51.097-22 72.919-73.446 72.975-124.529.138-249.063.046-373.596.046zm1.469-779.095c-122 0-243.999.533-365.988-.481-22.364-.184-29.097 5.908-29.015 28.687.81 223.514.891 447.038-.072 670.551-.107 25.437 8.254 31.33 32.154 31.258 242.284-.737 484.577-.758 726.86.026 24.53.076 31.806-7.046 31.704-31.806-.896-222.664-.947-445.332.051-667.99.118-25.744-8.601-30.941-32.271-30.731-121.134 1.055-242.284.486-363.423.486z"/><path d="M698.511 364.631l-79.564-85.294 214.256-24.5-28.441 222.096-66.514-69.693L586.72 585.948 407.997 427.832 226.422 615.26l-39.091-43.924s150.6-156.299 218.414-226.78l176.998 157.107L698.511 364.63zM831.795 696.32v58.486H194.801V696.32h636.994z"/></svg>