<?xml version="1.0" standalone="no"?><!DOCTYPE svg PUBLIC "-//W3C//DTD SVG 1.1//EN" "http://www.w3.org/Graphics/SVG/1.1/DTD/svg11.dtd"><svg t="1608282539668" class="icon" viewBox="0 0 1024 1024" version="1.1" xmlns="http://www.w3.org/2000/svg" p-id="1922" xmlns:xlink="http://www.w3.org/1999/xlink" width="200" height="200"><defs><style type="text/css"></style></defs><path d="M511.3856 931.51232c-121.97376 0-243.95264 0.04096-365.9264-0.01536-57.2416-0.0256-77.5936-20.00896-77.60896-76.27264-0.04608-226.03776-0.04608-452.07552 0-678.1184 0.01024-52.23936 22.40512-74.97728 74.43968-74.99776 247.36256-0.11264 494.72512-0.11776 742.08768 0.00512 50.72896 0.0256 74.01984 23.07072 74.04544 73.14432 0.11264 227.74272 0.1024 455.49056 0.00512 683.23328-0.02048 51.0976-22.00064 72.91904-73.4464 72.97536-124.52864 0.13824-249.0624 0.04608-373.59616 0.04608z m1.46944-779.09504c-121.99936 0-243.99872 0.53248-365.98784-0.48128-22.36416-0.18432-29.09696 5.90848-29.01504 28.68736 0.80896 223.5136 0.89088 447.03744-0.07168 670.55104-0.10752 25.43616 8.25344 31.32928 32.1536 31.2576 242.28352-0.73728 484.57728-0.75776 726.8608 0.0256 24.52992 0.0768 31.80544-7.04512 31.70304-31.80544-0.896-222.66368-0.9472-445.33248 0.0512-667.99104 0.11776-25.74336-8.6016-30.94016-32.27136-30.73024-121.13408 1.05472-242.28352 0.4864-363.42272 0.4864z" p-id="1923"></path><path d="M698.51136 364.63104l-79.5648-85.29408 214.25664-24.4992-28.4416 222.09536-66.51392-69.69344-151.5264 178.70848-178.72384-158.11584-181.57568 187.42784-39.0912-43.92448s150.59968-156.29824 218.41408-226.78016l176.9984 157.1072 115.76832-137.03168zM831.7952 696.32v58.48576H194.80064V696.32H831.7952z" p-id="1924"></path></svg>