<svg class="icon" viewBox="0 0 1024 1024" xmlns="http://www.w3.org/2000/svg" width="200" height="200"><defs><style/></defs><path d="M777.44 862.24h-5.6A668 668 0 0 1 162.08 252.8a70.88 70.88 0 0 1 18.72-53.6 72.48 72.48 0 0 1 53.12-23.2h116.32a71.84 71.84 0 0 1 70.56 58.4 296.96 296.96 0 0 0 36.16 99.2 71.52 71.52 0 0 1-11.36 86.72l-26.4 26.56a296.16 296.16 0 0 0 130.72 156.16l36-28.96a71.2 71.2 0 0 1 87.36-1.76 202.24 202.24 0 0 0 108.96 39.2 72.64 72.64 0 0 1 68 72.8L848 791.04a72.32 72.32 0 0 1-23.52 52.64 70.88 70.88 0 0 1-47.04 18.56zM233.92 224a24.8 24.8 0 0 0-17.92 7.84 22.24 22.24 0 0 0-6.08 17.12 619.84 619.84 0 0 0 565.76 565.12 22.24 22.24 0 0 0 16.96-5.92A23.68 23.68 0 0 0 800 790.4l1.6-106.72a24.32 24.32 0 0 0-23.52-24.32 246.4 246.4 0 0 1-134.24-48.8 23.36 23.36 0 0 0-28.48.96l-48.96 39.2a24 24 0 0 1-26.72 2.24c-87.52-48-148.32-121.92-171.52-206.72a24 24 0 0 1 6.24-23.2l36.64-36.64a23.36 23.36 0 0 0 4.96-28.48 344.64 344.64 0 0 1-41.92-114.72 23.84 23.84 0 0 0-23.84-19.2zM856 448a24 24 0 0 1-24-24 232.16 232.16 0 0 0-232-232 24 24 0 0 1 0-48 280.32 280.32 0 0 1 280 280 24 24 0 0 1-24 24z"/><path d="M712 432a24 24 0 0 1-24-24 72.16 72.16 0 0 0-72-72 24 24 0 0 1 0-48 120 120 0 0 1 120 120 24 24 0 0 1-24 24z"/></svg>