<svg class="icon" viewBox="0 0 1024 1024" xmlns="http://www.w3.org/2000/svg" width="200" height="200"><defs><style/></defs><path d="M653.588 303.626H293.263c-11.479 0-20.792 11.152-20.792 24.914 0 13.763 9.303 24.914 20.792 24.914h360.33c11.48 0 20.793-11.151 20.793-24.914-.005-13.762-9.313-24.914-20.798-24.914zm0 151.644H293.263c-11.479 0-20.792 11.152-20.792 24.914s9.303 24.914 20.792 24.914h360.33c11.48 0 20.793-11.151 20.793-24.914s-9.313-24.914-20.798-24.914zm0 129.475H293.263c-11.479 0-20.792 11.151-20.792 24.914s9.303 24.914 20.792 24.914h360.33c11.48 0 20.793-11.152 20.793-24.914s-9.313-24.914-20.798-24.914zm0 137.134H293.263c-11.479 0-20.792 11.151-20.792 24.914s9.303 24.914 20.792 24.914h360.33c11.48 0 20.793-11.151 20.793-24.914s-9.313-24.914-20.798-24.914z"/><path d="M884.557 252.692v181.156a30.72 30.72 0 1 1-61.44 0V252.534c0-46.818-37.95-84.767-84.767-84.767H286.06c-47.043 0-85.177 38.134-85.177 85.176v529.23c0 47.134 38.21 85.344 85.345 85.344h273.055a30.72 30.72 0 1 1 0 61.44H286.387c-81.157 0-146.944-65.786-146.944-146.944v-528.86c0-81.09 65.736-146.826 146.826-146.826h451.917c80.84-.005 146.37 65.53 146.37 146.365z"/><path d="M139.443 782.587V601.43a30.72 30.72 0 1 1 61.44 0v181.32c0 46.817 37.95 84.766 84.767 84.766h452.29c47.043 0 85.177-38.133 85.177-85.176V253.107c0-47.135-38.21-85.345-85.345-85.345H464.717a30.72 30.72 0 1 1 0-61.44h272.896c81.157 0 146.944 65.787 146.944 146.944v528.86c0 81.09-65.736 146.826-146.826 146.826H285.814c-80.84 0-146.37-65.53-146.37-146.365z"/><path d="M717.491 328.54a35.84 35.84 0 1 0 71.68 0 35.84 35.84 0 1 0-71.68 0zM717.491 480.184a35.84 35.84 0 1 0 71.68 0 35.84 35.84 0 1 0-71.68 0zM717.491 609.659a35.84 35.84 0 1 0 71.68 0 35.84 35.84 0 1 0-71.68 0zM717.491 746.793a35.84 35.84 0 1 0 71.68 0 35.84 35.84 0 1 0-71.68 0z"/></svg>