<?xml version="1.0" standalone="no"?><!DOCTYPE svg PUBLIC "-//W3C//DTD SVG 1.1//EN" "http://www.w3.org/Graphics/SVG/1.1/DTD/svg11.dtd"><svg t="1608282574769" class="icon" viewBox="0 0 1024 1024" version="1.1" xmlns="http://www.w3.org/2000/svg" p-id="3000" xmlns:xlink="http://www.w3.org/1999/xlink" width="200" height="200"><defs><style type="text/css"></style></defs><path d="M653.58848 303.62624H293.26336c-11.47904 0-20.79232 11.15136-20.79232 24.91392 0 13.76256 9.30304 24.91392 20.79232 24.91392h360.33024c11.47904 0 20.79232-11.15136 20.79232-24.91392-0.00512-13.76256-9.31328-24.91392-20.79744-24.91392zM653.58848 455.2704H293.26336c-11.47904 0-20.79232 11.15136-20.79232 24.91392s9.30304 24.91392 20.79232 24.91392h360.33024c11.47904 0 20.79232-11.15136 20.79232-24.91392s-9.31328-24.91392-20.79744-24.91392zM653.58848 584.74496H293.26336c-11.47904 0-20.79232 11.15136-20.79232 24.91392s9.30304 24.91392 20.79232 24.91392h360.33024c11.47904 0 20.79232-11.15136 20.79232-24.91392s-9.31328-24.91392-20.79744-24.91392zM653.58848 721.87904H293.26336c-11.47904 0-20.79232 11.15136-20.79232 24.91392s9.30304 24.91392 20.79232 24.91392h360.33024c11.47904 0 20.79232-11.15136 20.79232-24.91392s-9.31328-24.91392-20.79744-24.91392z" p-id="3001"></path><path d="M884.5568 252.69248v181.15584a30.72 30.72 0 1 1-61.44 0V252.53376c0-46.81728-37.94944-84.76672-84.76672-84.76672H286.05952c-47.04256 0-85.17632 38.13376-85.17632 85.17632v529.2288c0 47.13472 38.21056 85.34528 85.34528 85.34528h273.05472a30.72 30.72 0 1 1 0 61.44h-272.896c-81.15712 0-146.944-65.78688-146.944-146.944V253.15328c0-81.09056 65.73568-146.82624 146.82624-146.82624h451.9168c80.83968-0.00512 146.37056 65.53088 146.37056 146.36544z" p-id="3002"></path><path d="M139.4432 782.58688v-181.15584a30.72 30.72 0 1 1 61.44 0v181.31968c0 46.81728 37.94944 84.76672 84.76672 84.76672h452.29056c47.04256 0 85.17632-38.13376 85.17632-85.17632V253.1072c0-47.13472-38.21056-85.34528-85.34528-85.34528H464.7168a30.72 30.72 0 1 1 0-61.44h272.896c81.15712 0 146.944 65.78688 146.944 146.944v528.86016c0 81.09056-65.73568 146.82624-146.82624 146.82624H285.81376c-80.83968 0-146.37056-65.53088-146.37056-146.36544z" p-id="3003"></path><path d="M753.3312 328.54016m-35.84 0a35.84 35.84 0 1 0 71.68 0 35.84 35.84 0 1 0-71.68 0Z" p-id="3004"></path><path d="M753.3312 480.18432m-35.84 0a35.84 35.84 0 1 0 71.68 0 35.84 35.84 0 1 0-71.68 0Z" p-id="3005"></path><path d="M753.3312 609.65888m-35.84 0a35.84 35.84 0 1 0 71.68 0 35.84 35.84 0 1 0-71.68 0Z" p-id="3006"></path><path d="M753.3312 746.79296m-35.84 0a35.84 35.84 0 1 0 71.68 0 35.84 35.84 0 1 0-71.68 0Z" p-id="3007"></path></svg>