<svg class="icon" viewBox="0 0 1024 1024" xmlns="http://www.w3.org/2000/svg" width="200" height="200"><defs><style/></defs><path d="M940.318 1023.56H81.48a61.66 61.66 0 0 1-59.458-61.66V148.424a61.66 61.66 0 0 1 61.66-61.66H942.52a61.66 61.66 0 0 1 61.66 61.66v813.474a61.66 61.66 0 0 1-63.862 61.66zM99.097 944.282H922.7v-778.24H99.097z"/><path d="M266.46 0h55.494q22.022 0 22.022 22.022v217.572q0 22.021-22.022 22.021H266.46q-22.021 0-22.021-22.021V22.022Q244.439 0 266.46 0zM691.0350000000001 0h55.494q22.022 0 22.022 22.022v217.572q0 22.021-22.022 22.021h-55.494q-22.022 0-22.022-22.021V22.022Q669.013 0 691.035 0zM785.727 414.004a137.855 137.855 0 0 1-30.39 152.39 140.057 140.057 0 0 1-167.363 22.02l-36.556 40.52 27.748 27.307 15.415-14.534a22.022 22.022 0 0 1 30.39 0l132.128 132.129a21.14 21.14 0 0 1 0 30.39l-60.779 60.338a22.022 22.022 0 0 1-30.39 0L533.801 732.435a21.14 21.14 0 0 1 0-30.39l16.737-16.295-25.986-25.986L337.37 859.28a44.043 44.043 0 0 1-61.22 0l-14.974-14.974a44.043 44.043 0 0 1 0-60.34L470.82 607.795 330.323 470.82H286.28l-48.888-81.48 40.52-40.96 83.681 51.09v44.043L501.21 584.01l40.96-33.913a137.414 137.414 0 0 1 13.654-179.695 140.497 140.497 0 0 1 151.508-30.39l-88.086 88.086 75.754 75.314zM311.825 805.106a21.581 21.581 0 0 0-30.39 30.39 22.022 22.022 0 0 0 30.83 0 20.7 20.7 0 0 0 0-29.95zm0 0"/></svg>