<?xml version="1.0" standalone="no"?><!DOCTYPE svg PUBLIC "-//W3C//DTD SVG 1.1//EN" "http://www.w3.org/Graphics/SVG/1.1/DTD/svg11.dtd"><svg t="1608282929586" class="icon" viewBox="0 0 1024 1024" version="1.1" xmlns="http://www.w3.org/2000/svg" p-id="3196" xmlns:xlink="http://www.w3.org/1999/xlink" width="200" height="200"><defs><style type="text/css"></style></defs><path d="M940.31828 1023.55957H81.47957a61.660215 61.660215 0 0 1-59.458065-61.660215V148.424946a61.660215 61.660215 0 0 1 61.660215-61.660215h858.83871a61.660215 61.660215 0 0 1 61.660215 61.660215v813.474409a61.660215 61.660215 0 0 1-63.862365 61.660215z m-841.221506-79.277419h823.604301V166.042151H99.096774z" p-id="3197"></path><path d="M244.43871 0m22.021505 0l55.494194 0q22.021505 0 22.021505 22.021505l0 217.572473q0 22.021505-22.021505 22.021506l-55.494194 0q-22.021505 0-22.021505-22.021506l0-217.572473q0-22.021505 22.021505-22.021505Z" p-id="3198"></path><path d="M669.013333 0m22.021506 0l55.494193 0q22.021505 0 22.021506 22.021505l0 217.572473q0 22.021505-22.021506 22.021506l-55.494193 0q-22.021505 0-22.021506-22.021506l0-217.572473q0-22.021505 22.021506-22.021505Z" p-id="3199"></path><path d="M785.727312 414.004301a137.854624 137.854624 0 0 1-30.389678 152.388817 140.056774 140.056774 0 0 1-167.36344 22.021506l-36.555699 40.51957 27.747096 27.306666 15.415054-14.534193a22.021505 22.021505 0 0 1 30.389678 0l132.129032 132.129032a21.140645 21.140645 0 0 1 0 30.389677l-60.779355 60.338925a22.021505 22.021505 0 0 1-30.389677 0l-132.129033-132.129032a21.140645 21.140645 0 0 1 0-30.389678l16.736344-16.295914-25.985376-25.985376-187.182796 199.514839a44.043011 44.043011 0 0 1-61.219785 0l-14.974623-14.974624a44.043011 44.043011 0 0 1 0-60.338925l209.644731-176.172043-140.497204-136.973763h-44.043011L237.391828 389.340215l40.51957-40.96 83.68172 51.089893v44.04301l139.616344 140.497205 40.96-33.913119a137.414194 137.414194 0 0 1 13.653334-179.695484 140.497204 140.497204 0 0 1 151.507957-30.389677l-88.086022 88.086022 75.753979 75.313548zM311.824516 805.106237a21.581075 21.581075 0 0 0-30.389677 30.389677 22.021505 22.021505 0 0 0 30.830107 0 20.700215 20.700215 0 0 0 0-29.949247z m0 0" p-id="3200"></path></svg>