<svg class="icon" viewBox="0 0 1024 1024" xmlns="http://www.w3.org/2000/svg" width="200" height="200"><defs><style/></defs><path d="M512 483.533c-234.086 0-426.7-82.535-426.7-199.066S277.913 85.3 512 85.3s426.7 82.637 426.7 199.168S746.087 483.533 512 483.533zm0-56.832c205.824 0 369.766-70.247 369.766-142.234 0-71.987-163.942-142.233-369.766-142.233S142.234 212.48 142.234 284.467c0 71.885 163.942 142.234 369.766 142.234z"/><path d="M204.288 371.917l24.371 51.405c-56.832 26.93-86.425 59.29-86.425 88.678 0 71.987 163.942 142.234 369.766 142.234S881.766 583.987 881.766 512c0-31.13-33.177-65.434-95.846-92.98l22.938-52.018c81.1 35.737 129.843 86.016 129.843 145.1 0 116.532-192.615 199.066-426.701 199.066S85.3 628.531 85.3 512c0-56.218 44.44-104.755 118.988-140.083z"/><path d="M204.8 599.245l24.269 51.405c-57.14 27.033-86.835 59.392-86.835 88.883 0 71.987 163.942 142.233 369.766 142.233s369.766-70.246 369.766-142.233c0-30.823-32.563-64.717-94.208-92.263l23.143-51.916c79.974 35.635 127.897 85.708 127.897 144.179 0 116.531-192.614 199.065-426.7 199.065S85.299 856.064 85.299 739.533c0-56.423 44.647-104.96 119.501-140.288z"/></svg>