<svg class="icon" viewBox="0 0 1024 1024" xmlns="http://www.w3.org/2000/svg" width="200" height="200"><defs><style/></defs><path d="M1020.062 494.277C927.508 307.2 734.523 177.23 512 177.23S96.492 307.2 3.938 494.277c-5.907 11.815-5.907 25.6 0 35.446C96.492 716.8 289.477 846.77 512 846.77S927.508 716.8 1020.062 529.723c5.907-11.815 5.907-23.63 0-35.446zM512 728.615c-120.123 0-216.615-96.492-216.615-216.615S391.877 295.385 512 295.385 728.615 391.877 728.615 512 632.123 728.615 512 728.615zm0-354.461c-76.8 0-137.846 61.046-137.846 137.846S435.2 649.846 512 649.846 649.846 588.8 649.846 512 588.8 374.154 512 374.154z"/></svg>