<svg class="icon" viewBox="0 0 1024 1024" xmlns="http://www.w3.org/2000/svg" width="200" height="200"><defs><style/></defs><path d="M872 736H760a24 24 0 0 1 0-48h104V392a40 40 0 0 0-40-40H216a40 40 0 0 0-40 40v296h104a24 24 0 0 1 0 48H168a40 40 0 0 1-40-40V392a88.16 88.16 0 0 1 88-88h608a88.16 88.16 0 0 1 88 88v304a40 40 0 0 1-40 40z"/><path d="M728 352H312a40 40 0 0 1-40-40V152a40 40 0 0 1 40-40h416a40 40 0 0 1 40 40v160a40 40 0 0 1-40 40zm-408-48h400V160H320zm408 592H312a40 40 0 0 1-40-40V632a72.16 72.16 0 0 1 72-72h352a72.16 72.16 0 0 1 72 72v224a40 40 0 0 1-40 40zm-408-48h400V632a24 24 0 0 0-24-24H344a24 24 0 0 0-24 24zm24-368h-32a24 24 0 0 1 0-48h32a24 24 0 0 1 0 48z"/></svg>