<svg class="icon" viewBox="0 0 1363 1024" xmlns="http://www.w3.org/2000/svg" width="266.211" height="200"><defs><style/></defs><path d="M217.795 899.249H76.41a336.828 336.828 0 0 1 189.726-255.22l58.737-29.109-56.658-33.786a226.631 226.631 0 0 1 75.89-415.837 371.134 371.134 0 0 1 51.98-74.85h-11.436A299.403 299.403 0 0 0 85.766 386.73a294.724 294.724 0 0 0 99.281 221.433A415.837 415.837 0 0 0 0 931.996v38.465h201.68a575.414 575.414 0 0 1 16.115-71.212zm780.214-737.59a226.111 226.111 0 0 1 93.563 419.475l-56.658 33.786 58.737 29.109a336.828 336.828 0 0 1 190.246 255.22h-155.94a584.25 584.25 0 0 1 15.595 71.732h219.873l-3.118-38.465a415.837 415.837 0 0 0-185.048-323.833 294.724 294.724 0 0 0 99.281-221.433A299.403 299.403 0 0 0 975.657 88.367h-25.99a369.575 369.575 0 0 1 48.342 73.291zM912.762 615.96h-4.158z"/><path d="M672.616 71.733a259.898 259.898 0 0 1 133.588 483.93l-112.276 68.094 116.954 57.178a398.164 398.164 0 0 1 218.314 271.333h-713.68a398.164 398.164 0 0 1 218.315-271.333l117.474-57.178-112.276-67.054a259.898 259.898 0 0 1 133.587-483.93m0-71.212A331.63 331.63 0 0 0 502.123 617a476.133 476.133 0 0 0-269.774 407h880.015A476.133 476.133 0 0 0 842.59 617 331.63 331.63 0 0 0 672.616.002z"/></svg>