<svg class="icon" viewBox="0 0 1024 1024" xmlns="http://www.w3.org/2000/svg" width="200" height="200"><defs><style/></defs><path d="M384 544a96 96 0 0 1 96 96v192a96 96 0 0 1-96 96H192a96 96 0 0 1-96-96V640a96 96 0 0 1 96-96zm343.104 0a32 32 0 0 1 31.488 26.24l.512 5.76v320a32 32 0 0 1-63.488 5.76l-.512-5.76V608h-64v288a32 32 0 0 1-63.488 5.76l-.512-5.76V608h-12.032a32 32 0 0 1-5.76-63.488l5.76-.512h172.032zm128 160a32 32 0 0 1 31.488 26.24l.512 5.76v160a32 32 0 0 1-63.488 5.76l-.512-5.76V736a32 32 0 0 1 32-32zM384 608H192a32 32 0 0 0-32 32v192a32 32 0 0 0 32 32h192a32 32 0 0 0 32-32V640a32 32 0 0 0-32-32zm-96 64a64 64 0 1 1 0 128 64 64 0 0 1 0-128zm608-128a32 32 0 0 1 5.76 63.488L896 608h-76.992a32 32 0 0 1-5.76-63.488l5.76-.512H896zM384 96a96 96 0 0 1 96 96v192a96 96 0 0 1-96 96H192a96 96 0 0 1-96-96V192a96 96 0 0 1 96-96zm448 0a96 96 0 0 1 96 96v192a96 96 0 0 1-96 96H640a96 96 0 0 1-96-96V192a96 96 0 0 1 96-96zm-448 64H192a32 32 0 0 0-32 32v192a32 32 0 0 0 32 32h192a32 32 0 0 0 32-32V192a32 32 0 0 0-32-32zm448 0H640a32 32 0 0 0-32 32v192a32 32 0 0 0 32 32h192a32 32 0 0 0 32-32V192a32 32 0 0 0-32-32zm-544 64a64 64 0 1 1 0 128 64 64 0 0 1 0-128zm448 0a64 64 0 1 1 0 128 64 64 0 0 1 0-128z"/></svg>