<?xml version="1.0" standalone="no"?><!DOCTYPE svg PUBLIC "-//W3C//DTD SVG 1.1//EN" "http://www.w3.org/Graphics/SVG/1.1/DTD/svg11.dtd"><svg t="1608283173420" class="icon" viewBox="0 0 1024 1024" version="1.1" xmlns="http://www.w3.org/2000/svg" p-id="1324" xmlns:xlink="http://www.w3.org/1999/xlink" width="200" height="200"><defs><style type="text/css"></style></defs><path d="M384 544A96 96 0 0 1 480 640v192A96 96 0 0 1 384 928H192A96 96 0 0 1 96 832v-192A96 96 0 0 1 192 544z m343.104 0a32 32 0 0 1 31.488 26.24l0.512 5.76v320a32 32 0 0 1-63.488 5.76l-0.512-5.76V608h-64V896a32 32 0 0 1-63.488 5.76L567.104 896V608h-12.032a32 32 0 0 1-5.76-63.488l5.76-0.512h172.032z m128 160a32 32 0 0 1 31.488 26.24l0.512 5.76V896a32 32 0 0 1-63.488 5.76l-0.512-5.76v-160a32 32 0 0 1 32-32zM384 608H192a32 32 0 0 0-32 32v192a32 32 0 0 0 32 32h192a32 32 0 0 0 32-32v-192a32 32 0 0 0-32-32z m-96 64a64 64 0 1 1 0 128 64 64 0 0 1 0-128z m608-128a32 32 0 0 1 5.76 63.488L896 608h-76.992a32 32 0 0 1-5.76-63.488l5.76-0.512H896z m-512-448A96 96 0 0 1 480 192v192A96 96 0 0 1 384 480H192A96 96 0 0 1 96 384V192A96 96 0 0 1 192 96z m448 0A96 96 0 0 1 928 192v192A96 96 0 0 1 832 480h-192A96 96 0 0 1 544 384V192A96 96 0 0 1 640 96z m-448 64H192a32 32 0 0 0-32 32v192a32 32 0 0 0 32 32h192a32 32 0 0 0 32-32V192a32 32 0 0 0-32-32z m448 0h-192a32 32 0 0 0-32 32v192a32 32 0 0 0 32 32h192a32 32 0 0 0 32-32V192a32 32 0 0 0-32-32z m-544 64a64 64 0 1 1 0 128 64 64 0 0 1 0-128z m448 0a64 64 0 1 1 0 128 64 64 0 0 1 0-128z" p-id="1325"></path></svg>