<svg class="icon" viewBox="0 0 1060 1024" xmlns="http://www.w3.org/2000/svg" width="207.031" height="200"><defs><style/></defs><path d="M522.964 978.644c-9.93 0-23.17-6.62-29.79-13.24L380.639 849.558H109.227C49.648 849.558 0 803.219 0 740.331V154.48C0 94.901 49.648 45.253 109.227 45.253H949.94c59.578 0 109.227 49.648 109.227 109.226v589.162c0 62.888-49.649 109.227-109.227 109.227-16.55 0-26.48-9.93-26.48-26.48s9.93-26.479 26.48-26.479c26.48 0 52.958-26.479 52.958-52.958V154.48c0-26.479-26.479-52.958-52.958-52.958H109.227c-26.48 0-52.959 26.479-52.959 52.958v589.162c0 29.79 26.48 52.959 52.959 52.959h284.651c9.93 0 13.24 3.31 19.86 9.93l115.846 115.846L642.12 806.529c6.62-6.62 9.93-9.93 19.86-9.93h105.917c16.55 0 26.479 9.93 26.479 26.48s-9.93 26.479-26.48 26.479H671.91L559.373 965.404c-9.93 6.62-19.86 13.24-36.409 13.24zm0 0"/><path d="M334.3 439.13c0 29.79-26.48 56.269-56.268 56.269s-56.269-26.48-56.269-56.268 26.48-56.269 56.269-56.269 56.268 23.17 56.268 56.269m251.552-3.31c0 29.789-26.48 56.268-56.268 56.268-29.79 0-56.268-26.48-56.268-56.268 0-29.79 26.479-56.269 56.268-56.269s56.268 26.48 56.268 56.269m251.552 3.31c0 29.789-26.479 56.268-56.268 56.268s-56.268-26.48-56.268-56.268 26.48-56.269 56.268-56.269c29.79 0 56.268 23.17 56.268 56.269"/></svg>