<svg class="icon" viewBox="0 0 1024 1024" xmlns="http://www.w3.org/2000/svg" width="200" height="200"><defs><style/></defs><path d="M679.408 744.52c-14.17 0-27.823-7.86-34.547-21.307-9.516-19.032-1.758-42.305 17.274-51.82l103.02-51.511c19.032-9.516 42.305-1.862 51.821 17.274 9.516 19.031 1.759 42.304-17.273 51.82l-103.021 51.51c-5.585 2.69-11.481 4.034-17.274 4.034zm0-154.53c-14.17 0-27.823-7.862-34.547-21.308-9.516-19.032-1.758-42.305 17.274-51.82l103.02-51.51c19.032-9.517 42.305-1.76 51.821 17.273 9.516 19.032 1.759 42.304-17.273 51.82l-103.021 51.51c-5.585 2.69-11.481 4.034-17.274 4.034zm0-154.428c-14.17 0-27.823-7.861-34.547-21.307-9.516-19.032-1.758-42.305 17.274-51.821l103.02-51.51c19.032-9.516 42.305-1.862 51.821 17.273 9.516 19.032 1.759 42.305-17.273 51.82l-103.021 51.511c-5.585 2.69-11.481 4.034-17.274 4.034zm-321.887 296.03c-5.793 0-11.688-1.346-17.274-4.035l-102.917-51.51c-19.032-9.516-26.79-32.685-17.273-51.82 9.516-19.033 32.788-26.79 51.82-17.274l103.02 51.51c19.033 9.516 26.79 32.685 17.274 51.82-6.826 13.447-20.48 21.308-34.65 21.308zm0-154.428c-5.793 0-11.688-1.345-17.274-4.034l-103.02-51.51c-19.032-9.517-26.79-32.686-17.274-51.821 9.516-19.032 32.789-26.79 51.82-17.274l103.021 51.51c19.032 9.517 26.79 32.686 17.274 51.821-6.723 13.447-20.377 21.308-34.547 21.308zm0-154.531c-5.793 0-11.688-1.345-17.274-4.034l-103.02-51.51c-19.032-9.516-26.79-32.686-17.274-51.821 9.516-19.032 32.789-26.79 51.82-17.274l103.021 51.51c19.032 9.517 26.79 32.686 17.274 51.821-6.723 13.447-20.377 21.308-34.547 21.308zm0 0"/><path d="M512.052 1001.968c-10.86 0-21.515-3.413-30.513-10.033a51.446 51.446 0 0 1-20.998-41.477V203.766c0-22.549 14.585-42.408 36.099-49.132L908.619 25.86c15.619-4.862 32.685-2.07 45.821 7.654a51.446 51.446 0 0 1 20.998 41.477v746.692c0 22.55-14.585 42.409-36.099 49.132L527.36 999.589c-4.965 1.552-10.137 2.38-15.308 2.38zm51.51-760.345V880.33l308.958-96.505V145.118l-308.958 96.505zm0 0"/><path d="M512.052 1001.968c-5.172 0-10.344-.827-15.412-2.379L84.764 870.814c-21.514-6.62-36.202-26.583-36.202-49.132V75.093A51.445 51.445 0 0 1 69.56 33.616a51.455 51.455 0 0 1 45.821-7.654L527.36 154.738a51.398 51.398 0 0 1 36.099 49.131v746.693a51.445 51.445 0 0 1-20.998 41.477 51.326 51.326 0 0 1-30.41 9.93zM151.583 783.825l308.958 96.505V241.623l-308.958-96.505v638.707zm0 0"/></svg>