<svg class="icon" viewBox="0 0 1024 1024" xmlns="http://www.w3.org/2000/svg" width="200" height="200"><defs><style/></defs><path d="M798.416 224.976c-76.58-76.58-178.403-118.693-286.659-118.693s-210.079 42.113-286.659 118.693c-76.58 76.58-118.693 178.403-118.693 286.659s42.113 210.079 118.693 286.659c76.58 76.58 178.403 118.693 286.659 118.693s210.079-42.113 286.659-118.693c76.58-76.58 118.693-178.403 118.693-286.659s-42.113-210.079-118.693-286.659zM511.758 859.948c-192.117 0-348.311-156.194-348.311-348.311s156.194-348.311 348.311-348.311S860.069 319.52 860.069 511.637 703.875 859.948 511.758 859.948z"/><path d="M563.337 296.945H459.33v41.506H304.228v33.253h68.571l-55.463 154.617h62.017l-65.051 184.835h103.523l65.051-184.835h60.682v184.835h173.063v-33.253h-69.055V526.32h16.626c27.914 0 48.06-27.549 39.322-54.128l-19.661-58.982H582.03l21.36 63.351c3.035 7.888-3.519 16.626-12.257 16.626H437.002l40.172-121.484h241.633V338.45H563.341v-41.506z"/></svg>