<svg class="icon" viewBox="0 0 1024 1024" xmlns="http://www.w3.org/2000/svg" width="200" height="200"><defs><style/></defs><path d="M672 64a96 96 0 0 1 95.552 86.784L768 160v215.424a32 32 0 0 1-63.488 5.76l-.512-5.76V160a32 32 0 0 0-26.24-31.488L672 128H160a32 32 0 0 0-31.488 26.24L128 160v704a32 32 0 0 0 26.24 31.488L160 896h443.648a32 32 0 0 1 5.76 63.488l-5.76.512H160a96 96 0 0 1-95.616-86.784L64 864V160a96 96 0 0 1 86.72-95.552L160 64h512zm-36.928 384a187.072 187.072 0 0 1 152.96 294.72l162.56 162.688a32 32 0 0 1-40.768 48.96l-4.48-3.712-162.56-162.624A187.072 187.072 0 1 1 635.136 448zm0 64a123.072 123.072 0 1 0 0 246.144 123.072 123.072 0 0 0 0-246.144zM352 672a32 32 0 0 1 5.76 63.488L352 736H224a32 32 0 0 1-5.76-63.488L224 672h128zm64-224a32 32 0 0 1 5.76 63.488L416 512H224a32 32 0 0 1-5.76-63.488L224 448h192zm192-224a32 32 0 0 1 5.76 63.488L608 288H224a32 32 0 0 1-5.76-63.488L224 224h384z"/></svg>