<?xml version="1.0" standalone="no"?><!DOCTYPE svg PUBLIC "-//W3C//DTD SVG 1.1//EN" "http://www.w3.org/Graphics/SVG/1.1/DTD/svg11.dtd"><svg t="1608282716839" class="icon" viewBox="0 0 1024 1024" version="1.1" xmlns="http://www.w3.org/2000/svg" p-id="3817" xmlns:xlink="http://www.w3.org/1999/xlink" width="200" height="200"><defs><style type="text/css"></style></defs><path d="M887.456 443.744l102.4 136.512h-76.064c-32.48 192.544-200 339.2-401.792 339.2a407.104 407.104 0 0 1-342.56-186.752 32 32 0 0 1 53.76-34.688A343.104 343.104 0 0 0 512 855.456c166.304 0 305.024-118.208 336.672-275.2h-63.616l102.4-136.512zM512 104.544c145.664 0 278.016 77.12 350.848 200.16a32 32 0 0 1-55.04 32.608A343.232 343.232 0 0 0 512 168.544c-178.176 0-324.64 135.648-341.76 309.312h68.704l-102.4 136.544-102.4-136.544H105.92C123.296 268.8 298.464 104.544 512 104.544z" fill="#717378" p-id="3818"></path></svg>