<svg class="icon" viewBox="0 0 1024 1024" xmlns="http://www.w3.org/2000/svg" width="200" height="200"><defs><style/></defs><path d="M396.544 135.968L73.28 459.2a44.8 44.8 0 0 0 0 63.36l323.264 323.264a35.2 35.2 0 0 0 24.896 10.304l3.84-.192a35.2 35.2 0 0 0 31.36-35.008l-.032-189.024 10.656.416c146.08 7.2 278.304 80.256 359.68 196.032l47.36 67.456 10.56-81.792a428.912 428.912 0 0 0 3.424-54.144l-.096-9.792c-5.216-227.968-191.84-412.096-424.672-422.144l-6.88-.224v-166.88a35.2 35.2 0 0 0-60.096-24.864zm-3.904 94.368v163.04l33.408-1.44a392.75 392.75 0 0 1 17.408-.384l9.696.096c189.888 4.608 345.024 143.552 368.16 321.92l1.152 10.304-2.496-2.56c-97.664-96.768-232.192-153.536-376.512-153.536-6.688 0-13.344.096-19.968.32l-30.848 1.152v182.176L132.096 490.88 392.64 230.336z"/></svg>