<?xml version="1.0" standalone="no"?><!DOCTYPE svg PUBLIC "-//W3C//DTD SVG 1.1//EN" "http://www.w3.org/Graphics/SVG/1.1/DTD/svg11.dtd"><svg t="1608282859475" class="icon" viewBox="0 0 1024 1024" version="1.1" xmlns="http://www.w3.org/2000/svg" p-id="2092" xmlns:xlink="http://www.w3.org/1999/xlink" width="200" height="200"><defs><style type="text/css"></style></defs><path d="M912.193043 803.926339L576.410922 152.772737a73.756467 73.756467 0 0 0-131.133846-0.036125L109.422705 803.926339c-11.812884 22.867142-10.837508 50.249912 2.564877 72.213928s37.281027 35.402526 63.002046 35.402526h671.636492c25.721019 0 49.599661-13.402385 63.002046-35.402526 13.402385-21.964016 14.377761-49.346786 2.564877-72.213928z m-737.16729 33.84915l335.818246-651.189727 335.818246 651.189727H175.025753z" p-id="2093"></path><path d="M454.416708 455.970084l19.507514 190.95689c1.734001 17.159388 15.317011 31.320398 33.126649 33.126649 20.374515 2.095252 38.581528-12.752134 40.67678-33.126649l19.507514-190.95689c0.325125-3.648628 0.36125-7.730756 0-11.523883-3.179002-31.139773-31.031398-53.826289-62.17117-50.647288s-53.826289 31.031398-50.647287 62.171171zM510.807874 699.994638c-20.374515 0-36.883652 16.509137-36.883652 36.883652v13.94426c0 20.374515 16.509137 36.883652 36.883652 36.883652 20.374515 0 36.919777-16.545262 36.883652-36.883652v-13.94426c0-20.374515-16.509137-36.883652-36.883652-36.883652z" p-id="2094"></path></svg>