<svg class="icon" viewBox="0 0 1024 1024" xmlns="http://www.w3.org/2000/svg" width="200" height="200"><defs><style/></defs><path d="M912.193 803.926L576.411 152.773a73.756 73.756 0 0 0-131.134-.036l-335.854 651.19c-11.813 22.866-10.838 50.25 2.565 72.213s37.28 35.403 63.002 35.403h671.636a73.77 73.77 0 0 0 63.002-35.403 73.711 73.711 0 0 0 2.565-72.214zm-737.167 33.85l335.818-651.19 335.818 651.19H175.026z"/><path d="M454.417 455.97l19.507 190.957c1.734 17.16 15.317 31.32 33.127 33.127 20.374 2.095 38.581-12.753 40.677-33.127l19.507-190.957c.325-3.649.361-7.73 0-11.524-3.179-31.14-31.031-53.826-62.171-50.647s-53.826 31.031-50.647 62.171zm56.39 244.025c-20.374 0-36.883 16.509-36.883 36.883v13.945c0 20.374 16.51 36.883 36.884 36.883s36.92-16.545 36.884-36.883v-13.945c0-20.374-16.51-36.883-36.884-36.883z"/></svg>