<svg class="icon" viewBox="0 0 1084 1024" xmlns="http://www.w3.org/2000/svg" width="211.719" height="200"><defs><style/></defs><path d="M546.504 81.82c199.4-102.007 390.954-112.624 483.73-9.23 86.315 96.007 66.467 265.404-34.618 439.418 101.085 174.014 120.471 343.412 34.618 439.42-92.314 103.853-286.637 92.314-487.884-11.079-201.246 103.855-394.185 114.932-487.884 11.078-86.315-95.546-66.467-265.405 34.618-439.419C-11.54 337.994-31.85 168.597 54.466 72.59 146.78-31.265 341.104-19.726 542.35 83.667zm386.338 525.272l-9.693 12.463a1177.938 1177.938 0 0 1-144.011 155.089 1195.478 1195.478 0 0 1-132.01 103.393c138.472 58.62 258.02 61.39 308.331 5.539s36.926-156.936-22.617-276.945zm-780.522 0c-59.544 120.01-68.775 224.787-22.618 276.945s169.398 53.081 308.332-5.539a1200.094 1200.094 0 0 1-132.01-103.392 1170.092 1170.092 0 0 1-154.166-168.014zm390.03-408.031l-7.847 4.615a1075.93 1075.93 0 0 0-161.09 120.471A1051.467 1051.467 0 0 0 208.17 512.008a1051.928 1051.928 0 0 0 165.244 187.4A1072.7 1072.7 0 0 0 542.35 824.493a1074.546 1074.546 0 0 0 168.936-125.087 1051.928 1051.928 0 0 0 165.244-187.86 1051.467 1051.467 0 0 0-165.244-187.861A1071.776 1071.776 0 0 0 542.35 199.522zm0 161.089a151.396 151.396 0 1 1-151.396 151.397A151.396 151.396 0 0 1 542.35 360.612zm0 99.239a50.312 50.312 0 1 0 50.312 50.311 50.312 50.312 0 0 0-50.312-50.311zm412.648-323.103c-50.312-55.85-169.398-53.08-308.332 5.54a1204.248 1204.248 0 0 1 132.01 103.392A1170.553 1170.553 0 0 1 932.381 412.77c59.543-119.548 68.774-224.787 22.617-276.945zm-825.757 0c-46.158 51.697-36.926 156.936 22.617 276.945a1172.4 1172.4 0 0 1 154.166-163.859A1195.478 1195.478 0 0 1 437.573 145.98C299.1 87.36 179.553 84.59 129.24 140.441zm0 0"/></svg>