<?xml version="1.0" standalone="no"?><!DOCTYPE svg PUBLIC "-//W3C//DTD SVG 1.1//EN" "http://www.w3.org/Graphics/SVG/1.1/DTD/svg11.dtd"><svg t="1608282912603" class="icon" viewBox="0 0 1084 1024" version="1.1" xmlns="http://www.w3.org/2000/svg" p-id="2524" xmlns:xlink="http://www.w3.org/1999/xlink" width="211.71875" height="200"><defs><style type="text/css"></style></defs><path d="M546.504316 81.820558c199.400223-102.007985 390.953679-112.6242 483.730172-9.231491 86.314449 96.007515 66.466741 265.40539-34.618094 439.419011 101.084836 174.013621 120.470968 343.411496 34.618094 439.419011-92.314918 103.854283-286.637821 92.314918-487.884343-11.077791-201.246522 103.854283-394.184701 114.932073-487.884343 11.077791-86.314449-95.54594-66.466741-265.40539 34.618094-439.419011-100.623261-174.013621-120.932543-343.411496-34.618094-439.419011 92.314918-103.854283 286.637821-92.314918 487.884343 11.07779z m386.337933 525.271885l-9.693066 12.462514a1177.938357 1177.938357 0 0 1-144.011273 155.089063 1195.478192 1195.478192 0 0 1-132.010333 103.392709c138.472377 58.619973 258.020197 61.389421 308.331827 5.538895s36.925967-156.935361-22.617155-276.944755z m-780.522634 0c-59.543122 120.009394-68.774614 224.786826-22.617155 276.944755s169.397875 53.081078 308.331827-5.538895a1200.093938 1200.093938 0 0 1-132.010333-103.392708 1170.091589 1170.091589 0 0 1-154.165913-168.013152z m390.03053-408.031938l-7.846768 4.615745a1075.930373 1075.930373 0 0 0-161.089533 120.470969 1051.466919 1051.466919 0 0 0-165.243703 187.860859 1051.928494 1051.928494 0 0 0 165.243703 187.399284 1072.69935 1072.69935 0 0 0 168.936301 125.086714 1074.545649 1074.545649 0 0 0 168.9363-125.086714 1051.928494 1051.928494 0 0 0 165.243704-187.860859 1051.466919 1051.466919 0 0 0-165.243704-187.860859 1071.776201 1071.776201 0 0 0-168.9363-124.163565z m0 161.089532a151.396466 151.396466 0 1 1-151.396466 151.396466 151.396466 151.396466 0 0 1 151.396466-150.934891z m0 99.238537a50.31163 50.31163 0 1 0 50.31163 50.311631 50.31163 50.31163 0 0 0-50.31163-50.311631z m412.647685-323.102214c-50.31163-55.850526-169.397875-53.081078-308.331827 5.538895a1204.248109 1204.248109 0 0 1 132.010333 103.392709 1170.553164 1170.553164 0 0 1 153.704339 167.551576c59.543122-119.547819 68.774614-224.786826 22.617155-276.944754z m-825.756944 0c-46.157459 51.696354-36.925967 156.935361 22.617155 276.944755A1172.399462 1172.399462 0 0 1 306.023954 249.372135a1195.478192 1195.478192 0 0 1 131.548759-103.392708c-138.472377-58.619973-258.020197-61.389421-308.331827-5.538896z m0 0" p-id="2525"></path></svg>