<svg class="icon" viewBox="0 0 1024 1024" xmlns="http://www.w3.org/2000/svg" width="200" height="200"><defs><style/></defs><path d="M170.656 673.344v151.552c0 14.496 10.88 26.464 24.896 28.224l3.552.224 176.352-.032V921.6h-176.32a96.704 96.704 0 0 1-96.544-90.816l-.192-5.888V673.344h68.256zm750.944 3.2v148.352a96.704 96.704 0 0 1-90.816 96.512l-5.888.192H648.512v-68.288h176.384a28.48 28.48 0 0 0 28.224-24.864l.224-3.552V676.544H921.6zm27.744-198.688c3.52 0 6.4 2.88 6.4 6.4v55.488a6.4 6.4 0 0 1-6.4 6.4H74.656a6.4 6.4 0 0 1-6.4-6.4v-55.488c0-3.52 2.88-6.4 6.4-6.4h874.688zM375.456 102.4v68.256h-176.32a28.48 28.48 0 0 0-28.256 24.896l-.224 3.552V355.84H102.4V199.104a96.704 96.704 0 0 1 90.816-96.512l5.888-.192h176.352zm449.44 0a96.704 96.704 0 0 1 96.512 90.816l.192 5.888v156.672h-68.256V199.104a28.448 28.448 0 0 0-24.896-28.224l-3.552-.224H648.512V102.4h176.384z"/></svg>