<svg class="icon" viewBox="0 0 1026 1024" xmlns="http://www.w3.org/2000/svg" width="200.391" height="200"><defs><style/></defs><path d="M514.87 724.114c-7.315 0-14.63 0-29.258-7.314L193.041 555.886v182.857c0 7.314 7.314 21.943 14.628 21.943l299.886 138.971h21.943l292.571-138.971c7.315-7.315 14.629-14.629 14.629-21.943V555.886L544.127 716.8c-14.629 7.314-21.943 7.314-29.258 7.314zm497.37-373.028L529.499 109.714c-7.314-7.314-21.943-7.314-29.257 0L17.498 358.4c-14.629 7.314-21.943 21.943-14.629 36.571 0 7.315 7.315 7.315 14.629 14.629l175.543 95.086 307.2 168.228c7.314 7.315 14.628 7.315 29.257 0l307.2-168.228 95.086-51.2v380.343c0 14.628 14.628 29.257 29.257 21.942 14.628 0 21.943-14.628 21.943-21.942V416.914l29.257-14.628c14.628-7.315 14.628-21.943 14.628-36.572 0-7.314-7.314-7.314-14.628-14.628"/></svg>