<?xml version="1.0" standalone="no"?><!DOCTYPE svg PUBLIC "-//W3C//DTD SVG 1.1//EN" "http://www.w3.org/Graphics/SVG/1.1/DTD/svg11.dtd"><svg t="1608289008697" class="icon" viewBox="0 0 1024 1024" version="1.1" xmlns="http://www.w3.org/2000/svg" p-id="2164" xmlns:xlink="http://www.w3.org/1999/xlink" width="200" height="200"><defs><style type="text/css"></style></defs><path d="M389.631 872.243H118.096q-27.443 0-47.075-19.66t-19.66-48.012V68.58q0-28.35 19.66-48.45T118.096 0h691.2q27.443 0 46.636 20.129t19.192 48.45v278.85h-65.828V68.579l-691.2-1.843V804.57l271.535 1.844v65.828z m-176.45-711.329H680.39v66.736H213.182v-66.736z m0 161.822h376.686v65.828H213.182v-65.828z m0 160.914h253.25v66.735h-253.25V483.65z m0 160.914h253.25V711.3h-253.25v-66.736zM982.09 837.486L881.503 650.064q16.471-35.664 16.471-75.893 0-78.643-55.325-134.407T708.709 384t-134.406 55.325-55.765 133.94q0 39.321 16.472 77.706l-102.4 184.7q-5.5 9.158 1.375 18.286t17.818 6.408l86.864-19.193 29.257 82.3q3.658 10.972 14.629 11.879h1.843q10.065 0 14.629-9.158l89.614-164.571q17.38 1.843 19.193 1.843t5.5-0.907h5.5q3.658-0.907 6.408-0.907l89.615 165.479q4.564 9.157 15.535 9.157h0.907q10.972-0.907 15.536-10.971l29.257-82.3 86.864 20.128q10.065 1.843 17.38-6.407 6.406-9.158 1.842-19.193z m-398.629-22.85l-10.971-30.164q-2.75-7.315-10.065-5.5l-32.007 7.314 45.729-82.3q16.471 17.378 48.45 34.757zM707.803 693.95q-50.293 0-85.49-35.664t-35.196-85.958 35.665-85.49 85.957-35.195 85.49 35.664 34.757 85.957-36.103 85.49-85.022 35.196z m148.129 97.836q-9.158-1.843-11.879 7.314l-12.814 35.665-48.45-89.615q37.478-21.036 57.607-41.135l53.95 96.929z" p-id="2165"></path></svg>