<svg class="icon" viewBox="0 0 1202 1024" xmlns="http://www.w3.org/2000/svg" width="234.766" height="200"><defs><style/></defs><path d="M814.478 815.867a22.22 22.22 0 0 1-17.359-7.638l-35.76-41.835-53.117 12.845a21.872 21.872 0 0 1-17.36-3.471 22.22 22.22 0 0 1-9.026-16.144l-4.86-54.68-49.994-21.005a21.699 21.699 0 0 1-10.242-31.593l28.643-46.869-28.643-46.695a22.393 22.393 0 0 1-2.256-17.359 21.872 21.872 0 0 1 12.498-13.54l49.994-21.698 5.034-54.854a22.046 22.046 0 0 1 27.08-19.616l53.118 13.02 36.28-41.836a22.74 22.74 0 0 1 33.329 0l34.718 41.835 53.465-13.019a22.22 22.22 0 0 1 17.359 3.645 21.872 21.872 0 0 1 9.026 15.97l4.166 54.855 50.688 20.83a21.872 21.872 0 0 1 12.499 13.54 21.178 21.178 0 0 1-2.257 17.359l-28.642 46.695 28.642 46.87a20.83 20.83 0 0 1 2.257 17.358 21.872 21.872 0 0 1-12.499 13.54l-50.688 21.004-4.166 54.68a21.872 21.872 0 0 1-26.385 21.178l-53.292-12.845-34.718 41.835a22.567 22.567 0 0 1-17.532 7.638zm-44.265-95.821a21.872 21.872 0 0 1 17.359 7.638l27.6 32.46 27.775-32.46a22.046 22.046 0 0 1 21.872-7.117l41.314 10.068 3.298-42.53a21.699 21.699 0 0 1 13.54-18.4l39.405-16.49-22.22-36.28a21.872 21.872 0 0 1 0-22.915l22.22-36.28-39.405-16.317a22.22 22.22 0 0 1-13.54-18.574l-3.298-42.53-41.314 10.069a22.22 22.22 0 0 1-21.872-7.117l-28.469-31.94-27.6 32.46a21.872 21.872 0 0 1-21.7 7.118l-41.487-10.068-3.298 42.529a22.22 22.22 0 0 1-13.54 18.574l-39.405 16.317 22.22 36.28a21.004 21.004 0 0 1 0 22.914l-22.22 36.28 39.405 16.49a21.699 21.699 0 0 1 13.54 18.401l3.298 42.53 41.488-10.069a24.823 24.823 0 0 1 5.034-1.041z"/><path d="M875.234 768.477v178.45l-44.786-47.043a21.699 21.699 0 0 0-31.767 0l-44.612 47.042V768.477l-43.744 10.415v223.235a21.872 21.872 0 0 0 13.713 20.31 22.393 22.393 0 0 0 23.956-5.381l66.484-70.303 66.658 70.303a21.699 21.699 0 0 0 15.797 6.943 21.351 21.351 0 0 0 8.158-1.562 21.699 21.699 0 0 0 13.887-20.31V778.892z"/><path d="M999.003 89.225H203.446a114.221 114.221 0 0 0-114.221 114.22v528.231a114.221 114.221 0 0 0 114.22 114.222h506.88v-43.745h-506.88a70.65 70.65 0 0 1-70.65-70.477v-528.23a70.65 70.65 0 0 1 70.65-70.477h795.558a70.477 70.477 0 0 1 70.477 70.477v528.23a70.477 70.477 0 0 1-70.477 70.477h-80.025v43.745h80.025a114.395 114.395 0 0 0 114.221-114.222v-528.23A114.395 114.395 0 0 0 999.003 89.225z"/><path d="M1019.833 0H182.442A182.615 182.615 0 0 0 0 182.442V752.68a182.615 182.615 0 0 0 182.442 182.442h527.883v-43.744H182.442A138.87 138.87 0 0 1 43.57 752.507V182.442A138.87 138.87 0 0 1 182.44 43.57h837.392a138.87 138.87 0 0 1 138.871 138.87v570.24a138.87 138.87 0 0 1-138.87 138.87H918.977v43.745h100.855A182.789 182.789 0 0 0 1202.45 752.68V182.442A182.789 182.789 0 0 0 1019.833 0z"/><path d="M862.562 257.78H339.887a21.872 21.872 0 1 1 0-43.572h522.675a21.872 21.872 0 1 1 0 43.571zm95.127 110.228H244.76a22.046 22.046 0 1 1 0-43.918h712.929a22.046 22.046 0 1 1 0 43.918zM601.138 478.063H244.76a22.046 22.046 0 1 1 0-43.918h356.378a22.046 22.046 0 0 1 0 43.918zM458.795 619.538H244.76a22.046 22.046 0 1 1 0-43.918h214.035a22.046 22.046 0 1 1 0 43.918zm0 109.534H244.76a21.872 21.872 0 1 1 0-43.744h214.035a21.872 21.872 0 1 1 0 43.744z"/></svg>