<?xml version="1.0" standalone="no"?><!DOCTYPE svg PUBLIC "-//W3C//DTD SVG 1.1//EN" "http://www.w3.org/Graphics/SVG/1.1/DTD/svg11.dtd"><svg t="1608282525097" class="icon" viewBox="0 0 1024 1024" version="1.1" xmlns="http://www.w3.org/2000/svg" p-id="1387" xmlns:xlink="http://www.w3.org/1999/xlink" width="200" height="200"><defs><style type="text/css"></style></defs><path d="M816.46592 195.92704c56.63744 0 102.71744 46.08 102.71744 102.71744s-46.08 102.71744-102.71744 102.71744-102.71744-46.08-102.71744-102.71744 46.08-102.71744 102.71744-102.71744m0-61.44c-90.65984 0-164.15744 73.4976-164.15744 164.15744s73.4976 164.15744 164.15744 164.15744 164.15744-73.4976 164.15744-164.15744-73.4976-164.15744-164.15744-164.15744zM510.79168 711.04512c56.63744 0 102.71744 46.08 102.71744 102.71744S567.42912 916.48 510.79168 916.48s-102.71744-46.08-102.71744-102.71744 46.08-102.71744 102.71744-102.71744m0-61.44c-90.65984 0-164.15744 73.4976-164.15744 164.15744S420.13184 977.92 510.79168 977.92s164.15744-73.4976 164.15744-164.15744-73.4976-164.15744-164.15744-164.15744zM205.11744 190.26432c56.63744 0 102.71744 46.08 102.71744 102.71744s-46.08 102.71744-102.71744 102.71744S102.4 349.62432 102.4 292.98688s46.08-102.72256 102.71744-102.72256m0-61.44C114.4576 128.82432 40.96 202.32192 40.96 292.98688s73.4976 164.15744 164.15744 164.15744 164.15744-73.4976 164.15744-164.15744S295.7824 128.82432 205.11744 128.82432z" p-id="1388"></path><path d="M510.79168 128c74.61888 0 145.39776 23.65952 204.68736 68.42368l16.4864 12.40576h33.07008l11.48928-4.86912a101.79584 101.79584 0 0 1 39.94112-8.0384c56.63744 0 102.71744 46.08 102.71744 102.71744a102.912 102.912 0 0 1-43.55072 83.95776l-29.16352 20.57728 3.4304 35.52768a311.0912 311.0912 0 0 1 1.3568 29.75232c0 134.6816-79.5648 256.9216-202.7008 311.41888l-31.40096 13.89568-4.61824 34.02752c-6.8608 50.55488-50.60096 88.6784-101.74976 88.6784-51.14368 0-94.88896-38.12352-101.74976-88.6784l-4.61824-34.02752-31.40096-13.89568c-123.136-54.49728-202.7008-176.73216-202.7008-311.41888 0-11.8272 0.59392-23.45472 1.75616-34.56512l3.77856-35.97824-29.62944-20.75648A102.8608 102.8608 0 0 1 102.4 292.98688c0-56.63744 46.08-102.71744 102.71744-102.71744 15.01184 0 29.42464 3.1488 42.8288 9.36448l32.87552 15.232 29.24032-21.39648C368.59904 150.64064 438.01088 128 510.79168 128m0-61.44c-88.59136 0-170.55232 28.6976-237.00992 77.32224a162.85184 162.85184 0 0 0-68.66432-15.05792C114.43712 128.82432 40.96 202.30144 40.96 292.98688 40.96 348.63104 68.63872 397.824 110.98112 427.48416a393.15456 393.15456 0 0 0-2.09408 40.98048c0 164.0448 98.32448 305.21856 239.27296 367.60064C359.02976 916.16256 427.69408 977.92 510.79168 977.92c83.0976 0 151.76192-61.75744 162.63168-141.85472 140.94848-62.38208 239.27296-203.55584 239.27296-367.60064 0-12.00128-0.512-23.94624-1.64352-35.6608 42.11712-29.71648 69.57056-78.68416 69.57056-134.15424 0-90.68544-73.47712-164.15744-164.15744-164.15744-22.64064 0-44.26752 4.58752-63.90784 12.90752h-0.05632C685.25056 96.61952 601.47712 66.56 510.79168 66.56z" p-id="1389"></path></svg>