<svg class="icon" viewBox="0 0 1024 1024" xmlns="http://www.w3.org/2000/svg" width="200" height="200"><defs><style/></defs><path d="M816.466 195.927c56.637 0 102.717 46.08 102.717 102.717s-46.08 102.718-102.717 102.718-102.718-46.08-102.718-102.718 46.08-102.717 102.718-102.717m0-61.44c-90.66 0-164.158 73.498-164.158 164.157s73.498 164.158 164.158 164.158 164.157-73.498 164.157-164.158-73.497-164.157-164.157-164.157zM510.792 711.045c56.637 0 102.717 46.08 102.717 102.718S567.43 916.48 510.792 916.48 408.074 870.4 408.074 813.763s46.08-102.718 102.718-102.718m0-61.44c-90.66 0-164.158 73.498-164.158 164.158S420.132 977.92 510.792 977.92s164.157-73.498 164.157-164.157-73.497-164.158-164.157-164.158zm-305.675-459.34c56.638 0 102.718 46.08 102.718 102.717s-46.08 102.717-102.718 102.717S102.4 349.624 102.4 292.987s46.08-102.723 102.717-102.723m0-61.44c-90.66 0-164.157 73.498-164.157 164.163s73.498 164.157 164.157 164.157 164.158-73.497 164.158-164.157-73.493-164.163-164.158-164.163z"/><path d="M510.792 128c74.619 0 145.397 23.66 204.687 68.424l16.486 12.405h33.07l11.49-4.869a101.796 101.796 0 0 1 39.94-8.038c56.638 0 102.718 46.08 102.718 102.717a102.912 102.912 0 0 1-43.55 83.958l-29.164 20.577 3.43 35.528a311.091 311.091 0 0 1 1.357 29.752c0 134.682-79.564 256.922-202.7 311.42l-31.401 13.895-4.619 34.027c-6.86 50.555-50.6 88.679-101.75 88.679-51.143 0-94.888-38.124-101.75-88.679l-4.617-34.027-31.401-13.896c-123.136-54.497-202.701-176.732-202.701-311.419 0-11.827.594-23.454 1.756-34.565l3.779-35.978-29.63-20.756a102.86 102.86 0 0 1-43.822-84.168c0-56.638 46.08-102.718 102.717-102.718 15.012 0 29.425 3.15 42.83 9.365l32.875 15.232 29.24-21.397C368.6 150.641 438.011 128 510.792 128m0-61.44c-88.592 0-170.553 28.698-237.01 77.322a162.852 162.852 0 0 0-68.665-15.058c-90.68 0-164.157 73.477-164.157 164.163 0 55.644 27.679 104.837 70.021 134.497a393.155 393.155 0 0 0-2.094 40.98c0 164.045 98.325 305.22 239.273 367.601 10.87 80.098 79.534 141.855 162.632 141.855 83.097 0 151.762-61.757 162.631-141.855 140.949-62.382 239.273-203.556 239.273-367.6 0-12.002-.512-23.947-1.643-35.661 42.117-29.717 69.57-78.684 69.57-134.154 0-90.686-73.477-164.158-164.157-164.158-22.64 0-44.268 4.588-63.908 12.908h-.056c-67.251-50.78-151.025-80.84-241.71-80.84z"/></svg>