<svg class="icon" viewBox="0 0 1024 1024" xmlns="http://www.w3.org/2000/svg" width="200" height="200"><defs><style/></defs><path d="M383.608 191.804C383.608 85.811 297.745 0 191.804 0 85.861 0 0 85.811 0 191.804c0 105.89 47.5 191.804 153.443 191.804 25.423-102.395 125.02-179.167 230.165-191.804zm395.967 608.112c55.96-63.179 89.935-146.275 89.935-237.29 0-197.8-160.285-358.035-358.033-358.035-197.749 0-358.035 160.235-358.035 358.035 0 82.71 28.061 158.877 75.178 219.504L105.991 983.793c-7.593 12.485-3.097 28.521 10.09 35.765 13.137 7.191 30.018 2.894 37.611-9.59l113.096-185.987c64.012 59.957 150.06 96.677 244.69 96.677 86.648 0 166.102-30.786 228.032-82.008l104.178 171.318c7.59 12.484 24.475 16.782 37.61 9.59 13.188-7.244 17.685-23.279 10.09-35.765L779.576 799.916zM668.116 585.002h-156.64c-12.337 0-22.377-10.04-22.377-22.377V361.23c0-12.388 10.04-22.376 22.378-22.376 12.337 0 22.377 9.988 22.377 22.376v179.017h134.262c12.338 0 22.378 9.988 22.378 22.379 0 12.336-10.04 22.376-22.378 22.376zM831.15 0C725.208 0 639.346 85.811 639.346 191.804c105.142 12.637 204.738 89.409 230.164 191.804 105.942 0 153.443-85.914 153.443-191.804C1022.953 85.811 937.091 0 831.15 0z"/></svg>