<?xml version="1.0" standalone="no"?><!DOCTYPE svg PUBLIC "-//W3C//DTD SVG 1.1//EN" "http://www.w3.org/Graphics/SVG/1.1/DTD/svg11.dtd"><svg t="1608282915714" class="icon" viewBox="0 0 1024 1024" version="1.1" xmlns="http://www.w3.org/2000/svg" p-id="2656" xmlns:xlink="http://www.w3.org/1999/xlink" width="200" height="200"><defs><style type="text/css"></style></defs><path d="M512 0a512 512 0 1 0 512 512A512.433898 512.433898 0 0 0 512 0z m0 938.088136A554.522034 554.522034 0 0 1 390.508475 745.437288a775.376271 775.376271 0 0 1 121.491525-9.545763 725.477966 725.477966 0 0 1 117.152542 9.545763 544.108475 544.108475 0 0 1-117.152542 192.650848z m0-271.620339a833.952542 833.952542 0 0 0-143.620339 12.58305 661.261017 661.261017 0 0 1-20.39322-133.206779h321.518644a681.220339 681.220339 0 0 1-19.525424 130.169491 790.562712 790.562712 0 0 0-137.979661-9.545762zM71.159322 545.844068h208.271186a728.515254 728.515254 0 0 0 22.562712 149.261017 449.952542 449.952542 0 0 0-151.864406 71.59322 439.538983 439.538983 0 0 1-78.969492-220.854237zM507.661017 85.911864a554.088136 554.088136 0 0 1 120.18983 190.481356 682.955932 682.955932 0 0 1-115.850847 9.979661 722.874576 722.874576 0 0 1-121.925424-10.413559 542.80678 542.80678 0 0 1 117.586441-190.047458z m4.338983 269.884746a749.342373 749.342373 0 0 0 137.111864-13.016949 661.261017 661.261017 0 0 1 21.261017 134.508475H348.854237a680.786441 680.786441 0 0 1 20.393221-134.508475 787.525424 787.525424 0 0 0 142.752542 13.016949z m-232.569492 119.755932h-208.271186a439.538983 439.538983 0 0 1 81.138983-221.288135 462.101695 462.101695 0 0 0 149.694915 72.461017 748.474576 748.474576 0 0 0-22.562712 148.827118z m460.366102 72.027119l213.044068 3.037288a439.538983 439.538983 0 0 1-79.837288 216.949153A466.440678 466.440678 0 0 0 718.101695 694.237288a748.040678 748.040678 0 0 0 21.694915-146.657627z m0-69.423729a728.515254 728.515254 0 0 0-23.430508-151.430508 477.288136 477.288136 0 0 0 153.6-75.064407 439.538983 439.538983 0 0 1 83.308474 228.664407z m86.779661-278.562712a417.844068 417.844068 0 0 1-130.169491 61.61356 650.847458 650.847458 0 0 0-103.701695-183.105085 441.708475 441.708475 0 0 1 232.135593 121.491525zM422.183051 78.101695A642.60339 642.60339 0 0 0 322.386441 260.338983a397.450847 397.450847 0 0 1-125.39661-58.576271A442.142373 442.142373 0 0 1 422.183051 78.101695zM193.952542 819.2a384 384 0 0 1 130.169492-58.576271A650.847458 650.847458 0 0 0 425.220339 945.898305a442.142373 442.142373 0 0 1-231.267797-126.698305z m402.223729 126.698305a643.471186 643.471186 0 0 0 101.532204-185.708474 401.789831 401.789831 0 0 1 130.169491 60.311864 441.708475 441.708475 0 0 1-231.701695 125.39661z" p-id="2657"></path></svg>