<svg class="icon" viewBox="0 0 1024 1024" xmlns="http://www.w3.org/2000/svg" width="200" height="200"><defs><style/></defs><path d="M512 0a512 512 0 1 0 512 512A512.434 512.434 0 0 0 512 0zm0 938.088a554.522 554.522 0 0 1-121.492-192.65A775.376 775.376 0 0 1 512 735.891a725.478 725.478 0 0 1 117.153 9.545A544.108 544.108 0 0 1 512 938.088zm0-271.62a833.953 833.953 0 0 0-143.62 12.583 661.261 661.261 0 0 1-20.394-133.207h321.52a681.22 681.22 0 0 1-19.526 130.17A790.563 790.563 0 0 0 512 666.468zM71.16 545.844h208.27a728.515 728.515 0 0 0 22.563 149.261 449.953 449.953 0 0 0-151.864 71.593 439.539 439.539 0 0 1-78.97-220.854zM507.66 85.912a554.088 554.088 0 0 1 120.19 190.481A682.956 682.956 0 0 1 512 286.373a722.875 722.875 0 0 1-121.925-10.414A542.807 542.807 0 0 1 507.66 85.912zM512 355.797a749.342 749.342 0 0 0 137.112-13.017 661.261 661.261 0 0 1 21.26 134.508H348.855a680.786 680.786 0 0 1 20.393-134.508A787.525 787.525 0 0 0 512 355.797zM279.43 475.553H71.16a439.539 439.539 0 0 1 81.138-221.289 462.102 462.102 0 0 0 149.695 72.461 748.475 748.475 0 0 0-22.562 148.828zm460.367 72.027l213.044 3.037a439.539 439.539 0 0 1-79.838 216.95 466.44 466.44 0 0 0-154.901-73.33 748.04 748.04 0 0 0 21.695-146.657zm0-69.424a728.515 728.515 0 0 0-23.43-151.43 477.288 477.288 0 0 0 153.6-75.065 439.539 439.539 0 0 1 83.308 228.664zm86.78-278.563a417.844 417.844 0 0 1-130.17 61.614A650.847 650.847 0 0 0 592.705 78.102a441.708 441.708 0 0 1 232.136 121.491zM422.182 78.102a642.603 642.603 0 0 0-99.797 182.237 397.45 397.45 0 0 1-125.396-58.576A442.142 442.142 0 0 1 422.183 78.102zM193.953 819.2a384 384 0 0 1 130.169-58.576A650.847 650.847 0 0 0 425.22 945.898 442.142 442.142 0 0 1 193.953 819.2zm402.223 126.698A643.471 643.471 0 0 0 697.708 760.19a401.79 401.79 0 0 1 130.17 60.312 441.708 441.708 0 0 1-231.702 125.396z"/></svg>