<?xml version="1.0" standalone="no"?><!DOCTYPE svg PUBLIC "-//W3C//DTD SVG 1.1//EN" "http://www.w3.org/Graphics/SVG/1.1/DTD/svg11.dtd"><svg t="1608282870632" class="icon" viewBox="0 0 1024 1024" version="1.1" xmlns="http://www.w3.org/2000/svg" p-id="2806" xmlns:xlink="http://www.w3.org/1999/xlink" width="200" height="200"><defs><style type="text/css"></style></defs><path d="M874.045015 447.480703c-43.566782-13.36626-60.653919-68.20405-32.946024-105.701828 34.318775-46.492909-0.578-108.700205-50.430537-108.700204-7.225005 0-14.775136 1.300501-22.433641 4.154378-7.26113 2.709377-14.594511 3.973753-21.747266 3.973753-34.896776 0-65.530798-30.019897-64.483172-69.287801 1.156001-42.483031-31.753898-69.360051-65.314048-69.360051-19.471389 0-39.195654 9.067382-52.561914 29.441897-12.824384 19.543639-33.054399 29.297396-53.320539 29.297396s-40.46003-9.753757-53.320539-29.297396c-13.36626-20.374515-33.090524-29.441897-52.561913-29.441897-33.56015 0-66.433924 26.913145-65.314048 69.360051 1.047626 39.267904-29.586397 69.287801-64.483172 69.287801-7.152755 0-14.486136-1.264376-21.747266-3.973753-7.694631-2.853877-15.208636-4.154378-22.433642-4.154378-49.852537 0-84.749312 62.207296-50.430537 108.700204 27.707895 37.533902 10.620758 92.335568-32.946024 105.701828-61.80992 19.001764-61.80992 110.253581 0 129.255344 43.566782 13.36626 60.653919 68.20405 32.946024 105.701828-34.318775 46.492909 0.578 108.700205 50.430537 108.700204 7.225005 0 14.775136-1.300501 22.433642-4.154378 7.26113-2.709377 14.594511-3.973753 21.747266-3.973753 34.896776 0 65.530798 30.019897 64.483172 69.287801-1.119876 42.483031 31.753898 69.360051 65.314048 69.360051 19.471389 0 39.195654-9.067382 52.561913-29.441897 12.824384-19.543639 33.054399-29.297396 53.320539-29.297396s40.46003 9.753757 53.320539 29.297396c13.36626 20.374515 33.090524 29.441897 52.561914 29.441897 33.56015 0 66.433924-26.87702 65.314048-69.360051-1.047626-39.267904 29.586397-69.287801 64.483172-69.287801 7.152755 0 14.486136 1.264376 21.747266 3.973753 7.694631 2.853877 15.208636 4.154378 22.433641 4.154378 49.852537 0 84.749312-62.207296 50.430537-108.700204-27.707895-37.533902-10.620758-92.335568 32.946024-105.701828 61.80992-19.001764 61.80992-110.253581 0-129.255344z m-19.074014 67.337049c-40.134904 12.318634-72.069428 43.891907-85.435687 84.424187-13.65526 41.435405-6.430255 86.989064 19.326889 121.849714 1.192126 1.625626 1.119876 2.167502 1.011501 2.745502-0.108375 0.686376-0.397375 1.336626-0.686376 1.878502a127.441868 127.441868 0 0 0-42.735906-7.441756c-34.13815 0-67.62605 14.269385-91.829818 39.123404-25.179143 25.865519-38.509278 60.220419-37.533902 96.778946v0.758625c-24.203768-35.583151-63.796797-56.752417-106.315953-56.752416-42.085656 0-81.28131 20.735765-106.315953 56.607916v-0.65025c0.975376-36.558527-12.354759-70.913427-37.533902-96.742821-24.203768-24.890143-57.691667-39.159529-91.829818-39.159529-14.558386 0-28.936146 2.492627-42.663656 7.550131-0.325125-0.541875-0.65025-1.264376-0.758625-1.986877-0.07225-0.541875-0.180625-1.119876 1.0115-2.745502 25.757144-34.896776 32.982149-80.450434 19.32689-121.849714-13.36626-40.53228-45.300783-72.105553-85.327313-84.062937-0.794751-1.228251-0.794751-4.696253-0.07225-5.527129 40.134904-12.318634 72.069428-43.891907 85.435688-84.424187 13.65526-41.435405 6.430255-86.989064-19.32689-121.849714-1.192126-1.625626-1.119876-2.167502-1.0115-2.745502 0.108375-0.686376 0.397375-1.336626 0.686375-1.878501a126.545968 126.545968 0 0 0 42.735907 7.441755c34.13815 0 67.62605-14.269385 91.829817-39.123403 25.179143-25.865519 38.509278-60.220419 37.533902-96.778946v-0.794751c24.203768 35.583151 63.796797 56.752417 106.315953 56.752417 42.085656 0 81.28131-20.735765 106.315953-56.607917v0.650251c-0.975376 36.558527 12.354759 70.913427 37.533902 96.778946 24.239893 24.890143 57.691667 39.159529 91.829818 39.159528 14.558386 0 28.936146-2.492627 42.663656-7.55013 0.325125 0.578 0.65025 1.264376 0.758626 1.986876 0.07225 0.541875 0.180625 1.119876-1.011501 2.745502-25.757144 34.896776-32.982149 80.450434-19.326889 121.849714 13.36626 40.53228 45.300783 72.105553 85.327312 84.062937 0.794751 1.228251 0.794751 4.696253 0.07225 5.527129z" p-id="2807"></path><path d="M510.916249 348.967756c-90.131941 0-163.176745 73.044803-163.176744 163.176744 0 90.131941 73.080929 163.176745 163.176744 163.176745s163.176745-73.080929 163.176745-163.176745-73.044803-163.176745-163.176745-163.176744z m0 261.509066c-54.18754 0-98.296197-44.108657-98.296197-98.296197s44.108657-98.296197 98.296197-98.296197 98.296197 44.108657 98.296197 98.296197-44.108657 98.296197-98.296197 98.296197z" p-id="2808"></path></svg>