<svg class="icon" viewBox="0 0 1024 1024" xmlns="http://www.w3.org/2000/svg" width="200" height="200"><defs><style/></defs><path d="M874.045 447.48c-43.567-13.366-60.654-68.203-32.946-105.701 34.319-46.493-.578-108.7-50.43-108.7-7.226 0-14.776 1.3-22.434 4.154-7.261 2.71-14.595 3.974-21.747 3.974-34.897 0-65.531-30.02-64.484-69.288 1.156-42.483-31.754-69.36-65.314-69.36-19.471 0-39.195 9.067-52.562 29.442-12.824 19.543-33.054 29.297-53.32 29.297s-40.46-9.754-53.32-29.297c-13.367-20.375-33.091-29.442-52.563-29.442-33.56 0-66.434 26.913-65.314 69.36 1.048 39.268-29.586 69.288-64.483 69.288-7.153 0-14.486-1.265-21.747-3.974-7.695-2.854-15.209-4.154-22.434-4.154-49.852 0-84.749 62.207-50.43 108.7 27.708 37.534 10.62 92.335-32.946 105.702-61.81 19.001-61.81 110.253 0 129.255 43.567 13.366 60.654 68.204 32.946 105.702-34.319 46.493.578 108.7 50.43 108.7 7.225 0 14.775-1.3 22.434-4.154 7.261-2.71 14.594-3.974 21.747-3.974 34.897 0 65.531 30.02 64.483 69.288-1.12 42.483 31.754 69.36 65.314 69.36 19.472 0 39.196-9.068 52.562-29.442 12.825-19.544 33.055-29.297 53.32-29.297s40.46 9.753 53.321 29.297c13.367 20.374 33.09 29.442 52.562 29.442 33.56 0 66.434-26.877 65.314-69.36-1.047-39.268 29.587-69.288 64.484-69.288 7.152 0 14.486 1.264 21.747 3.974 7.694 2.854 15.208 4.154 22.433 4.154 49.853 0 84.75-62.207 50.431-108.7-27.708-37.534-10.62-92.336 32.946-105.702 61.81-19.002 61.81-110.254 0-129.255zm-19.074 67.338c-40.135 12.318-72.07 43.892-85.436 84.424-13.655 41.435-6.43 86.989 19.327 121.85 1.192 1.625 1.12 2.167 1.012 2.745-.109.687-.398 1.337-.687 1.879a127.442 127.442 0 0 0-42.736-7.442c-34.138 0-67.626 14.27-91.83 39.123-25.179 25.866-38.509 60.22-37.533 96.78v.758c-24.204-35.583-63.797-56.753-106.316-56.753-42.086 0-81.282 20.736-106.316 56.608v-.65c.975-36.558-12.355-70.913-37.534-96.743-24.204-24.89-57.692-39.16-91.83-39.16-14.558 0-28.936 2.493-42.664 7.55-.325-.541-.65-1.263-.758-1.986-.072-.542-.18-1.12 1.011-2.745 25.757-34.897 32.982-80.45 19.327-121.85-13.366-40.532-45.3-72.106-85.327-84.063-.795-1.228-.795-4.696-.072-5.527 40.135-12.319 72.069-43.892 85.435-84.424 13.656-41.436 6.43-86.99-19.327-121.85-1.192-1.626-1.12-2.168-1.011-2.746.108-.686.397-1.336.686-1.878a126.546 126.546 0 0 0 42.736 7.442c34.138 0 67.626-14.27 91.83-39.124 25.18-25.865 38.51-60.22 37.534-96.779v-.795c24.204 35.584 63.797 56.753 106.316 56.753 42.086 0 81.281-20.736 106.316-56.608v.65c-.976 36.559 12.355 70.914 37.534 96.78 24.24 24.89 57.691 39.159 91.83 39.159 14.558 0 28.936-2.493 42.663-7.55.325.578.65 1.264.759 1.986.072.542.18 1.12-1.012 2.746-25.757 34.897-32.982 80.45-19.327 121.85 13.367 40.532 45.301 72.105 85.328 84.063.795 1.228.795 4.696.072 5.527z"/><path d="M510.916 348.968c-90.132 0-163.176 73.045-163.176 163.177 0 90.131 73.08 163.176 163.176 163.176s163.177-73.08 163.177-163.177-73.045-163.176-163.177-163.176zm0 261.509c-54.187 0-98.296-44.109-98.296-98.296s44.109-98.297 98.296-98.297 98.296 44.11 98.296 98.297-44.108 98.296-98.296 98.296z"/></svg>