<svg class="icon" viewBox="0 0 1024 1024" xmlns="http://www.w3.org/2000/svg" width="200" height="200"><defs><style/></defs><path d="M511.22 5.117C231.854 5.117 4.577 232.384 4.577 511.736c0 279.338 227.277 506.603 506.643 506.603 279.362 0 506.64-227.267 506.64-506.603 0-279.351-227.278-506.62-506.64-506.62zm0 961.372c-250.773 0-454.79-204.006-454.79-454.753 0-250.761 204.017-454.769 454.79-454.769 250.77 0 454.788 204.008 454.788 454.769 0 250.746-204.018 454.753-454.788 454.753zm235.29-571.82l-303.347 31.462V283.813c0-14.313-11.614-25.926-25.927-25.926-14.32 0-25.926 11.613-25.926 25.926v147.685L246.448 446.52c-14.24 1.485-24.592 14.227-23.118 28.456 1.386 13.333 12.643 23.259 25.758 23.259.895 0 1.8-.052 2.708-.135l139.513-14.466v128.562c0 74.685 20.053 120.985 119.894 120.985H650.57c28.883 0 96.5 0 96.5-79.227 0-14.313-11.613-25.925-25.927-25.925s-25.927 11.612-25.927 25.925c0 21.707-1.77 27.378-44.646 27.378H511.202c-61.762 0-68.04-13.098-68.04-69.136V478.251l308.685-32c14.246-1.485 24.59-14.23 23.12-28.459-1.482-14.244-14.428-24.524-28.456-23.122z"/></svg>