<svg class="icon" viewBox="0 0 1024 1024" xmlns="http://www.w3.org/2000/svg" width="200" height="200"><defs><style/></defs><path d="M264 656a168 168 0 1 1 168-168 168.16 168.16 0 0 1-168 168zm0-288a120 120 0 1 0 120 120 120 120 0 0 0-120-120zm416 544a136 136 0 1 1 136-136 136.16 136.16 0 0 1-136 136zm0-224a88 88 0 1 0 88 88 88.16 88.16 0 0 0-88-88zm32-336a104 104 0 1 1 104-104 104.16 104.16 0 0 1-104 104zm0-160a56 56 0 1 0 56 56 56 56 0 0 0-56-56z"/><path d="M408 432a24 24 0 0 1-10.72-45.44l224-112a24 24 0 0 1 21.44 42.88l-224 112A23.04 23.04 0 0 1 408 432zm176 304a23.52 23.52 0 0 1-13.28-4l-192-128a24 24 0 1 1 26.56-40l192 128A24 24 0 0 1 584 736z"/></svg>