<?xml version="1.0" standalone="no"?><!DOCTYPE svg PUBLIC "-//W3C//DTD SVG 1.1//EN" "http://www.w3.org/Graphics/SVG/1.1/DTD/svg11.dtd"><svg t="1608283089463" class="icon" viewBox="0 0 1024 1024" version="1.1" xmlns="http://www.w3.org/2000/svg" p-id="4630" xmlns:xlink="http://www.w3.org/1999/xlink" width="200" height="200"><defs><style type="text/css"></style></defs><path d="M264 656A168 168 0 1 1 432 488 168.16 168.16 0 0 1 264 656z m0-288a120 120 0 1 0 120 120 120 120 0 0 0-120-120zM680 912a136 136 0 1 1 136-136 136.16 136.16 0 0 1-136 136z m0-224a88 88 0 1 0 88 88 88.16 88.16 0 0 0-88-88zM712 352a104 104 0 1 1 104-104 104.16 104.16 0 0 1-104 104z m0-160a56 56 0 1 0 56 56 56 56 0 0 0-56-56z" p-id="4631"></path><path d="M408 432a24 24 0 0 1-10.72-45.44l224-112a24 24 0 0 1 21.44 42.88l-224 112a23.04 23.04 0 0 1-10.72 2.56zM584 736a23.52 23.52 0 0 1-13.28-4l-192-128a24 24 0 1 1 26.56-40l192 128A24 24 0 0 1 584 736z" p-id="4632"></path></svg>