<svg class="icon" viewBox="0 0 1024 1024" xmlns="http://www.w3.org/2000/svg" width="200" height="200"><defs><style/></defs><path d="M829.394 325.378H716.18v-17.484c0-111.265-90.494-201.795-201.795-201.795S312.59 196.63 312.59 307.894v17.484H192.257l-91.035 592.848H920.43l-91.036-592.848zM384.84 307.894c0-71.42 58.089-129.545 129.544-129.545S643.93 236.474 643.93 307.894v17.484h-259.09v-17.484zm-130.592 89.734h58.342v110.976h72.25V397.628h259.089v110.976h72.25V397.628h51.225l68.854 448.348H185.394l68.854-448.348z"/><path d="M513.156 727.269c-90.927 0-151.292-35.98-151.292-59.823h-72.25c0 75.285 96.129 132.073 223.542 132.073 127.45 0 223.542-56.788 223.542-132.073h-72.25c0 23.806-60.365 59.823-151.292 59.823z"/></svg>