<svg class="icon" viewBox="0 0 1024 1024" xmlns="http://www.w3.org/2000/svg" width="200" height="200"><defs><style/></defs><path d="M69.818 69.818v744.727c0 76.8 62.837 139.637 139.637 139.637h605.09c76.8 0 139.637-62.837 139.637-139.637V69.818H69.818zm46.546 46.546h791.272v107.054H116.364V116.364zm791.272 698.181c0 51.2-41.89 93.091-93.09 93.091H209.454c-51.2 0-93.091-41.89-93.091-93.09V269.963h791.272v544.581z"/><path d="M512 747.055c111.71 0 200.145-90.764 200.145-200.146v-128c0-13.964-9.309-23.273-23.272-23.273s-23.273 9.31-23.273 23.273v128c0 86.11-69.818 153.6-153.6 153.6s-153.6-69.818-153.6-153.6v-128c0-13.964-9.31-23.273-23.273-23.273s-23.272 9.31-23.272 23.273v128c0 109.382 88.436 200.146 200.145 200.146z"/></svg>