<?xml version="1.0" standalone="no"?><!DOCTYPE svg PUBLIC "-//W3C//DTD SVG 1.1//EN" "http://www.w3.org/Graphics/SVG/1.1/DTD/svg11.dtd"><svg t="1608282866894" class="icon" viewBox="0 0 1024 1024" version="1.1" xmlns="http://www.w3.org/2000/svg" p-id="2663" xmlns:xlink="http://www.w3.org/1999/xlink" width="200" height="200"><defs><style type="text/css"></style></defs><path d="M829.394482 325.378113h-113.215832v-17.484512c0-111.265081-90.493191-201.794398-201.794398-201.794398S312.589854 196.628519 312.589854 307.893601v17.484512H192.257391l-91.035067 592.84781h819.207225l-91.035067-592.84781z m-444.554575-17.484512c0-71.419177 58.089043-129.544345 129.544345-129.544345s129.544345 58.125168 129.544345 129.544345v17.484512h-259.08869v-17.484512z m-130.591971 89.734565h58.341918v110.976082h72.250053v-110.976082h259.08869v110.976082h72.250053v-110.976082h51.225287l68.8543 448.347704H185.393636l68.8543-448.347704z" p-id="2664"></path><path d="M513.156001 727.269033c-90.926692 0-151.291611-35.980526-151.291611-59.823044h-72.250053c0 75.284555 96.128695 132.073097 223.541664 132.073097 127.449093 0 223.541664-56.788542 223.541664-132.073097h-72.250053c0 23.806392-60.364919 59.823044-151.291611 59.823044z" p-id="2665"></path></svg>