<svg class="icon" viewBox="0 0 1024 1024" xmlns="http://www.w3.org/2000/svg" width="200" height="200"><defs><style/></defs><path d="M682.667 290.133A34.133 34.133 0 0 1 648.533 256v-51.2H375.467V256a34.133 34.133 0 0 1-68.267 0v-51.2H85.333a34.133 34.133 0 0 1 0-68.267H307.2v-51.2a34.133 34.133 0 0 1 68.267 0v51.2h273.066v-51.2a34.133 34.133 0 0 1 68.267 0v51.2h221.867a34.133 34.133 0 0 1 0 68.267H716.8V256a34.133 34.133 0 0 1-34.133 34.133zm170.666 665.6H170.667c-66.031 0-102.4-36.369-102.4-102.4V426.667c0-66.031 36.369-102.4 102.4-102.4h682.666c66.031 0 102.4 36.369 102.4 102.4v426.666c0 66.031-36.369 102.4-102.4 102.4zM170.667 358.4c-47.224 0-68.267 21.043-68.267 68.267v426.666c0 47.224 21.043 68.267 68.267 68.267h682.666c47.224 0 68.267-21.043 68.267-68.267V426.667c0-47.224-21.043-68.267-68.267-68.267H170.667z"/></svg>