<svg class="icon" viewBox="0 0 1024 1024" xmlns="http://www.w3.org/2000/svg" width="200" height="200"><defs><style/></defs><path d="M320 928H128c-17.6 0-32-14.4-32-32V704c0-8 3.2-16 9.6-22.4l531.2-531.2c17.6-17.6 41.6-28.8 67.2-28.8s49.6 9.6 67.2 28.8L872 251.2c36.8 36.8 36.8 97.6 0 136l-83.2 83.2c-12.8 12.8-32 12.8-44.8 0l-96-96c-12.8-12.8-12.8-32 0-44.8 12.8-12.8 32-12.8 44.8 0l73.6 73.6 60.8-60.8c12.8-12.8 12.8-32 0-44.8L726.4 196.8c-12.8-12.8-33.6-12.8-44.8 0L160 716.8V864h147.2l342.4-342.4c12.8-12.8 32-12.8 44.8 0s12.8 32 0 44.8l-352 352C336 924.8 328 928 320 928z"/></svg>