<svg class="icon" viewBox="0 0 1024 1024" xmlns="http://www.w3.org/2000/svg" width="200" height="200"><defs><style/></defs><path d="M504 928a408 408 0 1 1 408-408 408.48 408.48 0 0 1-408 408zm0-768a360 360 0 1 0 360 360 360.32 360.32 0 0 0-360-360z"/><path d="M504 785.92c-80 0-157.76-45.28-211.84-124.32a24 24 0 1 1 39.68-27.2c45.6 66.88 106.88 103.52 172.16 103.52s126.56-36.64 172.16-103.52a24 24 0 0 1 39.68 27.2C661.76 740.64 584.48 785.92 504 785.92zM376 464a40 40 0 1 1 40-40 40 40 0 0 1-40 40zm0-48a8 8 0 1 0 8 8 8 8 0 0 0-8-8zm256 48a40 40 0 1 1 40-40 40 40 0 0 1-40 40zm0-48a8 8 0 1 0 8 8 8 8 0 0 0-8-8z"/></svg>