<?xml version="1.0" standalone="no"?><!DOCTYPE svg PUBLIC "-//W3C//DTD SVG 1.1//EN" "http://www.w3.org/Graphics/SVG/1.1/DTD/svg11.dtd"><svg t="1608283098473" class="icon" viewBox="0 0 1024 1024" version="1.1" xmlns="http://www.w3.org/2000/svg" p-id="4903" xmlns:xlink="http://www.w3.org/1999/xlink" width="200" height="200"><defs><style type="text/css"></style></defs><path d="M504 928A408 408 0 1 1 912 520 408.48 408.48 0 0 1 504 928z m0-768A360 360 0 1 0 864 520 360.32 360.32 0 0 0 504 160z" p-id="4904"></path><path d="M504 785.92c-80 0-157.76-45.28-211.84-124.32a24 24 0 1 1 39.68-27.2c45.6 66.88 106.88 103.52 172.16 103.52s126.56-36.64 172.16-103.52a24 24 0 0 1 39.68 27.2c-54.08 79.04-131.36 124.32-211.84 124.32zM376 464a40 40 0 1 1 40-40 40 40 0 0 1-40 40z m0-48a8 8 0 1 0 8 8 8 8 0 0 0-8-8zM632 464a40 40 0 1 1 40-40 40 40 0 0 1-40 40z m0-48a8 8 0 1 0 8 8 8 8 0 0 0-8-8z" p-id="4905"></path></svg>