<svg class="icon" viewBox="0 0 1024 1024" xmlns="http://www.w3.org/2000/svg" width="200" height="200"><defs><style/></defs><path d="M953.169 254.397L510.647 0 68.552 254.397v513.069L511.074 1024l421.144-242.853 6.414-3.848 14.964-8.55zm-289.03 180.856L520.48 684.092 371.69 425.42h287.747zM322.095 497.25l117.578 203.518H211.784zm382.664 13.682L808.654 700.34h-209.93zm-301-159.906l106.889-194.967L618.39 352.735zm38.052-222.33L325.514 339.908a70.975 70.975 0 1 0-67.554 123.137L145.94 669.127V300.145zm68.837 803.38l-269.362-155.63h201.808a70.975 70.975 0 0 0 70.119 62.85h6.84a70.547 70.547 0 0 0 63.28-61.996h194.11zM767.18 464.327a70.975 70.975 0 1 0-67.554-122.281L581.621 128.267 877.063 299.29V661.86z"/></svg>