<?xml version="1.0" standalone="no"?><!DOCTYPE svg PUBLIC "-//W3C//DTD SVG 1.1//EN" "http://www.w3.org/Graphics/SVG/1.1/DTD/svg11.dtd"><svg t="1608282922408" class="icon" viewBox="0 0 1024 1024" version="1.1" xmlns="http://www.w3.org/2000/svg" p-id="2924" xmlns:xlink="http://www.w3.org/1999/xlink" width="200" height="200"><defs><style type="text/css"></style></defs><path d="M184.746667 838.826667v-191.146667l-75.52-40.96v308.053333h307.626666l-40.533333-75.946666H184.746667zM184.746667 184.746667h192l40.533333-75.52H109.226667v309.333333l75.52-40.106667V184.746667zM838.826667 184.746667v191.146666l75.946666 40.96V109.226667h-308.48l40.533334 75.52h192zM838.826667 838.826667h-192.426667l-40.533333 75.946666h308.906666v-308.053333l-75.946666 40.533333v191.573334z" p-id="2925"></path><path d="M1024 512l-335.36-176.64L512 0 335.36 335.36 0 512l335.786667 176.64 170.666666 326.826667 5.546667 8.533333 176.64-335.36z m-757.333333-24.746667l3.84-7.253333L341.333333 341.333333l144.213334-75.946666a53.76 53.76 0 0 1 49.92 0l7.253333 3.84L682.666667 341.333333l75.946666 144.213334a53.76 53.76 0 0 1 0 49.92L682.666667 682.666667l-144.213334 75.52a53.333333 53.333333 0 0 1-49.493333 0L341.333333 682.666667l-74.666666-145.92a53.76 53.76 0 0 1 0-49.493334z" p-id="2926"></path></svg>