<svg class="icon" viewBox="0 0 1024 1024" xmlns="http://www.w3.org/2000/svg" width="200" height="200"><defs><style/></defs><path d="M184.747 838.827V647.68l-75.52-40.96v308.053h307.626l-40.533-75.946H184.747zm0-654.08h192l40.533-75.52H109.227V418.56l75.52-40.107V184.747zm654.08 0v191.146l75.946 40.96V109.227h-308.48l40.534 75.52h192zm0 654.08H646.4l-40.533 75.946h308.906V606.72l-75.946 40.533v191.574z"/><path d="M1024 512L688.64 335.36 512 0 335.36 335.36 0 512l335.787 176.64 170.666 326.827L512 1024l176.64-335.36zm-757.333-24.747l3.84-7.253 70.826-138.667 144.214-75.946a53.76 53.76 0 0 1 49.92 0l7.253 3.84 139.947 72.106 75.946 144.214a53.76 53.76 0 0 1 0 49.92l-75.946 147.2-144.214 75.52a53.333 53.333 0 0 1-49.493 0l-147.627-75.52-74.666-145.92a53.76 53.76 0 0 1 0-49.494z"/></svg>