<svg class="icon" viewBox="0 0 1024 1024" xmlns="http://www.w3.org/2000/svg" width="200" height="200"><defs><style/></defs><path d="M418.464 541.536a64 64 0 0 1 64 64V832a64 64 0 0 1-64 64H192a64 64 0 0 1-64-64V605.536a64 64 0 0 1 64-64h226.464zm0 64H192V832h226.464V605.536zm0-477.536a64 64 0 0 1 64 64v226.464a64 64 0 0 1-64 64H192a64 64 0 0 1-64-64V192a64 64 0 0 1 64-64h226.464zM832 128a64 64 0 0 1 64 64v226.464a64 64 0 0 1-64 64H605.536a64 64 0 0 1-64-64V192a64 64 0 0 1 64-64H832zm-413.536 64H192v226.464h226.464V192zM832 192H605.536v226.464H832V192zm-6.4 576c3.52 0 6.4 2.88 6.4 6.4v51.2a6.4 6.4 0 0 1-6.4 6.4H582.4a6.4 6.4 0 0 1-6.4-6.4v-51.2c0-3.52 2.88-6.4 6.4-6.4h243.2zm61.536-128c3.52 0 6.4 2.88 6.4 6.4v51.2a6.4 6.4 0 0 1-6.4 6.4h-307.2a6.4 6.4 0 0 1-6.4-6.4v-51.2c0-3.52 2.88-6.4 6.4-6.4h307.2z"/></svg>