<svg class="icon" viewBox="0 0 1024 1024" xmlns="http://www.w3.org/2000/svg" width="200" height="200"><defs><style/></defs><path d="M927.447 285.416a62.65 62.65 0 0 0-31.538-54.126L506.373 8.393a62.65 62.65 0 0 0-62.65 0l-387.83 225.88a62.65 62.65 0 0 0-30.686 54.552v448.776a62.65 62.65 0 0 0 31.537 54.126l387.832 222.044a62.65 62.65 0 0 0 62.223 0l389.536-225.027a62.65 62.65 0 0 0 31.538-54.552zM474.41 74.026l328.165 187.95-151.297 96.744-143.2-81.828a63.928 63.928 0 0 0-63.927 0L300.524 362.13l-151.723-97.597zm0 605.614l-127.856-73.73 121.89-75.436L588.2 615.712zM330.784 427.336l112.513-65.633v112.514a26.85 26.85 0 0 0 0 2.983h-4.688l-107.4 68.617zm172.606 47.307V357.868l119.759 67.337V563.29L502.11 478.053a29.407 29.407 0 0 0 0-5.114zM97.659 317.806l160.673 101.859v181.982a63.928 63.928 0 0 0 31.964 54.979l150.018 85.237v184.54l-340.95-195.62zm415.533 609.023V742.29l150.87-85.237a63.928 63.928 0 0 0 31.965-55.405V418.386l160.247-101.432V729.93zm0 0"/></svg>