<svg class="icon" viewBox="0 0 1024 1024" xmlns="http://www.w3.org/2000/svg" width="200" height="200"><defs><style/></defs><path d="M87.04 399.36a30.72 30.72 0 0 0-30.72 30.72v409.6a30.72 30.72 0 1 0 61.44 0v-409.6a30.72 30.72 0 0 0-30.72-30.72z"/><path d="M377.774 103.506a30.638 30.638 0 0 0-21.724 8.996L66.422 402.135a30.72 30.72 0 1 0 43.448 43.443l289.633-289.633a30.72 30.72 0 0 0-21.729-52.44zm268.452 5.12a30.72 30.72 0 0 0-21.724 52.439l289.633 289.633a30.618 30.618 0 0 0 21.724 8.996 30.72 30.72 0 0 0 21.724-52.439L667.95 117.622a30.648 30.648 0 0 0-21.724-8.996zM291.84 506.88a30.72 30.72 0 0 0-30.72 30.72v302.08a30.72 30.72 0 1 0 61.44 0V537.6a30.72 30.72 0 0 0-30.72-30.72zm440.32 0a30.72 30.72 0 0 0-30.72 30.72v302.08a30.72 30.72 0 1 0 61.44 0V537.6a30.72 30.72 0 0 0-30.72-30.72zm-87.04 296.96H378.88a30.72 30.72 0 1 0 0 61.44h266.24a30.72 30.72 0 1 0 0-61.44zm0-138.24H378.88a30.72 30.72 0 1 0 0 61.44h266.24a30.72 30.72 0 1 0 0-61.44zm-35.84-322.56H435.2a30.72 30.72 0 1 0 0 61.44h174.08a30.72 30.72 0 1 0 0-61.44z"/><path d="M732.16 506.88H291.84a30.72 30.72 0 1 0 0 61.44h440.32a30.72 30.72 0 1 0 0-61.44zm204.8-107.52a30.72 30.72 0 0 0-30.72 30.72v409.6a30.72 30.72 0 1 0 61.44 0v-409.6a30.72 30.72 0 0 0-30.72-30.72zM640 102.4H378.88a30.72 30.72 0 1 0 0 61.44H640a30.72 30.72 0 1 0 0-61.44z"/><path d="M936.96 808.96h-204.8a30.72 30.72 0 1 0 0 61.44h204.8a30.72 30.72 0 1 0 0-61.44zm-645.12 0H87.04a30.72 30.72 0 1 0 0 61.44h204.8a30.72 30.72 0 1 0 0-61.44z"/></svg>