<?xml version="1.0" standalone="no"?><!DOCTYPE svg PUBLIC "-//W3C//DTD SVG 1.1//EN" "http://www.w3.org/Graphics/SVG/1.1/DTD/svg11.dtd"><svg t="1608282577500" class="icon" viewBox="0 0 1024 1024" version="1.1" xmlns="http://www.w3.org/2000/svg" p-id="3138" xmlns:xlink="http://www.w3.org/1999/xlink" width="200" height="200"><defs><style type="text/css"></style></defs><path d="M776.94464 893.93664h-181.15584a30.72 30.72 0 1 1 0-61.44h181.31968c46.81728 0 84.76672-37.94944 84.76672-84.76672V295.43936c0-47.04256-38.13376-85.17632-85.17632-85.17632H247.47008c-47.13472 0-85.34528 38.21056-85.34528 85.34528v273.05472a30.72 30.72 0 1 1-61.44 0v-272.896c0-81.15712 65.78688-146.944 146.944-146.944h528.86016c81.09056 0 146.82624 65.73568 146.82624 146.82624v451.9168c0 80.83968-65.53088 146.37056-146.37056 146.37056z" p-id="3139"></path><path d="M247.05536 148.82304h181.15584a30.72 30.72 0 1 1 0 61.44H246.89152c-46.81728 0-84.76672 37.94944-84.76672 84.76672v452.29056c0 47.04256 38.13376 85.17632 85.17632 85.17632h529.2288c47.13472 0 85.34528-38.21056 85.34528-85.34528V474.09664a30.72 30.72 0 1 1 61.44 0v272.896c0 81.15712-65.78688 146.944-146.944 146.944H247.51104c-81.09056 0-146.82624-65.73568-146.82624-146.82624V295.1936c0-80.83968 65.53088-146.37056 146.37056-146.37056z" p-id="3140"></path><path d="M354.97984 789.71904a30.72 30.72 0 0 1-30.72-30.72v-450.56a30.72 30.72 0 1 1 61.44 0v450.56a30.72 30.72 0 0 1-30.72 30.72zM687.77984 789.71904a30.72 30.72 0 0 1-30.72-30.72v-450.56a30.72 30.72 0 1 1 61.44 0v450.56a30.72 30.72 0 0 1-30.72 30.72z" p-id="3141"></path><path d="M354.97984 407.50592m-61.44 0a61.44 61.44 0 1 0 122.88 0 61.44 61.44 0 1 0-122.88 0Z" p-id="3142"></path><path d="M687.77984 648.14592m-61.44 0a61.44 61.44 0 1 0 122.88 0 61.44 61.44 0 1 0-122.88 0Z" p-id="3143"></path></svg>