<svg class="icon" viewBox="0 0 1024 1024" xmlns="http://www.w3.org/2000/svg" width="200" height="200"><defs><style/></defs><path d="M776.945 893.937H595.789a30.72 30.72 0 1 1 0-61.44h181.32c46.817 0 84.766-37.95 84.766-84.767V295.44c0-47.043-38.134-85.177-85.176-85.177H247.47c-47.135 0-85.345 38.21-85.345 85.345v273.055a30.72 30.72 0 1 1-61.44 0V295.767c0-81.157 65.787-146.944 146.944-146.944h528.86c81.09 0 146.826 65.736 146.826 146.826v451.917c0 80.84-65.53 146.37-146.37 146.37z"/><path d="M247.055 148.823h181.156a30.72 30.72 0 1 1 0 61.44h-181.32c-46.817 0-84.766 37.95-84.766 84.767v452.29c0 47.043 38.134 85.177 85.176 85.177H776.53c47.135 0 85.345-38.21 85.345-85.346V474.097a30.72 30.72 0 1 1 61.44 0v272.896c0 81.157-65.787 146.944-146.944 146.944h-528.86c-81.09 0-146.826-65.736-146.826-146.827V295.194c0-80.84 65.53-146.371 146.37-146.371z"/><path d="M354.98 789.719a30.72 30.72 0 0 1-30.72-30.72v-450.56a30.72 30.72 0 1 1 61.44 0v450.56a30.72 30.72 0 0 1-30.72 30.72zm332.8 0a30.72 30.72 0 0 1-30.72-30.72v-450.56a30.72 30.72 0 1 1 61.44 0v450.56a30.72 30.72 0 0 1-30.72 30.72z"/><path d="M293.54 407.506a61.44 61.44 0 1 0 122.88 0 61.44 61.44 0 1 0-122.88 0zM626.3399999999999 648.146a61.44 61.44 0 1 0 122.88 0 61.44 61.44 0 1 0-122.88 0z"/></svg>