<svg class="icon" viewBox="0 0 1024 1024" xmlns="http://www.w3.org/2000/svg" width="200" height="200"><defs><style/></defs><path d="M787.273 533.025H653.32l-73.117-97.14c59.462-26.552 100.897-86.159 100.897-155.483 0-94.033-76.224-170.257-170.257-170.257S340.587 186.37 340.587 280.402c0 69.613 41.796 129.436 101.692 155.844l-72.9 96.779h-135c-73.55 0-133.157 59.606-133.157 133.157S160.83 799.338 234.38 799.338h552.858c73.55 0 133.156-59.606 133.156-133.156.037-73.515-59.57-133.157-133.12-133.157zM412.837 280.402c0-54.043 43.928-98.007 98.007-98.007 54.043 0 98.007 43.964 98.007 98.007 0 54.043-43.964 98.008-98.007 98.008-54.043 0-98.007-43.965-98.007-98.008zm98.513 184.202l51.514 68.42H459.799l51.55-68.42zm275.923 262.484H234.379c-33.596 0-60.907-27.346-60.907-60.906s27.347-60.907 60.907-60.907h552.894c33.596 0 60.906 27.346 60.906 60.907s-27.346 60.906-60.906 60.906zM251.14 841.93h509.58v72.25H251.14z"/></svg>