<?xml version="1.0" standalone="no"?><!DOCTYPE svg PUBLIC "-//W3C//DTD SVG 1.1//EN" "http://www.w3.org/Graphics/SVG/1.1/DTD/svg11.dtd"><svg t="1608282873574" class="icon" viewBox="0 0 1024 1024" version="1.1" xmlns="http://www.w3.org/2000/svg" p-id="2943" xmlns:xlink="http://www.w3.org/1999/xlink" width="200" height="200"><defs><style type="text/css"></style></defs><path d="M787.272702 533.024765h-133.951598l-73.117054-97.140196c59.461794-26.551894 100.897199-86.158188 100.897199-155.482114 0-94.033444-76.223806-170.25725-170.25725-170.257249s-170.25725 76.223806-170.25725 170.257249c0 69.612926 41.796656 129.43597 101.69195 155.843365l-72.900303 96.778945H234.379172c-73.550554 0-133.156848 59.606294-133.156848 133.156848s59.606294 133.156848 133.156848 133.156847h552.857405c73.550554 0 133.156848-59.606294 133.156847-133.156847 0.036125-73.514429-59.570169-133.156848-133.120722-133.156848zM412.836802 280.402455c0-54.04304 43.928032-98.007197 98.007197-98.007196 54.04304 0 98.007197 43.964157 98.007197 98.007196 0 54.04304-43.964157 98.007197-98.007197 98.007197-54.04304 0-98.007197-43.964157-98.007197-98.007197z m98.512948 184.20151l51.514287 68.4208h-103.0647l51.550413-68.4208z m275.922952 262.484443H234.379172c-33.596275 0-60.906795-27.346645-60.906795-60.906795s27.346645-60.906795 60.906795-60.906795h552.89353c33.596275 0 60.906795 27.346645 60.906794 60.906795s-27.346645 60.906795-60.906794 60.906795zM251.141184 841.929867h509.579623v72.250053H251.141184z" p-id="2944"></path></svg>