<svg class="icon" viewBox="0 0 1024 1024" xmlns="http://www.w3.org/2000/svg" width="200" height="200"><defs><style/></defs><path d="M64 127.712C64 92.512 92.864 64 128.288 64h255.424C419.232 64 448 92.8 448 127.712V896.32c0 35.2-28.864 63.712-64.288 63.712H128.32C92.768 960 64 931.2 64 896.288V127.68zm64 32.32v703.936C128 881.696 142.272 896 159.904 896h192.192C369.504 896 384 881.664 384 864V160c0-17.696-14.272-32-31.904-32H159.904C142.496 128 128 142.336 128 160zm384-31.744C512 92.768 540.704 64 576.192 64h319.616C931.264 64 960 92.864 960 128.288v255.424c0 35.52-28.704 64.288-64.192 64.288H576.192A64.288 64.288 0 0 1 512 383.712V128.32zm64 31.616v192.192A32 32 0 0 0 607.84 384h256.32c17.28 0 31.84-14.272 31.84-31.904V159.904A32 32 0 0 0 864.16 128H607.84c-17.28 0-31.84 14.272-31.84 31.904zm-64 416.288C512 540.736 540.704 512 576.192 512h319.616C931.264 512 960 540.704 960 576.192v319.616A64.16 64.16 0 0 1 895.808 960H576.192A64.16 64.16 0 0 1 512 895.808V576.192zm64 31.68V864.16c0 17.28 14.272 31.84 31.84 31.84h256.32c17.28 0 31.84-14.272 31.84-31.84V607.84c0-17.28-14.272-31.84-31.84-31.84H607.84c-17.28 0-31.84 14.272-31.84 31.84z"/></svg>