<svg class="icon" viewBox="0 0 1024 1024" xmlns="http://www.w3.org/2000/svg" width="200" height="200"><defs><style/></defs><path d="M598.355 67.543c-48.149 0-90.13 32.905-98.961 79.437 0 0-14.313 72.883-21.799 99.09-12.309 43.197-55.363 90.945-86.523 106.189-23.531 11.636-110.998 11.765-116.35 11.765H155.707c-32.762 0-59.384 26.48-59.384 59.384v475.023c0 32.763 26.48 59.384 59.384 59.384h548.034c88.126 0 163.026-64.453 176.136-151.648l45.873-305.713c10.835-71.81-44.8-136.275-117.424-136.275H673.254s20.066-66.47 30.229-178.67c5.081-56.837-35.168-110.997-94.28-117.152a72.945 72.945 0 0 0-10.848-.814zm-264.65 830.745V421.534c38.917-2.534 67-8.016 83.575-16.317 43.727-21.67 99.633-81.04 117.282-143.089 7.9-27.681 21.398-96.155 23-104.184 3.479-17.92 20.597-31.16 40.65-31.16 1.604 0 3.207.13 4.823.272 28.212 2.948 43.326 29.699 41.322 52.687-9.36 103.913-27.824 166.503-28.082 166.904l-23.13 76.49h215.181c17.52 0 33.565 7.357 45.072 20.596 11.507 13.24 16.317 30.229 13.64 47.619l-45.743 305.7c-8.831 58.57-58.182 101.094-117.424 101.094H333.705v.142zm-177.998 0V423.266h118.627v475.022H155.707zm0 0"/></svg>