<svg class="icon" viewBox="0 0 1024 1024" xmlns="http://www.w3.org/2000/svg" width="200" height="200"><defs><style/></defs><path d="M449.597 552.46c-2.59 0-5.211-.32-7.8-.959C313.73 519.31 224.28 404.67 224.28 272.734V160.843c0-17.647 14.322-31.969 31.969-31.969s31.969 14.322 31.969 31.969v111.89c0 102.588 69.564 191.717 169.114 216.749 17.135 4.316 27.526 21.675 23.242 38.778-3.645 14.546-16.688 24.2-30.978 24.2zm124.806 0c-14.29 0-27.301-9.654-30.978-24.168-4.315-17.134 6.074-34.493 23.209-38.777C666.217 464.45 735.78 375.321 735.78 272.734V160.843c0-17.647 14.29-31.969 31.97-31.969s31.968 14.322 31.968 31.969v111.89c0 131.936-89.449 246.576-217.484 278.768a33.02 33.02 0 0 1-7.832.96zM767.75 896.125c-17.678 0-31.969-14.322-31.969-31.969V768.25c0-102.62-69.564-191.749-169.114-216.749-17.135-4.283-27.526-21.674-23.242-38.778 4.348-17.134 21.93-27.397 38.777-23.208C710.27 521.643 799.72 636.283 799.72 768.25v95.906c0 17.647-14.29 31.969-31.969 31.969zm-511.5 0c-17.647 0-31.969-14.322-31.969-31.969V768.25c0-131.967 89.449-246.607 217.517-278.768 17.167-4.188 34.46 6.074 38.777 23.21 4.315 17.134-6.074 34.493-23.242 38.776C357.751 576.501 288.22 665.63 288.22 768.25v95.906c0 17.647-14.322 31.969-31.97 31.969zm607.407-703.313H160.343c-17.646 0-31.968-14.322-31.968-31.97V32.969c0-17.647 14.322-31.969 31.968-31.969h703.314c17.678 0 31.968 14.322 31.968 31.969v127.875c0 17.647-14.29 31.969-31.968 31.969zm-671.345-63.938h639.376V64.937H192.312v63.937zM863.657 1024H160.343c-17.646 0-31.968-14.322-31.968-31.969V864.156c0-17.647 14.322-31.969 31.968-31.969h703.314c17.678 0 31.968 14.322 31.968 31.97V992.03c0 17.647-14.29 31.969-31.968 31.969zm-671.345-63.938h639.376v-63.937H192.312v63.937z"/></svg>