<svg class="icon" viewBox="0 0 1024 1024" xmlns="http://www.w3.org/2000/svg" width="200" height="200"><defs><style/></defs><path d="M511.744 308.352c35.84 0 68.992-15.744 86.656-41.28 17.664-25.6 17.152-56.96-1.28-82.112L511.68 64l-85.248 120.96a68.928 68.928 0 0 0-1.28 82.112c17.6 25.536 50.752 41.344 86.592 41.28zm228.608 406.656l-53.504-43.776-53.76 43.776c-64.896 53.12-178.304 53.12-243.2 0l-53.504-43.776-53.76 43.776c-31.872 26.624-75.52 41.536-121.088 41.344A199.104 199.104 0 0 1 64 731.328v187.968C64 941.696 86.4 960 113.728 960H909.76c27.328 0 49.728-18.304 49.728-40.704V731.328a198.528 198.528 0 0 1-97.472 25.024c-45.696.128-89.536-14.72-121.6-41.344zm69.888-284.48H561.472V349.12H462.08v81.408H213.248C130.944 430.528 64 485.312 64 552.768v62.72c0 43.968 43.776 79.808 97.536 79.808 26.112 0 50.496-8.32 68.864-23.424l106.496-86.976 106.24 86.784c36.8 30.08 100.928 30.08 137.792 0l106.432-86.784L793.6 671.68c18.368 15.04 42.752 23.424 68.864 23.424 53.76 0 97.536-35.84 97.536-79.872v-62.528c-.512-67.392-67.392-122.176-149.76-122.176z"/></svg>