<svg class="icon" viewBox="0 0 1024 1024" xmlns="http://www.w3.org/2000/svg" width="200" height="200"><defs><style/></defs><path d="M806.886 374.562c-22.297-23.484-46.114-44.433-69.956-62.66-3.575-2.722-6.306-4.634-9.472-6.946 44.271-15.215 75.23-51.618 75.23-94.72 0-58.027-55.083-102.426-120.5-102.426-15.06 0-28.936 2.825-41.36 7.56-5.777 2.202-10.104 4.43-13.688 6.512-2.295.955-7.168-.12-8.507-1.792l-.052.05c-5-7.483-12.518-16.75-23.458-26.248-20.821-18.082-45.465-29.243-73.608-29.243-28.135 0-52.788 11.161-73.6 29.243-10.693 9.285-18.023 18.287-23.032 25.686l-.034-.035c-1.894 2.245-6.801 3.414-8.516 2.595-3.635-2.142-8.115-4.463-14.123-6.759-12.424-4.736-26.3-7.56-41.36-7.56-65.417 0-120.5 44.399-120.5 102.425 0 36.847 22.733 68.745 56.934 86.793a550.561 550.561 0 0 0-10.93 7.961c-23.809 17.758-47.583 38.469-69.855 62.012-64.665 68.395-103.936 146.603-103.936 233.42 0 240.769 179.43 355.26 395.563 355.26 90.573 0 179.123-18.064 250.769-60.723 97.237-57.898 152.533-155.17 152.533-294.536.009-81.621-39.526-157.414-104.542-225.869zM508.134 901.905c-190.25 0-342.016-96.845-342.016-301.491 0-71.066 33.17-137.122 89.225-196.412 19.994-21.145 41.48-39.85 62.95-55.876 7.484-5.58 14.405-10.42 20.574-14.464 3.593-2.364 6.067-3.9 7.21-4.574 30.192-19.95 27.333-55.108-2.21-70.11.069-.222.095-.316.069-.333-.11-.05-.11-.05-.18-.085-.153-.068-.153-.068-.34-.162l-1.033-.487c-1.067-.503-1.067-.503-1.417-.665l-.008.008c-.316-.153-.324-.162-.76-.358l-.58-.222c-.051-.017-.085-.043-.12-.06l-.016.017-3.098-1.177c-26.103-7.637-42.479-26.138-42.479-45.235 0-25.413 28.843-48.657 66.944-48.657 8.2 0 15.718 1.536 22.349 4.061 3.678 1.4 5.94 2.62 6.485 2.987l3.251 1.886c24.227 11.802 55.416 4.36 72.773-16.196l2.261-3.106c2.253-3.584 7.45-10.104 14.985-16.632 11.852-10.291 24.772-16.153 38.57-16.153 13.799 0 26.735 5.862 38.58 16.153 7.517 6.537 12.731 13.048 14.967 16.632l1.817 2.56c16.896 21.137 48.402 28.168 72.679 17.007l3.797-2.142c.538-.367 2.808-1.588 6.477-2.987 6.63-2.526 14.165-4.062 22.349-4.062 38.118 0 66.952 23.253 66.952 48.657 0 19.098-16.375 37.598-42.47 45.235l-3.832 1.443c-7.517 3.515-12.5 5.17-14.353 5.572-37.546 11.614-43.93 49.945-13.508 71.356a371.772 371.772 0 0 1 8.679 5.734c6.246 4.267 13.269 9.318 20.83 15.112 21.717 16.59 43.434 35.712 63.641 56.978 56.405 59.4 89.762 123.323 89.762 188.757-.017 215.245-144.862 301.491-349.756 301.491z"/><path d="M619.7 585.225c12.33 0 22.314-10.206 22.314-22.81s-9.984-22.818-22.315-22.818h-91.161l84.633-86.52c8.713-8.908 8.713-23.347 0-32.256s-22.844-8.908-31.556 0l-73.472 75.11-73.48-75.11a21.98 21.98 0 0 0-31.565 0c-8.713 8.91-8.713 23.348 0 32.256l84.65 86.52h-91.195c-12.314 0-22.315 10.214-22.315 22.818s10 22.81 22.315 22.81h89.267v22.818h-89.267c-12.314 0-22.315 10.206-22.315 22.81s10 22.817 22.315 22.817h89.267v65.699c0 9.634 9.984 17.442 22.314 17.442 12.314 0 22.307-7.808 22.307-17.442V653.67h89.258c12.33 0 22.315-10.214 22.315-22.818s-9.984-22.81-22.315-22.81h-89.258v-22.817h89.258z"/></svg>