<?xml version="1.0" standalone="no"?><!DOCTYPE svg PUBLIC "-//W3C//DTD SVG 1.1//EN" "http://www.w3.org/Graphics/SVG/1.1/DTD/svg11.dtd"><svg t="1608283178115" class="icon" viewBox="0 0 1024 1024" version="1.1" xmlns="http://www.w3.org/2000/svg" p-id="1464" xmlns:xlink="http://www.w3.org/1999/xlink" width="200" height="200"><defs><style type="text/css"></style></defs><path d="M928 64a32 32 0 0 1 32 32v832a32 32 0 0 1-32 32h-384a32 32 0 0 1-32-32V832H288a32 32 0 0 1-31.488-26.24L256 800V704H96a32 32 0 0 1-31.488-26.24L64 672v-320a32 32 0 0 1 32-32H256V224a32 32 0 0 1 26.24-31.488L288 192H512V96a32 32 0 0 1 26.24-31.488L544 64zM896 128H576v768h320V128zM512 256H320v512h192V256zM256 384H128v256h128V384z" p-id="1465"></path></svg>