<?xml version="1.0" standalone="no"?><!DOCTYPE svg PUBLIC "-//W3C//DTD SVG 1.1//EN" "http://www.w3.org/Graphics/SVG/1.1/DTD/svg11.dtd"><svg t="1608282896293" class="icon" viewBox="0 0 1024 1024" version="1.1" xmlns="http://www.w3.org/2000/svg" p-id="1851" xmlns:xlink="http://www.w3.org/1999/xlink" width="200" height="200"><defs><style type="text/css"></style></defs><path d="M907.401466 628.598319a215.12605 215.12605 0 1 0 63.247058 152.739496 215.12605 215.12605 0 0 0-63.247058-152.739496z m-211.684034 129.075631a20.221849 20.221849 0 0 1 3.442017-4.302521l120.90084-112.295799a27.105882 27.105882 0 0 1 37.862185 0l16.34958 16.34958a27.105882 27.105882 0 0 1 0 38.292437l-120.900841 112.295798c-2.581513 2.581513 0 2.151261-6.023529 3.442017l-70.991597 30.117647a9.895798 9.895798 0 0 1-11.186554-11.186554z m166.937815 157.472268h-215.12605a27.105882 27.105882 0 1 1 0-53.781512h215.12605a27.105882 27.105882 0 1 1 0 53.781512zM511.999785 510.278992c138.110924 0 277.082353-195.764706 188.020168-395.831933a196.62521 196.62521 0 0 0-172.10084-114.016807C368.295583-6.023529 296.01323 90.352941 296.01323 243.952941s105.842017 266.32605 215.986555 266.326051z" p-id="1852"></path><path d="M484.893903 780.907563a268.047059 268.047059 0 0 1 61.095798-172.10084 27.105882 27.105882 0 0 0-19.361345-43.02521h-15.058823C258.581297 565.351261 53.351045 799.838655 53.351045 888.90084s205.230252 135.09916 458.64874 135.09916h39.583193a27.105882 27.105882 0 0 0 18.070588-46.467227 269.768067 269.768067 0 0 1-84.759663-196.62521z" p-id="1853"></path></svg>