<svg class="icon" viewBox="0 0 1024 1024" xmlns="http://www.w3.org/2000/svg" width="200" height="200"><defs><style/></defs><path d="M780.8 64H243.2c-74.1 0-134.4 60.3-134.4 134.4v627.2c0 74.1 60.3 134.4 134.4 134.4h537.6c74.1 0 134.4-60.3 134.4-134.4V198.4c0-74.1-60.3-134.4-134.4-134.4zm44.8 761.6c0 24.7-20.1 44.8-44.8 44.8H243.2c-24.7 0-44.8-20.1-44.8-44.8V198.4c0-24.7 20.1-44.8 44.8-44.8h537.6c24.7 0 44.8 20.1 44.8 44.8v627.2z"/><path d="M339.9 463.5h164.9c36.9 0 66.9-30 66.9-66.9V291.4c0-36.9-30-66.9-66.9-66.9H339.9c-36.9 0-66.9 30-66.9 66.9v105.2c.1 36.9 30.1 66.9 66.9 66.9zm22.8-149.4h119.5v59.7H362.7v-59.7zm343.4 228.2H317.9c-24.6 0-44.8 20.2-44.8 44.8 0 24.6 20.2 44.8 44.8 44.8h388.3c24.6 0 44.8-20.2 44.8-44.8-.1-24.6-20.2-44.8-44.9-44.8zm0 161.5H317.9c-24.6 0-44.8 20.2-44.8 44.8 0 24.6 20.2 44.8 44.8 44.8h388.3c24.6 0 44.8-20.2 44.8-44.8-.1-24.6-20.2-44.8-44.9-44.8z"/></svg>