<?xml version="1.0" standalone="no"?><!DOCTYPE svg PUBLIC "-//W3C//DTD SVG 1.1//EN" "http://www.w3.org/Graphics/SVG/1.1/DTD/svg11.dtd"><svg t="1608282910481" class="icon" viewBox="0 0 1024 1024" version="1.1" xmlns="http://www.w3.org/2000/svg" p-id="2389" xmlns:xlink="http://www.w3.org/1999/xlink" width="200" height="200"><defs><style type="text/css"></style></defs><path d="M920.52437 0h-817.478992a60.235294 60.235294 0 0 0-60.235294 60.235294v903.529412a60.235294 60.235294 0 0 0 60.235294 60.235294h817.478992a60.235294 60.235294 0 0 0 60.235294-60.235294v-903.529412a60.235294 60.235294 0 0 0-60.235294-60.235294z m-17.210084 946.554622H120.685714V77.445378H903.744538z" p-id="2390"></path><path d="M711.852101 212.97479l-82.608404-82.608403L346.568067 413.042017l-52.921008 135.529412 135.529412-52.921009 282.67563-282.67563zM254.063866 607.515966h516.302521v81.7479h-516.302521zM254.063866 766.709244h516.302521v81.747899h-516.302521z" p-id="2391"></path></svg>