<svg class="icon" viewBox="0 0 1024 1024" xmlns="http://www.w3.org/2000/svg" width="200" height="200"><defs><style/></defs><path d="M321.92 204.431c0-23.587-.855-43.197.18-62.71 2.134-40.412 26.915-64.813 67.179-65.095 82.724-.568 165.463-.538 248.187-.026 40.627.251 65.449 24.116 67.763 64.497 1.157 20.188.2 40.494.2 63.33 40.34 0 77.675-.098 115.015.02 88.074.281 140.519 51.128 141.046 139.504.845 141.573.737 283.162.036 424.735-.435 87.158-51.513 139.146-138.25 139.48-206.393.788-412.795.782-619.193.004-86.712-.327-137.759-52.295-138.194-139.489a44999.363 44999.363 0 0 1-.03-424.735c.394-88.709 51.968-139.182 140.467-139.5 37.36-.127 74.721-.015 115.594-.015zm575.596 257.772H129.71c0 102.292-.04 202.813.015 303.334.031 55.255 23.819 78.853 79.54 78.869 153.492.051 306.985.02 460.477.015 53.724 0 107.454.471 161.167-.194 37.003-.456 65.89-25.764 66.228-60.82 1.039-106.466.379-212.962.379-321.204zm.153-66.734c0-22.472.466-41.959-.097-61.415-1.075-37.012-24.781-63.662-61.998-64.634-59.577-1.557-119.225-.067-178.847-.016-95.37.077-190.74.077-286.116.005-59.617-.046-119.26-1.29-178.847-.025-32.005.68-56.99 22.164-60.59 52.03-2.903 24.084-.588 48.798-.588 74.05l767.083.005zM640.824 142.397h-253.01v59.956h253.01v-59.956z"/></svg>