<?xml version="1.0" standalone="no"?><!DOCTYPE svg PUBLIC "-//W3C//DTD SVG 1.1//EN" "http://www.w3.org/Graphics/SVG/1.1/DTD/svg11.dtd"><svg t="1608282542564" class="icon" viewBox="0 0 1024 1024" version="1.1" xmlns="http://www.w3.org/2000/svg" p-id="2055" xmlns:xlink="http://www.w3.org/1999/xlink" width="200" height="200"><defs><style type="text/css"></style></defs><path d="M321.92 204.43136c0-23.58784-0.85504-43.19744 0.1792-62.70976 2.13504-40.41216 26.91584-64.81408 67.17952-65.09568 82.72384-0.56832 165.46304-0.5376 248.18688-0.0256 40.6272 0.25088 65.44896 24.1152 67.7632 64.49664 1.15712 20.18816 0.19968 40.49408 0.19968 63.32928 40.34048 0 77.67552-0.09728 115.01568 0.02048 88.07424 0.2816 140.5184 51.12832 141.04576 139.50464 0.8448 141.57312 0.73728 283.1616 0.03584 424.73472-0.4352 87.15776-51.51232 139.14624-138.25024 139.47904-206.39232 0.78848-412.79488 0.78336-619.19232 0.00512-86.71232-0.32768-137.75872-52.29568-138.19392-139.48928a44999.36256 44999.36256 0 0 1-0.03072-424.73472c0.39424-88.70912 51.968-139.18208 140.4672-139.49952 37.36064-0.128 74.72128-0.01536 115.59424-0.01536z m575.59552 257.77152H129.71008c0 102.29248-0.04096 202.81344 0.01536 303.3344 0.03072 55.25504 23.81824 78.85312 79.5392 78.86848 153.49248 0.0512 306.98496 0.02048 460.47744 0.01536 53.72416 0 107.45344 0.47104 161.16736-0.19456 37.00224-0.45568 65.88928-25.76384 66.2272-60.82048 1.03936-106.46528 0.37888-212.96128 0.37888-321.2032z m0.1536-66.73408c0-22.47168 0.46592-41.9584-0.09728-61.4144-1.0752-37.01248-24.7808-63.66208-61.99808-64.63488-59.57632-1.55648-119.22432-0.06656-178.84672-0.01536-95.37024 0.0768-190.74048 0.0768-286.11584 0.00512-59.61728-0.04608-119.26016-1.29024-178.84672-0.0256-32.00512 0.68096-56.99072 22.16448-60.59008 52.02944-2.90304 24.08448-0.5888 48.79872-0.5888 74.05056l767.08352 0.00512z m-256.8448-253.07136H387.8144v59.9552h253.00992v-59.9552z" p-id="2056"></path></svg>