<svg class="icon" viewBox="0 0 1024 1024" xmlns="http://www.w3.org/2000/svg" width="200" height="200"><defs><style/></defs><path d="M920.524 0H103.045A60.235 60.235 0 0 0 42.81 60.235v903.53A60.235 60.235 0 0 0 103.045 1024h817.48a60.235 60.235 0 0 0 60.235-60.235V60.235A60.235 60.235 0 0 0 920.524 0zm-17.21 946.555H120.686V77.445h783.059z"/><path d="M711.852 212.975l-82.608-82.609-282.676 282.676-52.92 135.53 135.528-52.922 282.676-282.675zM254.064 607.516h516.302v81.748H254.064zm0 159.193h516.302v81.748H254.064z"/></svg>