<?xml version="1.0" standalone="no"?><!DOCTYPE svg PUBLIC "-//W3C//DTD SVG 1.1//EN" "http://www.w3.org/Graphics/SVG/1.1/DTD/svg11.dtd"><svg t="1608289076990" class="icon" viewBox="0 0 1024 1024" version="1.1" xmlns="http://www.w3.org/2000/svg" p-id="2801" xmlns:xlink="http://www.w3.org/1999/xlink" width="200" height="200"><defs><style type="text/css"></style></defs><path d="M 780.8 64 H 243.2 c -74.1 0 -134.4 60.3 -134.4 134.4 v 627.2 c 0 74.1 60.3 134.4 134.4 134.4 h 537.6 c 74.1 0 134.4 -60.3 134.4 -134.4 V 198.4 c 0 -74.1 -60.3 -134.4 -134.4 -134.4 Z m 44.8 761.6 c 0 24.7 -20.1 44.8 -44.8 44.8 H 243.2 c -24.7 0 -44.8 -20.1 -44.8 -44.8 V 198.4 c 0 -24.7 20.1 -44.8 44.8 -44.8 h 537.6 c 24.7 0 44.8 20.1 44.8 44.8 v 627.2 Z" fill="" p-id="2802"></path><path d="M 339.9 463.5 h 164.9 c 36.9 0 66.9 -30 66.9 -66.9 V 291.4 c 0 -36.9 -30 -66.9 -66.9 -66.9 H 339.9 c -36.9 0 -66.9 30 -66.9 66.9 v 105.2 c 0.1 36.9 30.1 66.9 66.9 66.9 Z m 22.8 -149.4 h 119.5 v 59.7 H 362.7 v -59.7 Z M 706.1 542.3 H 317.9 c -24.6 0 -44.8 20.2 -44.8 44.8 c 0 24.6 20.2 44.8 44.8 44.8 h 388.3 c 24.6 0 44.8 -20.2 44.8 -44.8 c -0.1 -24.6 -20.2 -44.8 -44.9 -44.8 Z M 706.1 703.8 H 317.9 c -24.6 0 -44.8 20.2 -44.8 44.8 c 0 24.6 20.2 44.8 44.8 44.8 h 388.3 c 24.6 0 44.8 -20.2 44.8 -44.8 c -0.1 -24.6 -20.2 -44.8 -44.9 -44.8 Z" fill="" p-id="2803"></path></svg>