<svg class="icon" viewBox="0 0 1043 1024" xmlns="http://www.w3.org/2000/svg" width="203.711" height="200"><defs><style/></defs><path d="M598.305 925.74l-265.33 58.315 27.408-102.05 43.735-158.324L777.33 355.134V63.563A58.314 58.314 0 0 0 723.681 0H615.8v87.472a23.034 23.034 0 1 1-46.069 0V0h-153.95v87.472a23.034 23.034 0 0 1-23.034 23.034 23.034 23.034 0 0 1-23.034-23.034V0H215.472v87.472a23.034 23.034 0 1 1-46.069 0V0H61.522A66.187 66.187 0 0 0 0 61.522v900.665a66.187 66.187 0 0 0 61.522 61.521H716.1a66.187 66.187 0 0 0 61.522-61.521V746.424zM135.872 230.633h469.431a20.41 20.41 0 0 1 23.034 23.034 20.41 20.41 0 0 1-23.034 23.035h-469.43a20.41 20.41 0 0 1-23.035-23.035 20.41 20.41 0 0 1 23.034-23.034zm0 169.403h469.431a20.41 20.41 0 0 1 23.034 23.035 20.41 20.41 0 0 1-23.034 23.034h-469.43a20.41 20.41 0 0 1-23.035-23.034 20.41 20.41 0 0 1 23.034-23.035zm-23.034 207.891a20.41 20.41 0 0 1 23.034-23.034h269.413a20.41 20.41 0 0 1 23.034 23.034 24.492 24.492 0 0 1-23.034 23.034H135.872a20.41 20.41 0 0 1-23.325-23.325z"/><path d="M432.11 731.554l366.505-363.59 163.572 165.32-366.506 363.3zm-82.224 235.298l230.633-53.65-163.863-165.32zm680.82-562.442L928.948 301.777a44.61 44.61 0 0 0-62.397 0l-50.15 50.733 163.863 165.321 50.15-51.316a44.61 44.61 0 0 0 .292-62.105z"/></svg>