<svg class="icon" viewBox="0 0 1024 1024" xmlns="http://www.w3.org/2000/svg" width="200" height="200"><defs><style/></defs><path d="M930.91 1024H93.09C41.89 1024 0 982.11 0 930.91V279.272c0-51.2 41.89-93.091 93.09-93.091h837.82c51.2 0 93.09 41.89 93.09 93.09V930.91c0 51.2-41.89 93.091-93.09 93.091zm-791.274-93.09h744.728c27.927 0 46.545-18.62 46.545-46.546V325.818c0-27.927-18.618-46.545-46.545-46.545H93.09v605.09c0 27.928 18.618 46.546 46.545 46.546z"/><path d="M479.418 721.455L349.091 591.127c-18.618-18.618-18.618-46.545 0-65.163 18.618-18.619 46.545-18.619 65.164 0L512 623.709l97.745-97.745c18.619-18.619 46.546-18.619 65.164 0 18.618 18.618 18.618 46.545 0 65.163L544.582 721.455c-18.618 13.963-46.546 13.963-65.164 0zm265.31-442.182H279.272V46.545C279.273 18.618 297.89 0 325.818 0h372.364c27.927 0 46.545 18.618 46.545 46.545v232.728zm-372.364-93.091h279.272V93.09H372.364v93.09z"/></svg>