<?xml version="1.0" standalone="no"?><!DOCTYPE svg PUBLIC "-//W3C//DTD SVG 1.1//EN" "http://www.w3.org/Graphics/SVG/1.1/DTD/svg11.dtd"><svg t="1608289059675" class="icon" viewBox="0 0 1024 1024" version="1.1" xmlns="http://www.w3.org/2000/svg" p-id="2622" xmlns:xlink="http://www.w3.org/1999/xlink" width="200" height="200"><defs><style type="text/css"></style></defs><path d="M930.909091 1024H93.090909c-51.2 0-93.090909-41.890909-93.090909-93.090909V279.272727c0-51.2 41.890909-93.090909 93.090909-93.090909h837.818182c51.2 0 93.090909 41.890909 93.090909 93.090909v651.636364c0 51.2-41.890909 93.090909-93.090909 93.090909zM139.636364 930.909091h744.727272c27.927273 0 46.545455-18.618182 46.545455-46.545455V325.818182c0-27.927273-18.618182-46.545455-46.545455-46.545455H93.090909v605.090909c0 27.927273 18.618182 46.545455 46.545455 46.545455z" fill="#31394C" p-id="2623"></path><path d="M479.418182 721.454545l-130.327273-130.327272c-18.618182-18.618182-18.618182-46.545455 0-65.163637 18.618182-18.618182 46.545455-18.618182 65.163636 0l97.745455 97.745455 97.745455-97.745455c18.618182-18.618182 46.545455-18.618182 65.163636 0 18.618182 18.618182 18.618182 46.545455 0 65.163637l-130.327273 130.327272c-18.618182 13.963636-46.545455 13.963636-65.163636 0zM744.727273 279.272727H279.272727V46.545455c0-27.927273 18.618182-46.545455 46.545455-46.545455h372.363636c27.927273 0 46.545455 18.618182 46.545455 46.545455v232.727272zM372.363636 186.181818h279.272728V93.090909H372.363636v93.090909z" fill="#31394C" p-id="2624"></path></svg>