<svg class="icon" viewBox="0 0 1024 1024" xmlns="http://www.w3.org/2000/svg" width="200" height="200"><defs><style/></defs><path d="M535.273 465.455v93.09a69.818 69.818 0 1 1-69.818-69.818V512A46.545 46.545 0 1 0 512 558.545v-93.09a69.818 69.818 0 1 1 69.818 69.818V512a46.545 46.545 0 1 0-46.545-46.545zm23.272-162.91h46.546V256h23.273v46.545h93.09v93.091H768v23.273h-46.545v46.546H768v23.272h-46.545v46.546H768v23.272h-46.545v46.546H768v23.273h-46.545v93.09h-93.091V768H605.09v-46.545h-46.546V768h-23.272v-46.545h-46.546V768h-23.272v-46.545h-46.546V768h-23.273v-46.545h-93.09v-93.091H256V605.09h46.545v-46.546H256v-23.272h46.545v-46.546H256v-23.272h46.545v-46.546H256v-23.273h46.545v-93.09h93.091V256h23.273v46.545h46.546V256h23.272v46.545h46.546V256h23.272v46.545zM512 0l442.182 256v512L512 1024 69.818 768V256L512 0zm0 28.276L93.09 270.15v483.7L512 995.724 930.91 753.85v-483.7L512 28.276zM325.818 325.818v372.364h372.364V325.818H325.818z"/></svg>