<?xml version="1.0" standalone="no"?><!DOCTYPE svg PUBLIC "-//W3C//DTD SVG 1.1//EN" "http://www.w3.org/Graphics/SVG/1.1/DTD/svg11.dtd"><svg t="1608283107059" class="icon" viewBox="0 0 1024 1024" version="1.1" xmlns="http://www.w3.org/2000/svg" p-id="5040" xmlns:xlink="http://www.w3.org/1999/xlink" width="200" height="200"><defs><style type="text/css"></style></defs><path d="M712 544h-416a24 24 0 0 1 0-48h416a24 24 0 0 1 0 48zM680 704h-352a24 24 0 0 1 0-48h352a24 24 0 0 1 0 48z" p-id="5041"></path><path d="M504 544a24.16 24.16 0 0 1-20.8-12l-176-304a24 24 0 0 1 41.6-24l155.2 268.16 155.2-268.16a24 24 0 0 1 41.6 24l-176 304a24.16 24.16 0 0 1-20.8 12z" p-id="5042"></path><path d="M504 896a24 24 0 0 1-24-24v-352a24 24 0 0 1 48 0v352a24 24 0 0 1-24 24z" p-id="5043"></path></svg>